<ttFont>
    <TTGlyph name=".notdef" xMin="7" yMin="0" xMax="507" yMax="700">
      <contour>
        <pt x="7" y="700" on="1"/>
        <pt x="507" y="700" on="1"/>
        <pt x="507" y="0" on="1"/>
        <pt x="7" y="0" on="1"/>
      </contour>
      <contour>
        <pt x="426" y="650" on="1"/>
        <pt x="86" y="650" on="1"/>
        <pt x="257" y="395" on="1"/>
      </contour>
      <contour>
        <pt x="227" y="350" on="1"/>
        <pt x="56" y="605" on="1"/>
        <pt x="56" y="95" on="1"/>
      </contour>
      <contour>
        <pt x="456" y="605" on="1"/>
        <pt x="287" y="350" on="1"/>
        <pt x="456" y="95" on="1"/>
      </contour>
      <contour>
        <pt x="427" y="50" on="1"/>
        <pt x="256" y="305" on="1"/>
        <pt x="87" y="50" on="1"/>
      </contour>
    </TTGlyph>
    <TTGlyph name="A" xMin="13" yMin="-2" xMax="492" yMax="702">
      <contour>
        <pt x="13" y="-2" on="0"/>
        <pt x="13" y="15" on="1"/>
        <pt x="13" y="18" on="0"/>
        <pt x="15" y="28" on="1"/>
        <pt x="196" y="683" on="1"/>
        <pt x="202" y="702" on="0"/>
        <pt x="236" y="702" on="1"/>
        <pt x="268" y="702" on="1"/>
        <pt x="304" y="702" on="0"/>
        <pt x="308" y="683" on="1"/>
        <pt x="489" y="28" on="1"/>
        <pt x="492" y="21" on="0"/>
        <pt x="492" y="15" on="1"/>
        <pt x="492" y="7" on="0"/>
        <pt x="473" y="-2" on="0"/>
        <pt x="455" y="-2" on="1"/>
        <pt x="438" y="-2" on="1"/>
        <pt x="406" y="-2" on="0"/>
        <pt x="402" y="14" on="1"/>
        <pt x="359" y="178" on="1"/>
        <pt x="144" y="178" on="1"/>
        <pt x="102" y="14" on="1"/>
        <pt x="98" y="-2" on="0"/>
        <pt x="66" y="-2" on="1"/>
        <pt x="50" y="-2" on="1"/>
      </contour>
      <contour>
        <pt x="337" y="254" on="1"/>
        <pt x="266" y="528" on="1"/>
        <pt x="263" y="541" on="0"/>
        <pt x="255" y="589" on="1"/>
        <pt x="250" y="589" on="1"/>
        <pt x="248" y="582" on="0"/>
        <pt x="246" y="566" on="1"/>
        <pt x="238" y="528" on="1"/>
        <pt x="167" y="254" on="1"/>
      </contour>
    </TTGlyph>
    <TTGlyph name="AE" xMin="1" yMin="-2" xMax="678" yMax="700">
      <contour>
        <pt x="1" y="-2" on="0"/>
        <pt x="1" y="15" on="1"/>
        <pt x="1" y="23" on="0"/>
        <pt x="5" y="31" on="1"/>
        <pt x="261" y="673" on="1"/>
        <pt x="267" y="687" on="0"/>
        <pt x="283" y="700" on="0"/>
        <pt x="296" y="700" on="1"/>
        <pt x="658" y="700" on="1"/>
        <pt x="677" y="700" on="0"/>
        <pt x="677" y="670" on="1"/>
        <pt x="677" y="654" on="1"/>
        <pt x="677" y="624" on="0"/>
        <pt x="658" y="624" on="1"/>
        <pt x="382" y="624" on="1"/>
        <pt x="417" y="396" on="1"/>
        <pt x="635" y="396" on="1"/>
        <pt x="654" y="396" on="0"/>
        <pt x="654" y="366" on="1"/>
        <pt x="654" y="350" on="1"/>
        <pt x="654" y="320" on="0"/>
        <pt x="635" y="320" on="1"/>
        <pt x="429" y="320" on="1"/>
        <pt x="467" y="76" on="1"/>
        <pt x="659" y="76" on="1"/>
        <pt x="678" y="76" on="0"/>
        <pt x="678" y="46" on="1"/>
        <pt x="678" y="30" on="1"/>
        <pt x="678" y="0" on="0"/>
        <pt x="659" y="0" on="1"/>
        <pt x="416" y="0" on="1"/>
        <pt x="391" y="0" on="0"/>
        <pt x="387" y="29" on="1"/>
        <pt x="365" y="178" on="1"/>
        <pt x="149" y="178" on="1"/>
        <pt x="86" y="14" on="1"/>
        <pt x="80" y="-2" on="0"/>
        <pt x="53" y="-2" on="1"/>
        <pt x="39" y="-2" on="1"/>
      </contour>
      <contour>
        <pt x="352" y="253" on="1"/>
        <pt x="311" y="526" on="1"/>
        <pt x="309" y="584" on="1"/>
        <pt x="307" y="584" on="1"/>
        <pt x="288" y="526" on="1"/>
        <pt x="181" y="253" on="1"/>
      </contour>
    </TTGlyph>
    <TTGlyph name="AEacute" xMin="1" yMin="-2" xMax="678" yMax="909">
      <component glyphName="AE" x="0" y="0" flags="0x0"/>
      <component glyphName="acutecomb" x="520" y="177" flags="0x0"/>
    </TTGlyph>
    <TTGlyph name="Aacute" xMin="13" yMin="-2" xMax="492" yMax="909">
      <component glyphName="A" x="0" y="0" flags="0x0"/>
      <component glyphName="acutecomb" x="386" y="177" flags="0x0"/>
    </TTGlyph>
    <TTGlyph name="Abreve" xMin="13" yMin="-2" xMax="492" yMax="892">
      <component glyphName="A" x="0" y="0" flags="0x0"/>
      <component glyphName="uni0306" x="252" y="177" flags="0x0"/>
    </TTGlyph>
    <TTGlyph name="Acircumflex" xMin="13" yMin="-2" xMax="492" yMax="895">
      <component glyphName="A" x="0" y="0" flags="0x0"/>
      <component glyphName="uni0302" x="251" y="177" flags="0x0"/>
    </TTGlyph>
    <TTGlyph name="Adieresis" xMin="13" yMin="-2" xMax="492" yMax="879">
      <component glyphName="A" x="0" y="0" flags="0x0"/>
      <component glyphName="uni0308" x="255" y="177" flags="0x0"/>
    </TTGlyph>
    <TTGlyph name="Agrave" xMin="13" yMin="-2" xMax="492" yMax="909">
      <component glyphName="A" x="0" y="0" flags="0x0"/>
      <component glyphName="gravecomb" x="253" y="177" flags="0x0"/>
    </TTGlyph>
    <TTGlyph name="Amacron" xMin="13" yMin="-2" xMax="492" yMax="859">
      <component glyphName="A" x="0" y="0" flags="0x0"/>
      <component glyphName="uni0304" x="259" y="177" flags="0x0"/>
    </TTGlyph>
    <TTGlyph name="Aogonek" xMin="13" yMin="-173" xMax="535" yMax="702">
      <contour>
        <pt x="535" y="-103" on="0"/>
        <pt x="535" y="-127" on="1"/>
        <pt x="535" y="-145" on="0"/>
        <pt x="522" y="-154" on="1"/>
        <pt x="494" y="-173" on="0"/>
        <pt x="456" y="-173" on="1"/>
        <pt x="402" y="-173" on="0"/>
        <pt x="364" y="-116" on="0"/>
        <pt x="364" y="-85" on="1"/>
        <pt x="364" y="-62" on="0"/>
        <pt x="381" y="-5" on="0"/>
        <pt x="400" y="20" on="1"/>
        <pt x="359" y="178" on="1"/>
        <pt x="144" y="178" on="1"/>
        <pt x="102" y="14" on="1"/>
        <pt x="98" y="-2" on="0"/>
        <pt x="66" y="-2" on="1"/>
        <pt x="50" y="-2" on="1"/>
        <pt x="13" y="-2" on="0"/>
        <pt x="13" y="15" on="1"/>
        <pt x="13" y="18" on="0"/>
        <pt x="15" y="28" on="1"/>
        <pt x="196" y="683" on="1"/>
        <pt x="202" y="702" on="0"/>
        <pt x="236" y="702" on="1"/>
        <pt x="268" y="702" on="1"/>
        <pt x="304" y="702" on="0"/>
        <pt x="308" y="683" on="1"/>
        <pt x="489" y="28" on="1"/>
        <pt x="492" y="21" on="0"/>
        <pt x="492" y="15" on="1"/>
        <pt x="492" y="7" on="0"/>
        <pt x="473" y="-2" on="0"/>
        <pt x="455" y="-2" on="1"/>
        <pt x="442" y="-2" on="1"/>
        <pt x="425" y="-37" on="0"/>
        <pt x="425" y="-67" on="1"/>
        <pt x="425" y="-110" on="0"/>
        <pt x="475" y="-110" on="1"/>
        <pt x="483" y="-110" on="0"/>
        <pt x="511" y="-103" on="0"/>
        <pt x="515" y="-103" on="1"/>
      </contour>
      <contour>
        <pt x="337" y="254" on="1"/>
        <pt x="266" y="528" on="1"/>
        <pt x="263" y="541" on="0"/>
        <pt x="255" y="589" on="1"/>
        <pt x="250" y="589" on="1"/>
        <pt x="248" y="582" on="0"/>
        <pt x="246" y="566" on="1"/>
        <pt x="238" y="528" on="1"/>
        <pt x="167" y="254" on="1"/>
      </contour>
    </TTGlyph>
    <TTGlyph name="Aring" xMin="13" yMin="-2" xMax="492" yMax="910">
      <component glyphName="A" x="0" y="0" flags="0x0"/>
      <component glyphName="uni030A" x="250" y="177" flags="0x0"/>
    </TTGlyph>
    <TTGlyph name="Aringacute" xMin="13" yMin="-2" xMax="492" yMax="1008">
      <contour>
        <pt x="227" y="871" on="0"/>
        <pt x="227" y="881" on="1"/>
        <pt x="227" y="888" on="0"/>
        <pt x="248" y="937" on="0"/>
        <pt x="269" y="982" on="1"/>
        <pt x="281" y="1008" on="0"/>
        <pt x="323" y="1008" on="1"/>
        <pt x="340" y="1008" on="0"/>
        <pt x="354" y="1002" on="0"/>
        <pt x="354" y="995" on="1"/>
        <pt x="354" y="990" on="0"/>
        <pt x="340" y="966" on="0"/>
        <pt x="323" y="943" on="1"/>
        <pt x="286" y="889" on="1"/>
        <pt x="273" y="871" on="0"/>
        <pt x="250" y="871" on="1"/>
      </contour>
      <contour>
        <pt x="492" y="21" on="0"/>
        <pt x="492" y="15" on="1"/>
        <pt x="492" y="7" on="0"/>
        <pt x="473" y="-2" on="0"/>
        <pt x="455" y="-2" on="1"/>
        <pt x="438" y="-2" on="1"/>
        <pt x="406" y="-2" on="0"/>
        <pt x="402" y="14" on="1"/>
        <pt x="359" y="178" on="1"/>
        <pt x="144" y="178" on="1"/>
        <pt x="102" y="14" on="1"/>
        <pt x="98" y="-2" on="0"/>
        <pt x="66" y="-2" on="1"/>
        <pt x="50" y="-2" on="1"/>
        <pt x="13" y="-2" on="0"/>
        <pt x="13" y="15" on="1"/>
        <pt x="13" y="18" on="0"/>
        <pt x="15" y="28" on="1"/>
        <pt x="196" y="683" on="1"/>
        <pt x="197" y="686" on="0"/>
        <pt x="201" y="692" on="1"/>
        <pt x="186" y="703" on="0"/>
        <pt x="170" y="738" on="0"/>
        <pt x="170" y="760" on="1"/>
        <pt x="170" y="798" on="0"/>
        <pt x="216" y="845" on="0"/>
        <pt x="253" y="845" on="1"/>
        <pt x="291" y="845" on="0"/>
        <pt x="337" y="798" on="0"/>
        <pt x="337" y="760" on="1"/>
        <pt x="337" y="713" on="0"/>
        <pt x="304" y="691" on="1"/>
        <pt x="306" y="689" on="0"/>
        <pt x="308" y="683" on="1"/>
        <pt x="489" y="28" on="1"/>
      </contour>
      <contour>
        <pt x="231" y="810" on="0"/>
        <pt x="207" y="784" on="0"/>
        <pt x="206" y="760" on="1"/>
        <pt x="207" y="736" on="0"/>
        <pt x="231" y="711" on="0"/>
        <pt x="253" y="711" on="1"/>
        <pt x="275" y="711" on="0"/>
        <pt x="300" y="737" on="0"/>
        <pt x="300" y="760" on="1"/>
        <pt x="300" y="783" on="0"/>
        <pt x="275" y="810" on="0"/>
        <pt x="253" y="810" on="1"/>
      </contour>
      <contour>
        <pt x="337" y="254" on="1"/>
        <pt x="266" y="528" on="1"/>
        <pt x="263" y="541" on="0"/>
        <pt x="255" y="589" on="1"/>
        <pt x="250" y="589" on="1"/>
        <pt x="248" y="582" on="0"/>
        <pt x="246" y="566" on="1"/>
        <pt x="238" y="528" on="1"/>
        <pt x="167" y="254" on="1"/>
      </contour>
    </TTGlyph>
    <TTGlyph name="Atilde" xMin="13" yMin="-2" xMax="492" yMax="868">
      <component glyphName="A" x="0" y="0" flags="0x0"/>
      <component glyphName="tildecomb" x="247" y="177" flags="0x0"/>
    </TTGlyph>
    <TTGlyph name="B" xMin="78" yMin="0" xMax="492" yMax="700">
      <contour>
        <pt x="91" y="0" on="0"/>
        <pt x="78" y="14" on="0"/>
        <pt x="78" y="30" on="1"/>
        <pt x="78" y="670" on="1"/>
        <pt x="78" y="686" on="0"/>
        <pt x="91" y="700" on="0"/>
        <pt x="106" y="700" on="1"/>
        <pt x="279" y="700" on="1"/>
        <pt x="373" y="700" on="0"/>
        <pt x="468" y="605" on="0"/>
        <pt x="468" y="523" on="1"/>
        <pt x="468" y="473" on="0"/>
        <pt x="414" y="383" on="0"/>
        <pt x="378" y="371" on="1"/>
        <pt x="378" y="367" on="1"/>
        <pt x="417" y="353" on="0"/>
        <pt x="492" y="281" on="0"/>
        <pt x="492" y="201" on="1"/>
        <pt x="492" y="98" on="0"/>
        <pt x="385" y="0" on="0"/>
        <pt x="279" y="0" on="1"/>
        <pt x="106" y="0" on="1"/>
      </contour>
      <contour>
        <pt x="272" y="398" on="1"/>
        <pt x="318" y="398" on="0"/>
        <pt x="375" y="465" on="0"/>
        <pt x="375" y="515" on="1"/>
        <pt x="375" y="571" on="0"/>
        <pt x="324" y="624" on="0"/>
        <pt x="270" y="624" on="1"/>
        <pt x="168" y="624" on="1"/>
        <pt x="168" y="398" on="1"/>
      </contour>
      <contour>
        <pt x="297" y="76" on="1"/>
        <pt x="345" y="76" on="0"/>
        <pt x="400" y="145" on="0"/>
        <pt x="400" y="205" on="1"/>
        <pt x="400" y="260" on="0"/>
        <pt x="339" y="322" on="0"/>
        <pt x="283" y="322" on="1"/>
        <pt x="168" y="322" on="1"/>
        <pt x="168" y="76" on="1"/>
      </contour>
    </TTGlyph>
    <TTGlyph name="C" xMin="49" yMin="-6" xMax="440" yMax="706">
      <contour>
        <pt x="176" y="-6" on="0"/>
        <pt x="49" y="167" on="0"/>
        <pt x="49" y="350" on="1"/>
        <pt x="49" y="531" on="0"/>
        <pt x="178" y="706" on="0"/>
        <pt x="310" y="706" on="1"/>
        <pt x="338" y="706" on="0"/>
        <pt x="392" y="696" on="0"/>
        <pt x="411" y="687" on="1"/>
        <pt x="421" y="683" on="0"/>
        <pt x="428" y="671" on="0"/>
        <pt x="428" y="660" on="1"/>
        <pt x="428" y="643" on="0"/>
        <pt x="412" y="599" on="0"/>
        <pt x="397" y="607" on="1"/>
        <pt x="355" y="628" on="0"/>
        <pt x="310" y="628" on="1"/>
        <pt x="224" y="628" on="0"/>
        <pt x="142" y="494" on="0"/>
        <pt x="142" y="351" on="1"/>
        <pt x="142" y="208" on="0"/>
        <pt x="223" y="72" on="0"/>
        <pt x="309" y="72" on="1"/>
        <pt x="361" y="72" on="0"/>
        <pt x="403" y="97" on="1"/>
        <pt x="409" y="99" on="0"/>
        <pt x="412" y="99" on="1"/>
        <pt x="425" y="99" on="0"/>
        <pt x="440" y="64" on="0"/>
        <pt x="440" y="48" on="1"/>
        <pt x="440" y="38" on="0"/>
        <pt x="430" y="22" on="0"/>
        <pt x="416" y="15" on="1"/>
        <pt x="399" y="7" on="0"/>
        <pt x="341" y="-6" on="0"/>
        <pt x="309" y="-6" on="1"/>
      </contour>
    </TTGlyph>
    <TTGlyph name="Cacute" xMin="49" yMin="-6" xMax="440" yMax="909">
      <component glyphName="C" x="0" y="0" flags="0x0"/>
      <component glyphName="acutecomb" x="430" y="177" flags="0x0"/>
    </TTGlyph>
    <TTGlyph name="Cacute.loclPLK" xMin="49" yMin="-6" xMax="440" yMax="909">
      <component glyphName="C" x="0" y="0" flags="0x0"/>
      <component glyphName="acute.loclPLK" x="205" y="177" flags="0x0"/>
    </TTGlyph>
    <TTGlyph name="Ccaron" xMin="49" yMin="-6" xMax="440" yMax="902">
      <component glyphName="C" x="0" y="0" flags="0x0"/>
      <component glyphName="uni030C" x="293" y="177" flags="0x0"/>
    </TTGlyph>
    <TTGlyph name="Ccedilla" xMin="49" yMin="-210" xMax="440" yMax="706">
      <contour>
        <pt x="409" y="99" on="0"/>
        <pt x="412" y="99" on="1"/>
        <pt x="425" y="99" on="0"/>
        <pt x="440" y="64" on="0"/>
        <pt x="440" y="48" on="1"/>
        <pt x="440" y="38" on="0"/>
        <pt x="430" y="22" on="0"/>
        <pt x="416" y="15" on="1"/>
        <pt x="401" y="7" on="0"/>
        <pt x="352" y="-5" on="0"/>
        <pt x="324" y="-6" on="1"/>
        <pt x="309" y="-60" on="1"/>
        <pt x="336" y="-60" on="0"/>
        <pt x="383" y="-89" on="0"/>
        <pt x="383" y="-127" on="1"/>
        <pt x="383" y="-210" on="0"/>
        <pt x="287" y="-210" on="1"/>
        <pt x="255" y="-210" on="0"/>
        <pt x="193" y="-186" on="0"/>
        <pt x="193" y="-167" on="1"/>
        <pt x="193" y="-158" on="0"/>
        <pt x="205" y="-141" on="0"/>
        <pt x="212" y="-141" on="1"/>
        <pt x="219" y="-141" on="0"/>
        <pt x="235" y="-148" on="1"/>
        <pt x="261" y="-161" on="0"/>
        <pt x="281" y="-161" on="1"/>
        <pt x="295" y="-161" on="0"/>
        <pt x="317" y="-146" on="0"/>
        <pt x="317" y="-132" on="1"/>
        <pt x="317" y="-117" on="0"/>
        <pt x="300" y="-103" on="0"/>
        <pt x="284" y="-98" on="1"/>
        <pt x="273" y="-94" on="0"/>
        <pt x="262" y="-86" on="0"/>
        <pt x="262" y="-79" on="1"/>
        <pt x="262" y="-72" on="0"/>
        <pt x="271" y="-40" on="0"/>
        <pt x="283" y="-5" on="1"/>
        <pt x="164" y="3" on="0"/>
        <pt x="49" y="176" on="0"/>
        <pt x="49" y="350" on="1"/>
        <pt x="49" y="531" on="0"/>
        <pt x="178" y="706" on="0"/>
        <pt x="310" y="706" on="1"/>
        <pt x="338" y="706" on="0"/>
        <pt x="392" y="696" on="0"/>
        <pt x="411" y="687" on="1"/>
        <pt x="421" y="683" on="0"/>
        <pt x="428" y="671" on="0"/>
        <pt x="428" y="660" on="1"/>
        <pt x="428" y="643" on="0"/>
        <pt x="412" y="599" on="0"/>
        <pt x="397" y="607" on="1"/>
        <pt x="355" y="628" on="0"/>
        <pt x="310" y="628" on="1"/>
        <pt x="224" y="628" on="0"/>
        <pt x="142" y="494" on="0"/>
        <pt x="142" y="351" on="1"/>
        <pt x="142" y="208" on="0"/>
        <pt x="223" y="72" on="0"/>
        <pt x="309" y="72" on="1"/>
        <pt x="361" y="72" on="0"/>
        <pt x="403" y="97" on="1"/>
      </contour>
    </TTGlyph>
    <TTGlyph name="Ccircumflex" xMin="49" yMin="-6" xMax="440" yMax="895">
      <component glyphName="C" x="0" y="0" flags="0x0"/>
      <component glyphName="uni0302" x="295" y="177" flags="0x0"/>
    </TTGlyph>
    <TTGlyph name="Cdotaccent" xMin="49" yMin="-6" xMax="440" yMax="879">
      <component glyphName="C" x="0" y="0" flags="0x0"/>
      <component glyphName="uni0307" x="297" y="177" flags="0x0"/>
    </TTGlyph>
    <TTGlyph name="D" xMin="78" yMin="0" xMax="524" yMax="700">
      <contour>
        <pt x="91" y="0" on="0"/>
        <pt x="78" y="14" on="0"/>
        <pt x="78" y="30" on="1"/>
        <pt x="78" y="670" on="1"/>
        <pt x="78" y="686" on="0"/>
        <pt x="91" y="700" on="0"/>
        <pt x="105" y="700" on="1"/>
        <pt x="273" y="700" on="1"/>
        <pt x="524" y="700" on="0"/>
        <pt x="524" y="350" on="1"/>
        <pt x="524" y="0" on="0"/>
        <pt x="273" y="0" on="1"/>
        <pt x="105" y="0" on="1"/>
      </contour>
      <contour>
        <pt x="271" y="76" on="1"/>
        <pt x="346" y="76" on="0"/>
        <pt x="432" y="207" on="0"/>
        <pt x="432" y="350" on="1"/>
        <pt x="432" y="492" on="0"/>
        <pt x="346" y="624" on="0"/>
        <pt x="271" y="624" on="1"/>
        <pt x="169" y="624" on="1"/>
        <pt x="169" y="76" on="1"/>
      </contour>
    </TTGlyph>
    <TTGlyph name="Dcaron" xMin="78" yMin="0" xMax="524" yMax="902">
      <component glyphName="D" x="0" y="0" flags="0x0"/>
      <component glyphName="uni030C" x="268" y="177" flags="0x0"/>
    </TTGlyph>
    <TTGlyph name="Dcroat" xMin="10" yMin="0" xMax="524" yMax="700">
      <component glyphName="Eth" x="0" y="0" flags="0x0"/>
    </TTGlyph>
    <TTGlyph name="E" xMin="78" yMin="0" xMax="412" yMax="700">
      <contour>
        <pt x="91" y="0" on="0"/>
        <pt x="78" y="14" on="0"/>
        <pt x="78" y="30" on="1"/>
        <pt x="78" y="670" on="1"/>
        <pt x="78" y="686" on="0"/>
        <pt x="91" y="700" on="0"/>
        <pt x="105" y="700" on="1"/>
        <pt x="393" y="700" on="1"/>
        <pt x="412" y="700" on="0"/>
        <pt x="412" y="670" on="1"/>
        <pt x="412" y="654" on="1"/>
        <pt x="412" y="624" on="0"/>
        <pt x="393" y="624" on="1"/>
        <pt x="168" y="624" on="1"/>
        <pt x="168" y="396" on="1"/>
        <pt x="370" y="396" on="1"/>
        <pt x="389" y="396" on="0"/>
        <pt x="389" y="366" on="1"/>
        <pt x="389" y="350" on="1"/>
        <pt x="389" y="320" on="0"/>
        <pt x="370" y="320" on="1"/>
        <pt x="168" y="320" on="1"/>
        <pt x="168" y="76" on="1"/>
        <pt x="393" y="76" on="1"/>
        <pt x="403" y="76" on="0"/>
        <pt x="412" y="62" on="0"/>
        <pt x="412" y="46" on="1"/>
        <pt x="412" y="30" on="1"/>
        <pt x="412" y="14" on="0"/>
        <pt x="403" y="0" on="0"/>
        <pt x="393" y="0" on="1"/>
        <pt x="105" y="0" on="1"/>
      </contour>
    </TTGlyph>
    <TTGlyph name="Eacute" xMin="78" yMin="0" xMax="412" yMax="909">
      <component glyphName="E" x="0" y="0" flags="0x0"/>
      <component glyphName="acutecomb" x="378" y="177" flags="0x0"/>
    </TTGlyph>
    <TTGlyph name="Ebreve" xMin="78" yMin="0" xMax="412" yMax="892">
      <component glyphName="E" x="0" y="0" flags="0x0"/>
      <component glyphName="uni0306" x="244" y="177" flags="0x0"/>
    </TTGlyph>
    <TTGlyph name="Ecaron" xMin="78" yMin="0" xMax="412" yMax="902">
      <component glyphName="E" x="0" y="0" flags="0x0"/>
      <component glyphName="uni030C" x="241" y="177" flags="0x0"/>
    </TTGlyph>
    <TTGlyph name="Ecircumflex" xMin="78" yMin="0" xMax="412" yMax="895">
      <component glyphName="E" x="0" y="0" flags="0x0"/>
      <component glyphName="uni0302" x="243" y="177" flags="0x0"/>
    </TTGlyph>
    <TTGlyph name="Edieresis" xMin="78" yMin="0" xMax="412" yMax="879">
      <component glyphName="E" x="0" y="0" flags="0x0"/>
      <component glyphName="uni0308" x="247" y="177" flags="0x0"/>
    </TTGlyph>
    <TTGlyph name="Edotaccent" xMin="78" yMin="0" xMax="412" yMax="879">
      <component glyphName="E" x="0" y="0" flags="0x0"/>
      <component glyphName="uni0307" x="245" y="177" flags="0x0"/>
    </TTGlyph>
    <TTGlyph name="Egrave" xMin="78" yMin="0" xMax="412" yMax="909">
      <component glyphName="E" x="0" y="0" flags="0x0"/>
      <component glyphName="gravecomb" x="245" y="177" flags="0x0"/>
    </TTGlyph>
    <TTGlyph name="Emacron" xMin="78" yMin="0" xMax="412" yMax="859">
      <component glyphName="E" x="0" y="0" flags="0x0"/>
      <component glyphName="uni0304" x="251" y="177" flags="0x0"/>
    </TTGlyph>
    <TTGlyph name="Eng" xMin="73" yMin="-212" xMax="517" yMax="702">
      <contour>
        <pt x="517" y="702" on="0"/>
        <pt x="517" y="680" on="1"/>
        <pt x="517" y="-80" on="1"/>
        <pt x="517" y="-154" on="0"/>
        <pt x="450" y="-212" on="0"/>
        <pt x="408" y="-212" on="1"/>
        <pt x="338" y="-212" on="0"/>
        <pt x="338" y="-182" on="1"/>
        <pt x="338" y="-172" on="0"/>
        <pt x="350" y="-135" on="0"/>
        <pt x="359" y="-135" on="1"/>
        <pt x="363" y="-135" on="0"/>
        <pt x="379" y="-140" on="0"/>
        <pt x="395" y="-140" on="1"/>
        <pt x="433" y="-140" on="0"/>
        <pt x="433" y="-72" on="1"/>
        <pt x="433" y="-9" on="1"/>
        <pt x="184" y="475" on="1"/>
        <pt x="170" y="501" on="0"/>
        <pt x="158" y="538" on="1"/>
        <pt x="153" y="536" on="1"/>
        <pt x="161" y="501" on="0"/>
        <pt x="161" y="470" on="1"/>
        <pt x="161" y="20" on="1"/>
        <pt x="161" y="-2" on="0"/>
        <pt x="123" y="-2" on="1"/>
        <pt x="111" y="-2" on="1"/>
        <pt x="73" y="-2" on="0"/>
        <pt x="73" y="20" on="1"/>
        <pt x="73" y="680" on="1"/>
        <pt x="73" y="702" on="0"/>
        <pt x="111" y="702" on="1"/>
        <pt x="135" y="702" on="1"/>
        <pt x="150" y="702" on="0"/>
        <pt x="168" y="693" on="0"/>
        <pt x="174" y="682" on="1"/>
        <pt x="406" y="235" on="1"/>
        <pt x="420" y="209" on="0"/>
        <pt x="432" y="172" on="1"/>
        <pt x="437" y="174" on="1"/>
        <pt x="429" y="209" on="0"/>
        <pt x="429" y="240" on="1"/>
        <pt x="429" y="680" on="1"/>
        <pt x="429" y="702" on="0"/>
        <pt x="467" y="702" on="1"/>
        <pt x="479" y="702" on="1"/>
      </contour>
    </TTGlyph>
    <TTGlyph name="Eogonek" xMin="78" yMin="-177" xMax="494" yMax="700">
      <contour>
        <pt x="494" y="-107" on="0"/>
        <pt x="494" y="-131" on="1"/>
        <pt x="494" y="-149" on="0"/>
        <pt x="481" y="-158" on="1"/>
        <pt x="453" y="-177" on="0"/>
        <pt x="415" y="-177" on="1"/>
        <pt x="361" y="-177" on="0"/>
        <pt x="323" y="-120" on="0"/>
        <pt x="323" y="-89" on="1"/>
        <pt x="323" y="-71" on="0"/>
        <pt x="335" y="-23" on="0"/>
        <pt x="348" y="0" on="1"/>
        <pt x="105" y="0" on="1"/>
        <pt x="91" y="0" on="0"/>
        <pt x="78" y="14" on="0"/>
        <pt x="78" y="30" on="1"/>
        <pt x="78" y="670" on="1"/>
        <pt x="78" y="686" on="0"/>
        <pt x="91" y="700" on="0"/>
        <pt x="105" y="700" on="1"/>
        <pt x="393" y="700" on="1"/>
        <pt x="412" y="700" on="0"/>
        <pt x="412" y="670" on="1"/>
        <pt x="412" y="654" on="1"/>
        <pt x="412" y="624" on="0"/>
        <pt x="393" y="624" on="1"/>
        <pt x="168" y="624" on="1"/>
        <pt x="168" y="396" on="1"/>
        <pt x="370" y="396" on="1"/>
        <pt x="389" y="396" on="0"/>
        <pt x="389" y="366" on="1"/>
        <pt x="389" y="350" on="1"/>
        <pt x="389" y="320" on="0"/>
        <pt x="370" y="320" on="1"/>
        <pt x="168" y="320" on="1"/>
        <pt x="168" y="76" on="1"/>
        <pt x="393" y="76" on="1"/>
        <pt x="403" y="76" on="0"/>
        <pt x="412" y="62" on="0"/>
        <pt x="412" y="46" on="1"/>
        <pt x="412" y="30" on="1"/>
        <pt x="412" y="18" on="0"/>
        <pt x="409" y="10" on="1"/>
        <pt x="410" y="10" on="1"/>
        <pt x="397" y="-11" on="0"/>
        <pt x="384" y="-55" on="0"/>
        <pt x="384" y="-71" on="1"/>
        <pt x="384" y="-114" on="0"/>
        <pt x="434" y="-114" on="1"/>
        <pt x="442" y="-114" on="0"/>
        <pt x="470" y="-107" on="0"/>
        <pt x="474" y="-107" on="1"/>
      </contour>
    </TTGlyph>
    <TTGlyph name="Eth" xMin="10" yMin="0" xMax="524" yMax="700">
      <contour>
        <pt x="524" y="700" on="0"/>
        <pt x="524" y="350" on="1"/>
        <pt x="524" y="0" on="0"/>
        <pt x="273" y="0" on="1"/>
        <pt x="105" y="0" on="1"/>
        <pt x="91" y="0" on="0"/>
        <pt x="78" y="14" on="0"/>
        <pt x="78" y="30" on="1"/>
        <pt x="78" y="320" on="1"/>
        <pt x="29" y="320" on="1"/>
        <pt x="10" y="320" on="0"/>
        <pt x="10" y="350" on="1"/>
        <pt x="10" y="366" on="1"/>
        <pt x="10" y="396" on="0"/>
        <pt x="29" y="396" on="1"/>
        <pt x="78" y="396" on="1"/>
        <pt x="78" y="670" on="1"/>
        <pt x="78" y="686" on="0"/>
        <pt x="91" y="700" on="0"/>
        <pt x="105" y="700" on="1"/>
        <pt x="273" y="700" on="1"/>
      </contour>
      <contour>
        <pt x="346" y="76" on="0"/>
        <pt x="432" y="207" on="0"/>
        <pt x="432" y="350" on="1"/>
        <pt x="432" y="492" on="0"/>
        <pt x="346" y="624" on="0"/>
        <pt x="271" y="624" on="1"/>
        <pt x="169" y="624" on="1"/>
        <pt x="169" y="396" on="1"/>
        <pt x="240" y="396" on="1"/>
        <pt x="259" y="396" on="0"/>
        <pt x="259" y="366" on="1"/>
        <pt x="259" y="350" on="1"/>
        <pt x="259" y="320" on="0"/>
        <pt x="240" y="320" on="1"/>
        <pt x="169" y="320" on="1"/>
        <pt x="169" y="76" on="1"/>
        <pt x="271" y="76" on="1"/>
      </contour>
    </TTGlyph>
    <TTGlyph name="Euro" xMin="5" yMin="-6" xMax="473" yMax="706">
      <contour>
        <pt x="206" y="-6" on="0"/>
        <pt x="86" y="113" on="0"/>
        <pt x="70" y="236" on="1"/>
        <pt x="25" y="236" on="1"/>
        <pt x="15" y="236" on="0"/>
        <pt x="5" y="250" on="0"/>
        <pt x="5" y="266" on="1"/>
        <pt x="5" y="273" on="1"/>
        <pt x="5" y="289" on="0"/>
        <pt x="15" y="303" on="0"/>
        <pt x="25" y="303" on="1"/>
        <pt x="64" y="303" on="1"/>
        <pt x="63" y="318" on="0"/>
        <pt x="63" y="350" on="1"/>
        <pt x="63" y="381" on="0"/>
        <pt x="64" y="396" on="1"/>
        <pt x="25" y="396" on="1"/>
        <pt x="15" y="396" on="0"/>
        <pt x="5" y="410" on="0"/>
        <pt x="5" y="426" on="1"/>
        <pt x="5" y="433" on="1"/>
        <pt x="5" y="449" on="0"/>
        <pt x="15" y="463" on="0"/>
        <pt x="25" y="463" on="1"/>
        <pt x="71" y="463" on="1"/>
        <pt x="87" y="585" on="0"/>
        <pt x="210" y="706" on="0"/>
        <pt x="312" y="706" on="1"/>
        <pt x="349" y="706" on="0"/>
        <pt x="420" y="685" on="0"/>
        <pt x="463" y="656" on="0"/>
        <pt x="463" y="643" on="1"/>
        <pt x="463" y="629" on="0"/>
        <pt x="439" y="588" on="0"/>
        <pt x="428" y="588" on="1"/>
        <pt x="424" y="588" on="0"/>
        <pt x="388" y="612" on="0"/>
        <pt x="342" y="629" on="0"/>
        <pt x="311" y="629" on="1"/>
        <pt x="250" y="629" on="0"/>
        <pt x="175" y="549" on="0"/>
        <pt x="162" y="463" on="1"/>
        <pt x="392" y="463" on="1"/>
        <pt x="403" y="463" on="0"/>
        <pt x="412" y="449" on="0"/>
        <pt x="412" y="433" on="1"/>
        <pt x="412" y="426" on="1"/>
        <pt x="412" y="410" on="0"/>
        <pt x="403" y="396" on="0"/>
        <pt x="392" y="396" on="1"/>
        <pt x="156" y="396" on="1"/>
        <pt x="155" y="382" on="0"/>
        <pt x="155" y="351" on="1"/>
        <pt x="155" y="318" on="0"/>
        <pt x="156" y="303" on="1"/>
        <pt x="392" y="303" on="1"/>
        <pt x="403" y="303" on="0"/>
        <pt x="412" y="289" on="0"/>
        <pt x="412" y="273" on="1"/>
        <pt x="412" y="266" on="1"/>
        <pt x="412" y="250" on="0"/>
        <pt x="403" y="236" on="0"/>
        <pt x="392" y="236" on="1"/>
        <pt x="162" y="236" on="1"/>
        <pt x="175" y="152" on="0"/>
        <pt x="250" y="71" on="0"/>
        <pt x="308" y="71" on="1"/>
        <pt x="344" y="71" on="0"/>
        <pt x="396" y="93" on="0"/>
        <pt x="435" y="118" on="0"/>
        <pt x="438" y="118" on="1"/>
        <pt x="449" y="118" on="0"/>
        <pt x="473" y="78" on="0"/>
        <pt x="473" y="66" on="1"/>
        <pt x="473" y="52" on="0"/>
        <pt x="427" y="18" on="0"/>
        <pt x="352" y="-6" on="0"/>
        <pt x="311" y="-6" on="1"/>
      </contour>
    </TTGlyph>
    <TTGlyph name="F" xMin="78" yMin="-2" xMax="384" yMax="700">
      <contour>
        <pt x="78" y="-2" on="0"/>
        <pt x="78" y="20" on="1"/>
        <pt x="78" y="670" on="1"/>
        <pt x="78" y="686" on="0"/>
        <pt x="91" y="700" on="0"/>
        <pt x="105" y="700" on="1"/>
        <pt x="365" y="700" on="1"/>
        <pt x="384" y="700" on="0"/>
        <pt x="384" y="670" on="1"/>
        <pt x="384" y="654" on="1"/>
        <pt x="384" y="624" on="0"/>
        <pt x="365" y="624" on="1"/>
        <pt x="168" y="624" on="1"/>
        <pt x="168" y="396" on="1"/>
        <pt x="348" y="396" on="1"/>
        <pt x="367" y="396" on="0"/>
        <pt x="367" y="366" on="1"/>
        <pt x="367" y="350" on="1"/>
        <pt x="367" y="320" on="0"/>
        <pt x="348" y="320" on="1"/>
        <pt x="168" y="320" on="1"/>
        <pt x="168" y="20" on="1"/>
        <pt x="168" y="-2" on="0"/>
        <pt x="130" y="-2" on="1"/>
        <pt x="116" y="-2" on="1"/>
      </contour>
    </TTGlyph>
    <TTGlyph name="G" xMin="49" yMin="-6" xMax="484" yMax="706">
      <contour>
        <pt x="484" y="382" on="0"/>
        <pt x="484" y="352" on="1"/>
        <pt x="484" y="66" on="1"/>
        <pt x="484" y="28" on="0"/>
        <pt x="374" y="-6" on="0"/>
        <pt x="302" y="-6" on="1"/>
        <pt x="49" y="-6" on="0"/>
        <pt x="49" y="344" on="1"/>
        <pt x="49" y="528" on="0"/>
        <pt x="181" y="706" on="0"/>
        <pt x="311" y="706" on="1"/>
        <pt x="348" y="706" on="0"/>
        <pt x="422" y="686" on="0"/>
        <pt x="471" y="657" on="0"/>
        <pt x="471" y="644" on="1"/>
        <pt x="471" y="630" on="0"/>
        <pt x="445" y="586" on="0"/>
        <pt x="435" y="586" on="1"/>
        <pt x="432" y="586" on="0"/>
        <pt x="396" y="609" on="0"/>
        <pt x="345" y="627" on="0"/>
        <pt x="312" y="627" on="1"/>
        <pt x="222" y="627" on="0"/>
        <pt x="142" y="488" on="0"/>
        <pt x="142" y="353" on="1"/>
        <pt x="142" y="226" on="0"/>
        <pt x="218" y="70" on="0"/>
        <pt x="305" y="70" on="1"/>
        <pt x="358" y="70" on="0"/>
        <pt x="394" y="83" on="1"/>
        <pt x="394" y="306" on="1"/>
        <pt x="309" y="306" on="1"/>
        <pt x="299" y="306" on="0"/>
        <pt x="289" y="320" on="0"/>
        <pt x="289" y="336" on="1"/>
        <pt x="289" y="352" on="1"/>
        <pt x="289" y="368" on="0"/>
        <pt x="299" y="382" on="0"/>
        <pt x="309" y="382" on="1"/>
        <pt x="457" y="382" on="1"/>
      </contour>
    </TTGlyph>
    <TTGlyph name="Gbreve" xMin="49" yMin="-6" xMax="484" yMax="892">
      <component glyphName="G" x="0" y="0" flags="0x0"/>
      <component glyphName="uni0306" x="291" y="177" flags="0x0"/>
    </TTGlyph>
    <TTGlyph name="Gcircumflex" xMin="49" yMin="-6" xMax="484" yMax="895">
      <component glyphName="G" x="0" y="0" flags="0x0"/>
      <component glyphName="uni0302" x="290" y="177" flags="0x0"/>
    </TTGlyph>
    <TTGlyph name="Gcommaaccent" xMin="49" yMin="-235" xMax="484" yMax="706">
      <component glyphName="G" x="0" y="0" flags="0x0"/>
      <component glyphName="uni0326" x="440" y="0" flags="0x0"/>
    </TTGlyph>
    <TTGlyph name="Gdotaccent" xMin="49" yMin="-6" xMax="484" yMax="879">
      <component glyphName="G" x="0" y="0" flags="0x0"/>
      <component glyphName="uni0307" x="292" y="177" flags="0x0"/>
    </TTGlyph>
    <TTGlyph name="H" xMin="78" yMin="-2" xMax="521" yMax="702">
      <contour>
        <pt x="78" y="-2" on="0"/>
        <pt x="78" y="20" on="1"/>
        <pt x="78" y="680" on="1"/>
        <pt x="78" y="702" on="0"/>
        <pt x="116" y="702" on="1"/>
        <pt x="131" y="702" on="1"/>
        <pt x="168" y="702" on="0"/>
        <pt x="168" y="680" on="1"/>
        <pt x="168" y="397" on="1"/>
        <pt x="431" y="397" on="1"/>
        <pt x="431" y="680" on="1"/>
        <pt x="431" y="702" on="0"/>
        <pt x="469" y="702" on="1"/>
        <pt x="483" y="702" on="1"/>
        <pt x="521" y="702" on="0"/>
        <pt x="521" y="680" on="1"/>
        <pt x="521" y="20" on="1"/>
        <pt x="521" y="-2" on="0"/>
        <pt x="483" y="-2" on="1"/>
        <pt x="469" y="-2" on="1"/>
        <pt x="431" y="-2" on="0"/>
        <pt x="431" y="20" on="1"/>
        <pt x="431" y="321" on="1"/>
        <pt x="168" y="321" on="1"/>
        <pt x="168" y="20" on="1"/>
        <pt x="168" y="-2" on="0"/>
        <pt x="131" y="-2" on="1"/>
        <pt x="116" y="-2" on="1"/>
      </contour>
    </TTGlyph>
    <TTGlyph name="Hbar" xMin="35" yMin="-2" xMax="549" yMax="702">
      <contour>
        <pt x="549" y="561" on="0"/>
        <pt x="549" y="531" on="1"/>
        <pt x="549" y="521" on="1"/>
        <pt x="549" y="491" on="0"/>
        <pt x="530" y="491" on="1"/>
        <pt x="521" y="491" on="1"/>
        <pt x="521" y="20" on="1"/>
        <pt x="521" y="-2" on="0"/>
        <pt x="483" y="-2" on="1"/>
        <pt x="469" y="-2" on="1"/>
        <pt x="431" y="-2" on="0"/>
        <pt x="431" y="20" on="1"/>
        <pt x="431" y="321" on="1"/>
        <pt x="168" y="321" on="1"/>
        <pt x="168" y="20" on="1"/>
        <pt x="168" y="-2" on="0"/>
        <pt x="131" y="-2" on="1"/>
        <pt x="116" y="-2" on="1"/>
        <pt x="78" y="-2" on="0"/>
        <pt x="78" y="20" on="1"/>
        <pt x="78" y="491" on="1"/>
        <pt x="54" y="491" on="1"/>
        <pt x="44" y="491" on="0"/>
        <pt x="35" y="505" on="0"/>
        <pt x="35" y="521" on="1"/>
        <pt x="35" y="531" on="1"/>
        <pt x="35" y="547" on="0"/>
        <pt x="44" y="561" on="0"/>
        <pt x="54" y="561" on="1"/>
        <pt x="78" y="561" on="1"/>
        <pt x="78" y="680" on="1"/>
        <pt x="78" y="702" on="0"/>
        <pt x="116" y="702" on="1"/>
        <pt x="131" y="702" on="1"/>
        <pt x="168" y="702" on="0"/>
        <pt x="168" y="680" on="1"/>
        <pt x="168" y="561" on="1"/>
        <pt x="431" y="561" on="1"/>
        <pt x="431" y="680" on="1"/>
        <pt x="431" y="702" on="0"/>
        <pt x="469" y="702" on="1"/>
        <pt x="483" y="702" on="1"/>
        <pt x="521" y="702" on="0"/>
        <pt x="521" y="680" on="1"/>
        <pt x="521" y="561" on="1"/>
        <pt x="530" y="561" on="1"/>
      </contour>
      <contour>
        <pt x="431" y="491" on="1"/>
        <pt x="168" y="491" on="1"/>
        <pt x="168" y="397" on="1"/>
        <pt x="431" y="397" on="1"/>
      </contour>
    </TTGlyph>
    <TTGlyph name="Hcircumflex" xMin="78" yMin="-2" xMax="521" yMax="895">
      <component glyphName="H" x="0" y="0" flags="0x0"/>
      <component glyphName="uni0302" x="298" y="177" flags="0x0"/>
    </TTGlyph>
    <TTGlyph name="I" xMin="86" yMin="-2" xMax="176" yMax="702">
      <contour>
        <pt x="86" y="-2" on="0"/>
        <pt x="86" y="20" on="1"/>
        <pt x="86" y="680" on="1"/>
        <pt x="86" y="702" on="0"/>
        <pt x="124" y="702" on="1"/>
        <pt x="139" y="702" on="1"/>
        <pt x="176" y="702" on="0"/>
        <pt x="176" y="680" on="1"/>
        <pt x="176" y="20" on="1"/>
        <pt x="176" y="-2" on="0"/>
        <pt x="139" y="-2" on="1"/>
        <pt x="124" y="-2" on="1"/>
      </contour>
    </TTGlyph>
    <TTGlyph name="IJ" xMin="86" yMin="-6" xMax="537" yMax="702">
      <component glyphName="I" x="0" y="0" flags="0x0"/>
      <component glyphName="J" x="262" y="0" flags="0x0"/>
    </TTGlyph>
    <TTGlyph name="Iacute" xMin="86" yMin="-2" xMax="250" yMax="909">
      <component glyphName="I" x="0" y="0" flags="0x0"/>
      <component glyphName="acutecomb" x="264" y="177" flags="0x0"/>
    </TTGlyph>
    <TTGlyph name="Iacute_J.loclNLD" xMin="86" yMin="-6" xMax="609" yMax="909">
      <component glyphName="I" x="0" y="0" flags="0x0"/>
      <component glyphName="acutecomb" x="264" y="177" flags="0x0"/>
      <component glyphName="J" x="262" y="0" flags="0x0"/>
      <component glyphName="acutecomb" x="623" y="177" flags="0x0"/>
    </TTGlyph>
    <TTGlyph name="Ibreve" xMin="14" yMin="-2" xMax="247" yMax="892">
      <component glyphName="I" x="0" y="0" flags="0x0"/>
      <component glyphName="uni0306" x="130" y="177" flags="0x0"/>
    </TTGlyph>
    <TTGlyph name="Icircumflex" xMin="22" yMin="-2" xMax="239" yMax="895">
      <component glyphName="I" x="0" y="0" flags="0x0"/>
      <component glyphName="uni0302" x="129" y="177" flags="0x0"/>
    </TTGlyph>
    <TTGlyph name="Idieresis" xMin="30" yMin="-2" xMax="234" yMax="879">
      <component glyphName="I" x="0" y="0" flags="0x0"/>
      <component glyphName="uni0308" x="133" y="177" flags="0x0"/>
    </TTGlyph>
    <TTGlyph name="Idotaccent" xMin="86" yMin="-2" xMax="177" yMax="879">
      <component glyphName="I" x="0" y="0" flags="0x0"/>
      <component glyphName="uni0307" x="131" y="177" flags="0x0"/>
    </TTGlyph>
    <TTGlyph name="Igrave" xMin="29" yMin="-2" xMax="176" yMax="909">
      <component glyphName="I" x="0" y="0" flags="0x0"/>
      <component glyphName="gravecomb" x="131" y="177" flags="0x0"/>
    </TTGlyph>
    <TTGlyph name="Imacron" xMin="16" yMin="-2" xMax="253" yMax="859">
      <component glyphName="I" x="0" y="0" flags="0x0"/>
      <component glyphName="uni0304" x="137" y="177" flags="0x0"/>
    </TTGlyph>
    <TTGlyph name="Iogonek" xMin="86" yMin="-176" xMax="258" yMax="702">
      <contour>
        <pt x="258" y="-106" on="0"/>
        <pt x="258" y="-130" on="1"/>
        <pt x="258" y="-148" on="0"/>
        <pt x="245" y="-157" on="1"/>
        <pt x="217" y="-176" on="0"/>
        <pt x="179" y="-176" on="1"/>
        <pt x="125" y="-176" on="0"/>
        <pt x="87" y="-119" on="0"/>
        <pt x="87" y="-88" on="1"/>
        <pt x="87" y="-70" on="0"/>
        <pt x="99" y="-23" on="0"/>
        <pt x="111" y="-1" on="1"/>
        <pt x="86" y="2" on="0"/>
        <pt x="86" y="20" on="1"/>
        <pt x="86" y="680" on="1"/>
        <pt x="86" y="702" on="0"/>
        <pt x="124" y="702" on="1"/>
        <pt x="139" y="702" on="1"/>
        <pt x="176" y="702" on="0"/>
        <pt x="176" y="680" on="1"/>
        <pt x="176" y="20" on="1"/>
        <pt x="176" y="14" on="0"/>
        <pt x="173" y="9" on="1"/>
        <pt x="161" y="-12" on="0"/>
        <pt x="148" y="-55" on="0"/>
        <pt x="148" y="-70" on="1"/>
        <pt x="148" y="-113" on="0"/>
        <pt x="198" y="-113" on="1"/>
        <pt x="206" y="-113" on="0"/>
        <pt x="234" y="-106" on="0"/>
        <pt x="238" y="-106" on="1"/>
      </contour>
    </TTGlyph>
    <TTGlyph name="Itilde" xMin="-16" yMin="-2" xMax="284" yMax="868">
      <component glyphName="I" x="0" y="0" flags="0x0"/>
      <component glyphName="tildecomb" x="125" y="177" flags="0x0"/>
    </TTGlyph>
    <TTGlyph name="J" xMin="9" yMin="-6" xMax="275" yMax="702">
      <contour>
        <pt x="67" y="-6" on="0"/>
        <pt x="9" y="11" on="0"/>
        <pt x="9" y="26" on="1"/>
        <pt x="9" y="39" on="0"/>
        <pt x="23" y="81" on="0"/>
        <pt x="32" y="81" on="1"/>
        <pt x="38" y="81" on="0"/>
        <pt x="72" y="72" on="0"/>
        <pt x="89" y="72" on="1"/>
        <pt x="139" y="72" on="0"/>
        <pt x="184" y="130" on="0"/>
        <pt x="184" y="195" on="1"/>
        <pt x="184" y="680" on="1"/>
        <pt x="184" y="702" on="0"/>
        <pt x="222" y="702" on="1"/>
        <pt x="236" y="702" on="1"/>
        <pt x="275" y="702" on="0"/>
        <pt x="275" y="680" on="1"/>
        <pt x="275" y="205" on="1"/>
        <pt x="275" y="106" on="0"/>
        <pt x="190" y="-6" on="0"/>
        <pt x="99" y="-6" on="1"/>
      </contour>
    </TTGlyph>
    <TTGlyph name="Jcircumflex" xMin="9" yMin="-6" xMax="336" yMax="895">
      <component glyphName="J" x="0" y="0" flags="0x0"/>
      <component glyphName="uni0302" x="226" y="177" flags="0x0"/>
    </TTGlyph>
    <TTGlyph name="K" xMin="82" yMin="-2" xMax="503" yMax="702">
      <contour>
        <pt x="503" y="19" on="0"/>
        <pt x="503" y="12" on="1"/>
        <pt x="503" y="4" on="0"/>
        <pt x="485" y="-2" on="0"/>
        <pt x="463" y="-2" on="1"/>
        <pt x="442" y="-2" on="1"/>
        <pt x="422" y="-2" on="0"/>
        <pt x="400" y="2" on="0"/>
        <pt x="394" y="11" on="1"/>
        <pt x="175" y="337" on="1"/>
        <pt x="172" y="337" on="1"/>
        <pt x="172" y="20" on="1"/>
        <pt x="172" y="-2" on="0"/>
        <pt x="133" y="-2" on="1"/>
        <pt x="120" y="-2" on="1"/>
        <pt x="82" y="-2" on="0"/>
        <pt x="82" y="20" on="1"/>
        <pt x="82" y="680" on="1"/>
        <pt x="82" y="702" on="0"/>
        <pt x="120" y="702" on="1"/>
        <pt x="133" y="702" on="1"/>
        <pt x="172" y="702" on="0"/>
        <pt x="172" y="680" on="1"/>
        <pt x="172" y="368" on="1"/>
        <pt x="175" y="368" on="1"/>
        <pt x="387" y="688" on="1"/>
        <pt x="396" y="702" on="0"/>
        <pt x="434" y="702" on="1"/>
        <pt x="451" y="702" on="1"/>
        <pt x="468" y="702" on="0"/>
        <pt x="486" y="695" on="0"/>
        <pt x="486" y="689" on="1"/>
        <pt x="486" y="681" on="0"/>
        <pt x="477" y="669" on="1"/>
        <pt x="262" y="357" on="1"/>
        <pt x="496" y="28" on="1"/>
      </contour>
    </TTGlyph>
    <TTGlyph name="Kcommaaccent" xMin="82" yMin="-235" xMax="503" yMax="702">
      <component glyphName="K" x="0" y="0" flags="0x0"/>
      <component glyphName="uni0326" x="388" y="0" flags="0x0"/>
    </TTGlyph>
    <TTGlyph name="L" xMin="78" yMin="0" xMax="396" yMax="702">
      <contour>
        <pt x="91" y="0" on="0"/>
        <pt x="78" y="14" on="0"/>
        <pt x="78" y="30" on="1"/>
        <pt x="78" y="680" on="1"/>
        <pt x="78" y="702" on="0"/>
        <pt x="116" y="702" on="1"/>
        <pt x="130" y="702" on="1"/>
        <pt x="168" y="702" on="0"/>
        <pt x="168" y="680" on="1"/>
        <pt x="168" y="76" on="1"/>
        <pt x="376" y="76" on="1"/>
        <pt x="387" y="76" on="0"/>
        <pt x="396" y="62" on="0"/>
        <pt x="396" y="46" on="1"/>
        <pt x="396" y="30" on="1"/>
        <pt x="396" y="14" on="0"/>
        <pt x="387" y="0" on="0"/>
        <pt x="376" y="0" on="1"/>
        <pt x="105" y="0" on="1"/>
      </contour>
    </TTGlyph>
    <TTGlyph name="Lacute" xMin="78" yMin="0" xMax="396" yMax="911">
      <component glyphName="L" x="0" y="0" flags="0x0"/>
      <component glyphName="acutecomb" x="258" y="179" flags="0x0"/>
    </TTGlyph>
    <TTGlyph name="Lcaron" xMin="78" yMin="0" xMax="396" yMax="702">
      <component glyphName="L" x="0" y="0" flags="0x0"/>
      <component glyphName="caron.alt" x="197" y="0" flags="0x0"/>
    </TTGlyph>
    <TTGlyph name="Lcommaaccent" xMin="78" yMin="-235" xMax="396" yMax="702">
      <component glyphName="L" x="0" y="0" flags="0x0"/>
      <component glyphName="uni0326" x="365" y="0" flags="0x0"/>
    </TTGlyph>
    <TTGlyph name="Ldot" xMin="78" yMin="0" xMax="396" yMax="702">
      <component glyphName="L" x="0" y="0" flags="0x0"/>
      <component glyphName="periodcentered" x="177" y="0" flags="0x0"/>
    </TTGlyph>
    <TTGlyph name="Lslash" xMin="14" yMin="0" xMax="396" yMax="702">
      <contour>
        <pt x="387" y="76" on="0"/>
        <pt x="396" y="62" on="0"/>
        <pt x="396" y="46" on="1"/>
        <pt x="396" y="30" on="1"/>
        <pt x="396" y="14" on="0"/>
        <pt x="387" y="0" on="0"/>
        <pt x="376" y="0" on="1"/>
        <pt x="105" y="0" on="1"/>
        <pt x="91" y="0" on="0"/>
        <pt x="78" y="14" on="0"/>
        <pt x="78" y="30" on="1"/>
        <pt x="78" y="335" on="1"/>
        <pt x="33" y="308" on="1"/>
        <pt x="25" y="304" on="0"/>
        <pt x="23" y="304" on="1"/>
        <pt x="19" y="304" on="0"/>
        <pt x="14" y="311" on="0"/>
        <pt x="14" y="318" on="1"/>
        <pt x="14" y="324" on="1"/>
        <pt x="14" y="343" on="0"/>
        <pt x="33" y="354" on="1"/>
        <pt x="78" y="381" on="1"/>
        <pt x="78" y="680" on="1"/>
        <pt x="78" y="702" on="0"/>
        <pt x="116" y="702" on="1"/>
        <pt x="130" y="702" on="1"/>
        <pt x="168" y="702" on="0"/>
        <pt x="168" y="680" on="1"/>
        <pt x="168" y="434" on="1"/>
        <pt x="260" y="489" on="1"/>
        <pt x="268" y="493" on="0"/>
        <pt x="270" y="493" on="1"/>
        <pt x="274" y="493" on="0"/>
        <pt x="279" y="486" on="0"/>
        <pt x="279" y="479" on="1"/>
        <pt x="279" y="473" on="1"/>
        <pt x="279" y="454" on="0"/>
        <pt x="260" y="443" on="1"/>
        <pt x="168" y="388" on="1"/>
        <pt x="168" y="76" on="1"/>
        <pt x="376" y="76" on="1"/>
      </contour>
    </TTGlyph>
    <TTGlyph name="M" xMin="73" yMin="-2" xMax="619" yMax="702">
      <contour>
        <pt x="313" y="239" on="0"/>
        <pt x="307" y="252" on="1"/>
        <pt x="190" y="482" on="1"/>
        <pt x="176" y="510" on="0"/>
        <pt x="160" y="551" on="1"/>
        <pt x="156" y="549" on="1"/>
        <pt x="161" y="509" on="0"/>
        <pt x="161" y="478" on="1"/>
        <pt x="161" y="20" on="1"/>
        <pt x="161" y="-2" on="0"/>
        <pt x="123" y="-2" on="1"/>
        <pt x="111" y="-2" on="1"/>
        <pt x="73" y="-2" on="0"/>
        <pt x="73" y="20" on="1"/>
        <pt x="73" y="680" on="1"/>
        <pt x="73" y="702" on="0"/>
        <pt x="111" y="702" on="1"/>
        <pt x="132" y="702" on="1"/>
        <pt x="161" y="702" on="0"/>
        <pt x="170" y="684" on="1"/>
        <pt x="330" y="371" on="1"/>
        <pt x="341" y="349" on="0"/>
        <pt x="346" y="323" on="1"/>
        <pt x="351" y="349" on="0"/>
        <pt x="362" y="371" on="1"/>
        <pt x="522" y="684" on="1"/>
        <pt x="531" y="702" on="0"/>
        <pt x="560" y="702" on="1"/>
        <pt x="581" y="702" on="1"/>
        <pt x="619" y="702" on="0"/>
        <pt x="619" y="680" on="1"/>
        <pt x="619" y="20" on="1"/>
        <pt x="619" y="-2" on="0"/>
        <pt x="581" y="-2" on="1"/>
        <pt x="569" y="-2" on="1"/>
        <pt x="531" y="-2" on="0"/>
        <pt x="531" y="20" on="1"/>
        <pt x="531" y="478" on="1"/>
        <pt x="531" y="509" on="0"/>
        <pt x="536" y="549" on="1"/>
        <pt x="532" y="551" on="1"/>
        <pt x="516" y="510" on="0"/>
        <pt x="502" y="482" on="1"/>
        <pt x="385" y="252" on="1"/>
        <pt x="379" y="239" on="0"/>
        <pt x="363" y="239" on="1"/>
        <pt x="329" y="239" on="1"/>
      </contour>
    </TTGlyph>
    <TTGlyph name="N" xMin="73" yMin="-2" xMax="517" yMax="702">
      <contour>
        <pt x="73" y="-2" on="0"/>
        <pt x="73" y="20" on="1"/>
        <pt x="73" y="680" on="1"/>
        <pt x="73" y="702" on="0"/>
        <pt x="111" y="702" on="1"/>
        <pt x="135" y="702" on="1"/>
        <pt x="150" y="702" on="0"/>
        <pt x="168" y="693" on="0"/>
        <pt x="174" y="682" on="1"/>
        <pt x="406" y="235" on="1"/>
        <pt x="420" y="209" on="0"/>
        <pt x="432" y="172" on="1"/>
        <pt x="437" y="174" on="1"/>
        <pt x="429" y="209" on="0"/>
        <pt x="429" y="240" on="1"/>
        <pt x="429" y="680" on="1"/>
        <pt x="429" y="702" on="0"/>
        <pt x="467" y="702" on="1"/>
        <pt x="479" y="702" on="1"/>
        <pt x="517" y="702" on="0"/>
        <pt x="517" y="680" on="1"/>
        <pt x="517" y="20" on="1"/>
        <pt x="517" y="-2" on="0"/>
        <pt x="479" y="-2" on="1"/>
        <pt x="458" y="-2" on="1"/>
        <pt x="430" y="-2" on="0"/>
        <pt x="422" y="13" on="1"/>
        <pt x="184" y="475" on="1"/>
        <pt x="170" y="501" on="0"/>
        <pt x="158" y="538" on="1"/>
        <pt x="153" y="536" on="1"/>
        <pt x="161" y="501" on="0"/>
        <pt x="161" y="470" on="1"/>
        <pt x="161" y="20" on="1"/>
        <pt x="161" y="-2" on="0"/>
        <pt x="123" y="-2" on="1"/>
        <pt x="111" y="-2" on="1"/>
      </contour>
    </TTGlyph>
    <TTGlyph name="Nacute" xMin="73" yMin="-2" xMax="517" yMax="909">
      <component glyphName="N" x="0" y="0" flags="0x0"/>
      <component glyphName="acutecomb" x="428" y="177" flags="0x0"/>
    </TTGlyph>
    <TTGlyph name="Nacute.loclPLK" xMin="73" yMin="-2" xMax="517" yMax="909">
      <component glyphName="N" x="0" y="0" flags="0x0"/>
      <component glyphName="acute.loclPLK" x="203" y="177" flags="0x0"/>
    </TTGlyph>
    <TTGlyph name="Ncaron" xMin="73" yMin="-2" xMax="517" yMax="902">
      <component glyphName="N" x="0" y="0" flags="0x0"/>
      <component glyphName="uni030C" x="291" y="177" flags="0x0"/>
    </TTGlyph>
    <TTGlyph name="Ncommaaccent" xMin="73" yMin="-235" xMax="517" yMax="702">
      <component glyphName="N" x="0" y="0" flags="0x0"/>
      <component glyphName="uni0326" x="424" y="0" flags="0x0"/>
    </TTGlyph>
    <TTGlyph name="Ntilde" xMin="73" yMin="-2" xMax="517" yMax="868">
      <component glyphName="N" x="0" y="0" flags="0x0"/>
      <component glyphName="tildecomb" x="289" y="177" flags="0x0"/>
    </TTGlyph>
    <TTGlyph name="O" xMin="49" yMin="-6" xMax="550" yMax="706">
      <contour>
        <pt x="177" y="-6" on="0"/>
        <pt x="49" y="172" on="0"/>
        <pt x="49" y="352" on="1"/>
        <pt x="49" y="706" on="0"/>
        <pt x="299" y="706" on="1"/>
        <pt x="550" y="706" on="0"/>
        <pt x="550" y="352" on="1"/>
        <pt x="550" y="172" on="0"/>
        <pt x="422" y="-6" on="0"/>
        <pt x="299" y="-6" on="1"/>
      </contour>
      <contour>
        <pt x="458" y="70" on="0"/>
        <pt x="458" y="352" on="1"/>
        <pt x="458" y="630" on="0"/>
        <pt x="300" y="630" on="1"/>
        <pt x="221" y="630" on="0"/>
        <pt x="142" y="495" on="0"/>
        <pt x="142" y="352" on="1"/>
        <pt x="142" y="70" on="0"/>
        <pt x="300" y="70" on="1"/>
      </contour>
    </TTGlyph>
    <TTGlyph name="OE" xMin="49" yMin="-6" xMax="786" yMax="706">
      <contour>
        <pt x="786" y="76" on="0"/>
        <pt x="786" y="46" on="1"/>
        <pt x="786" y="30" on="1"/>
        <pt x="786" y="0" on="0"/>
        <pt x="767" y="0" on="1"/>
        <pt x="480" y="0" on="1"/>
        <pt x="466" y="0" on="0"/>
        <pt x="453" y="14" on="0"/>
        <pt x="453" y="30" on="1"/>
        <pt x="453" y="70" on="1"/>
        <pt x="422" y="31" on="0"/>
        <pt x="341" y="-6" on="0"/>
        <pt x="288" y="-6" on="1"/>
        <pt x="174" y="-6" on="0"/>
        <pt x="49" y="170" on="0"/>
        <pt x="49" y="353" on="1"/>
        <pt x="49" y="706" on="0"/>
        <pt x="291" y="706" on="1"/>
        <pt x="343" y="706" on="0"/>
        <pt x="423" y="671" on="0"/>
        <pt x="453" y="632" on="1"/>
        <pt x="453" y="670" on="1"/>
        <pt x="453" y="686" on="0"/>
        <pt x="466" y="700" on="0"/>
        <pt x="480" y="700" on="1"/>
        <pt x="766" y="700" on="1"/>
        <pt x="785" y="700" on="0"/>
        <pt x="785" y="670" on="1"/>
        <pt x="785" y="654" on="1"/>
        <pt x="785" y="624" on="0"/>
        <pt x="766" y="624" on="1"/>
        <pt x="543" y="624" on="1"/>
        <pt x="543" y="396" on="1"/>
        <pt x="743" y="396" on="1"/>
        <pt x="762" y="396" on="0"/>
        <pt x="762" y="366" on="1"/>
        <pt x="762" y="350" on="1"/>
        <pt x="762" y="320" on="0"/>
        <pt x="743" y="320" on="1"/>
        <pt x="543" y="320" on="1"/>
        <pt x="543" y="76" on="1"/>
        <pt x="767" y="76" on="1"/>
      </contour>
      <contour>
        <pt x="372" y="70" on="0"/>
        <pt x="452" y="208" on="0"/>
        <pt x="452" y="352" on="1"/>
        <pt x="452" y="499" on="0"/>
        <pt x="373" y="630" on="0"/>
        <pt x="294" y="630" on="1"/>
        <pt x="218" y="630" on="0"/>
        <pt x="142" y="499" on="0"/>
        <pt x="142" y="352" on="1"/>
        <pt x="142" y="208" on="0"/>
        <pt x="219" y="70" on="0"/>
        <pt x="294" y="70" on="1"/>
      </contour>
    </TTGlyph>
    <TTGlyph name="Oacute" xMin="49" yMin="-6" xMax="550" yMax="909">
      <component glyphName="O" x="0" y="0" flags="0x0"/>
      <component glyphName="acutecomb" x="433" y="177" flags="0x0"/>
    </TTGlyph>
    <TTGlyph name="Oacute.loclPLK" xMin="49" yMin="-6" xMax="550" yMax="909">
      <component glyphName="O" x="0" y="0" flags="0x0"/>
      <component glyphName="acute.loclPLK" x="208" y="177" flags="0x0"/>
    </TTGlyph>
    <TTGlyph name="Obreve" xMin="49" yMin="-6" xMax="550" yMax="892">
      <component glyphName="O" x="0" y="0" flags="0x0"/>
      <component glyphName="uni0306" x="299" y="177" flags="0x0"/>
    </TTGlyph>
    <TTGlyph name="Ocircumflex" xMin="49" yMin="-6" xMax="550" yMax="895">
      <component glyphName="O" x="0" y="0" flags="0x0"/>
      <component glyphName="uni0302" x="298" y="177" flags="0x0"/>
    </TTGlyph>
    <TTGlyph name="Odieresis" xMin="49" yMin="-6" xMax="550" yMax="879">
      <component glyphName="O" x="0" y="0" flags="0x0"/>
      <component glyphName="uni0308" x="302" y="177" flags="0x0"/>
    </TTGlyph>
    <TTGlyph name="Ograve" xMin="49" yMin="-6" xMax="550" yMax="909">
      <component glyphName="O" x="0" y="0" flags="0x0"/>
      <component glyphName="gravecomb" x="300" y="177" flags="0x0"/>
    </TTGlyph>
    <TTGlyph name="Ohorn" xMin="49" yMin="-6" xMax="568" yMax="788">
      <contour>
        <pt x="177" y="-6" on="0"/>
        <pt x="49" y="172" on="0"/>
        <pt x="49" y="352" on="1"/>
        <pt x="49" y="706" on="0"/>
        <pt x="299" y="706" on="1"/>
        <pt x="376" y="706" on="0"/>
        <pt x="435" y="668" on="1"/>
        <pt x="445" y="662" on="0"/>
        <pt x="458" y="657" on="0"/>
        <pt x="467" y="657" on="1"/>
        <pt x="488" y="657" on="0"/>
        <pt x="507" y="677" on="0"/>
        <pt x="507" y="690" on="1"/>
        <pt x="507" y="703" on="0"/>
        <pt x="497" y="724" on="0"/>
        <pt x="481" y="748" on="0"/>
        <pt x="480" y="752" on="1"/>
        <pt x="480" y="762" on="0"/>
        <pt x="489" y="768" on="1"/>
        <pt x="513" y="784" on="1"/>
        <pt x="518" y="788" on="0"/>
        <pt x="525" y="788" on="1"/>
        <pt x="541" y="788" on="0"/>
        <pt x="568" y="738" on="0"/>
        <pt x="568" y="714" on="1"/>
        <pt x="568" y="676" on="0"/>
        <pt x="524" y="629" on="0"/>
        <pt x="480" y="625" on="1"/>
        <pt x="550" y="537" on="0"/>
        <pt x="550" y="352" on="1"/>
        <pt x="550" y="172" on="0"/>
        <pt x="422" y="-6" on="0"/>
        <pt x="299" y="-6" on="1"/>
      </contour>
      <contour>
        <pt x="458" y="70" on="0"/>
        <pt x="458" y="352" on="1"/>
        <pt x="458" y="630" on="0"/>
        <pt x="300" y="630" on="1"/>
        <pt x="221" y="630" on="0"/>
        <pt x="142" y="495" on="0"/>
        <pt x="142" y="352" on="1"/>
        <pt x="142" y="70" on="0"/>
        <pt x="300" y="70" on="1"/>
      </contour>
    </TTGlyph>
    <TTGlyph name="Ohungarumlaut" xMin="49" yMin="-6" xMax="550" yMax="909">
      <component glyphName="O" x="0" y="0" flags="0x0"/>
      <component glyphName="uni030B" x="313" y="177" flags="0x0"/>
    </TTGlyph>
    <TTGlyph name="Omacron" xMin="49" yMin="-6" xMax="550" yMax="859">
      <component glyphName="O" x="0" y="0" flags="0x0"/>
      <component glyphName="uni0304" x="306" y="177" flags="0x0"/>
    </TTGlyph>
    <TTGlyph name="Oslash" xMin="49" yMin="-18" xMax="550" yMax="716">
      <contour>
        <pt x="550" y="532" on="0"/>
        <pt x="550" y="352" on="1"/>
        <pt x="550" y="172" on="0"/>
        <pt x="422" y="-6" on="0"/>
        <pt x="299" y="-6" on="1"/>
        <pt x="197" y="-6" on="0"/>
        <pt x="136" y="55" on="1"/>
        <pt x="99" y="-6" on="1"/>
        <pt x="92" y="-18" on="0"/>
        <pt x="84" y="-18" on="1"/>
        <pt x="77" y="-18" on="0"/>
        <pt x="61" y="-6" on="0"/>
        <pt x="61" y="1" on="1"/>
        <pt x="61" y="9" on="0"/>
        <pt x="66" y="15" on="1"/>
        <pt x="110" y="87" on="1"/>
        <pt x="49" y="177" on="0"/>
        <pt x="49" y="352" on="1"/>
        <pt x="49" y="706" on="0"/>
        <pt x="299" y="706" on="1"/>
        <pt x="397" y="706" on="0"/>
        <pt x="458" y="651" on="1"/>
        <pt x="491" y="705" on="1"/>
        <pt x="497" y="716" on="0"/>
        <pt x="506" y="716" on="1"/>
        <pt x="514" y="716" on="0"/>
        <pt x="529" y="705" on="0"/>
        <pt x="529" y="697" on="1"/>
        <pt x="529" y="692" on="0"/>
        <pt x="525" y="685" on="1"/>
        <pt x="485" y="620" on="1"/>
      </contour>
      <contour>
        <pt x="142" y="243" on="0"/>
        <pt x="165" y="176" on="1"/>
        <pt x="410" y="574" on="1"/>
        <pt x="372" y="630" on="0"/>
        <pt x="300" y="630" on="1"/>
        <pt x="221" y="630" on="0"/>
        <pt x="142" y="495" on="0"/>
        <pt x="142" y="352" on="1"/>
      </contour>
      <contour>
        <pt x="458" y="70" on="0"/>
        <pt x="458" y="352" on="1"/>
        <pt x="458" y="465" on="0"/>
        <pt x="432" y="534" on="1"/>
        <pt x="185" y="134" on="1"/>
        <pt x="225" y="70" on="0"/>
        <pt x="300" y="70" on="1"/>
      </contour>
    </TTGlyph>
    <TTGlyph name="Oslashacute" xMin="49" yMin="-18" xMax="550" yMax="909">
      <component glyphName="Oslash" x="0" y="0" flags="0x0"/>
      <component glyphName="acutecomb" x="433" y="177" flags="0x0"/>
    </TTGlyph>
    <TTGlyph name="Otilde" xMin="49" yMin="-6" xMax="550" yMax="868">
      <component glyphName="O" x="0" y="0" flags="0x0"/>
      <component glyphName="tildecomb" x="294" y="177" flags="0x0"/>
    </TTGlyph>
    <TTGlyph name="P" xMin="73" yMin="-2" xMax="447" yMax="700">
      <contour>
        <pt x="73" y="-2" on="0"/>
        <pt x="73" y="20" on="1"/>
        <pt x="73" y="670" on="1"/>
        <pt x="73" y="686" on="0"/>
        <pt x="86" y="700" on="0"/>
        <pt x="100" y="700" on="1"/>
        <pt x="265" y="700" on="1"/>
        <pt x="336" y="700" on="0"/>
        <pt x="447" y="616" on="0"/>
        <pt x="447" y="504" on="1"/>
        <pt x="447" y="421" on="0"/>
        <pt x="384" y="329" on="0"/>
        <pt x="305" y="298" on="0"/>
        <pt x="273" y="298" on="1"/>
        <pt x="163" y="298" on="1"/>
        <pt x="163" y="20" on="1"/>
        <pt x="163" y="-2" on="0"/>
        <pt x="125" y="-2" on="1"/>
        <pt x="111" y="-2" on="1"/>
      </contour>
      <contour>
        <pt x="268" y="374" on="1"/>
        <pt x="301" y="374" on="0"/>
        <pt x="355" y="432" on="0"/>
        <pt x="355" y="504" on="1"/>
        <pt x="355" y="571" on="0"/>
        <pt x="300" y="624" on="0"/>
        <pt x="261" y="624" on="1"/>
        <pt x="163" y="624" on="1"/>
        <pt x="163" y="374" on="1"/>
      </contour>
    </TTGlyph>
    <TTGlyph name="Q" xMin="49" yMin="-169" xMax="591" yMax="706">
      <contour>
        <pt x="532" y="-169" on="0"/>
        <pt x="247" y="-19" on="0"/>
        <pt x="193" y="13" on="1"/>
        <pt x="49" y="86" on="0"/>
        <pt x="49" y="350" on="1"/>
        <pt x="49" y="530" on="0"/>
        <pt x="176" y="706" on="0"/>
        <pt x="299" y="706" on="1"/>
        <pt x="422" y="706" on="0"/>
        <pt x="550" y="529" on="0"/>
        <pt x="550" y="350" on="1"/>
        <pt x="550" y="204" on="0"/>
        <pt x="466" y="32" on="0"/>
        <pt x="385" y="6" on="1"/>
        <pt x="385" y="3" on="1"/>
        <pt x="579" y="-86" on="1"/>
        <pt x="591" y="-92" on="0"/>
        <pt x="591" y="-102" on="1"/>
        <pt x="589" y="-116" on="0"/>
        <pt x="557" y="-169" on="0"/>
        <pt x="542" y="-169" on="1"/>
      </contour>
      <contour>
        <pt x="377" y="69" on="0"/>
        <pt x="458" y="209" on="0"/>
        <pt x="458" y="350" on="1"/>
        <pt x="458" y="492" on="0"/>
        <pt x="377" y="630" on="0"/>
        <pt x="300" y="630" on="1"/>
        <pt x="142" y="630" on="0"/>
        <pt x="142" y="350" on="1"/>
        <pt x="142" y="69" on="0"/>
        <pt x="300" y="69" on="1"/>
      </contour>
    </TTGlyph>
    <TTGlyph name="R" xMin="77" yMin="-2" xMax="490" yMax="700">
      <contour>
        <pt x="77" y="-2" on="0"/>
        <pt x="77" y="20" on="1"/>
        <pt x="77" y="670" on="1"/>
        <pt x="77" y="686" on="0"/>
        <pt x="90" y="700" on="0"/>
        <pt x="104" y="700" on="1"/>
        <pt x="252" y="700" on="1"/>
        <pt x="351" y="700" on="0"/>
        <pt x="447" y="616" on="0"/>
        <pt x="447" y="523" on="1"/>
        <pt x="447" y="461" on="0"/>
        <pt x="398" y="376" on="0"/>
        <pt x="355" y="354" on="1"/>
        <pt x="355" y="350" on="1"/>
        <pt x="375" y="340" on="0"/>
        <pt x="405" y="282" on="0"/>
        <pt x="424" y="225" on="1"/>
        <pt x="487" y="28" on="1"/>
        <pt x="490" y="19" on="0"/>
        <pt x="490" y="14" on="1"/>
        <pt x="490" y="-2" on="0"/>
        <pt x="451" y="-2" on="1"/>
        <pt x="434" y="-2" on="1"/>
        <pt x="420" y="-2" on="0"/>
        <pt x="399" y="7" on="0"/>
        <pt x="397" y="14" on="1"/>
        <pt x="337" y="210" on="1"/>
        <pt x="319" y="267" on="0"/>
        <pt x="274" y="308" on="0"/>
        <pt x="230" y="308" on="1"/>
        <pt x="167" y="308" on="1"/>
        <pt x="167" y="20" on="1"/>
        <pt x="167" y="-2" on="0"/>
        <pt x="129" y="-2" on="1"/>
        <pt x="115" y="-2" on="1"/>
      </contour>
      <contour>
        <pt x="267" y="384" on="1"/>
        <pt x="303" y="384" on="0"/>
        <pt x="354" y="457" on="0"/>
        <pt x="354" y="507" on="1"/>
        <pt x="354" y="566" on="0"/>
        <pt x="305" y="624" on="0"/>
        <pt x="261" y="624" on="1"/>
        <pt x="166" y="624" on="1"/>
        <pt x="166" y="384" on="1"/>
      </contour>
    </TTGlyph>
    <TTGlyph name="Racute" xMin="77" yMin="-2" xMax="490" yMax="909">
      <component glyphName="R" x="0" y="0" flags="0x0"/>
      <component glyphName="acutecomb" x="387" y="177" flags="0x0"/>
    </TTGlyph>
    <TTGlyph name="Rcaron" xMin="77" yMin="-2" xMax="490" yMax="902">
      <component glyphName="R" x="0" y="0" flags="0x0"/>
      <component glyphName="uni030C" x="250" y="177" flags="0x0"/>
    </TTGlyph>
    <TTGlyph name="Rcommaaccent" xMin="77" yMin="-235" xMax="490" yMax="700">
      <component glyphName="R" x="0" y="0" flags="0x0"/>
      <component glyphName="uni0326" x="383" y="0" flags="0x0"/>
    </TTGlyph>
    <TTGlyph name="S" xMin="32" yMin="-5" xMax="408" yMax="711">
      <contour>
        <pt x="107" y="-5" on="0"/>
        <pt x="43" y="41" on="1"/>
        <pt x="37" y="45" on="0"/>
        <pt x="32" y="54" on="0"/>
        <pt x="32" y="64" on="1"/>
        <pt x="32" y="82" on="0"/>
        <pt x="45" y="121" on="0"/>
        <pt x="55" y="121" on="1"/>
        <pt x="59" y="121" on="0"/>
        <pt x="63" y="117" on="0"/>
        <pt x="64" y="117" on="1"/>
        <pt x="119" y="74" on="0"/>
        <pt x="203" y="74" on="1"/>
        <pt x="254" y="74" on="0"/>
        <pt x="319" y="135" on="0"/>
        <pt x="319" y="187" on="1"/>
        <pt x="319" y="234" on="0"/>
        <pt x="267" y="287" on="0"/>
        <pt x="216" y="313" on="1"/>
        <pt x="159" y="341" on="0"/>
        <pt x="92" y="387" on="0"/>
        <pt x="47" y="460" on="0"/>
        <pt x="47" y="515" on="1"/>
        <pt x="47" y="606" on="0"/>
        <pt x="162" y="711" on="0"/>
        <pt x="254" y="711" on="1"/>
        <pt x="325" y="711" on="0"/>
        <pt x="376" y="681" on="1"/>
        <pt x="383" y="677" on="0"/>
        <pt x="383" y="669" on="1"/>
        <pt x="383" y="656" on="0"/>
        <pt x="364" y="608" on="0"/>
        <pt x="355" y="608" on="1"/>
        <pt x="352" y="608" on="0"/>
        <pt x="342" y="613" on="1"/>
        <pt x="304" y="632" on="0"/>
        <pt x="249" y="632" on="1"/>
        <pt x="201" y="632" on="0"/>
        <pt x="135" y="577" on="0"/>
        <pt x="135" y="525" on="1"/>
        <pt x="135" y="480" on="0"/>
        <pt x="190" y="425" on="0"/>
        <pt x="252" y="393" on="1"/>
        <pt x="303" y="367" on="0"/>
        <pt x="366" y="322" on="0"/>
        <pt x="408" y="249" on="0"/>
        <pt x="408" y="194" on="1"/>
        <pt x="408" y="100" on="0"/>
        <pt x="292" y="-5" on="0"/>
        <pt x="200" y="-5" on="1"/>
      </contour>
    </TTGlyph>
    <TTGlyph name="Sacute" xMin="32" yMin="-5" xMax="408" yMax="909">
      <component glyphName="S" x="0" y="0" flags="0x0"/>
      <component glyphName="acutecomb" x="374" y="177" flags="0x0"/>
    </TTGlyph>
    <TTGlyph name="Sacute.loclPLK" xMin="32" yMin="-5" xMax="408" yMax="909">
      <component glyphName="S" x="0" y="0" flags="0x0"/>
      <component glyphName="acute.loclPLK" x="149" y="177" flags="0x0"/>
    </TTGlyph>
    <TTGlyph name="Scaron" xMin="32" yMin="-5" xMax="408" yMax="902">
      <component glyphName="S" x="0" y="0" flags="0x0"/>
      <component glyphName="uni030C" x="237" y="177" flags="0x0"/>
    </TTGlyph>
    <TTGlyph name="Scedilla" xMin="32" yMin="-210" xMax="408" yMax="711">
      <contour>
        <pt x="408" y="112" on="0"/>
        <pt x="318" y="10" on="0"/>
        <pt x="242" y="-2" on="1"/>
        <pt x="226" y="-60" on="1"/>
        <pt x="253" y="-60" on="0"/>
        <pt x="300" y="-89" on="0"/>
        <pt x="300" y="-127" on="1"/>
        <pt x="300" y="-210" on="0"/>
        <pt x="204" y="-210" on="1"/>
        <pt x="172" y="-210" on="0"/>
        <pt x="110" y="-186" on="0"/>
        <pt x="110" y="-167" on="1"/>
        <pt x="110" y="-158" on="0"/>
        <pt x="122" y="-141" on="0"/>
        <pt x="129" y="-141" on="1"/>
        <pt x="136" y="-141" on="0"/>
        <pt x="152" y="-148" on="1"/>
        <pt x="178" y="-161" on="0"/>
        <pt x="198" y="-161" on="1"/>
        <pt x="212" y="-161" on="0"/>
        <pt x="234" y="-146" on="0"/>
        <pt x="234" y="-132" on="1"/>
        <pt x="234" y="-117" on="0"/>
        <pt x="217" y="-103" on="0"/>
        <pt x="201" y="-98" on="1"/>
        <pt x="190" y="-94" on="0"/>
        <pt x="179" y="-86" on="0"/>
        <pt x="179" y="-79" on="1"/>
        <pt x="179" y="-72" on="0"/>
        <pt x="188" y="-40" on="0"/>
        <pt x="200" y="-5" on="1"/>
        <pt x="107" y="-5" on="0"/>
        <pt x="43" y="41" on="1"/>
        <pt x="37" y="45" on="0"/>
        <pt x="32" y="54" on="0"/>
        <pt x="32" y="64" on="1"/>
        <pt x="32" y="82" on="0"/>
        <pt x="45" y="121" on="0"/>
        <pt x="55" y="121" on="1"/>
        <pt x="59" y="121" on="0"/>
        <pt x="63" y="117" on="0"/>
        <pt x="64" y="117" on="1"/>
        <pt x="119" y="74" on="0"/>
        <pt x="203" y="74" on="1"/>
        <pt x="254" y="74" on="0"/>
        <pt x="319" y="135" on="0"/>
        <pt x="319" y="187" on="1"/>
        <pt x="319" y="234" on="0"/>
        <pt x="267" y="287" on="0"/>
        <pt x="216" y="313" on="1"/>
        <pt x="159" y="341" on="0"/>
        <pt x="92" y="387" on="0"/>
        <pt x="47" y="460" on="0"/>
        <pt x="47" y="515" on="1"/>
        <pt x="47" y="606" on="0"/>
        <pt x="162" y="711" on="0"/>
        <pt x="254" y="711" on="1"/>
        <pt x="325" y="711" on="0"/>
        <pt x="376" y="681" on="1"/>
        <pt x="383" y="677" on="0"/>
        <pt x="383" y="669" on="1"/>
        <pt x="383" y="656" on="0"/>
        <pt x="364" y="608" on="0"/>
        <pt x="355" y="608" on="1"/>
        <pt x="352" y="608" on="0"/>
        <pt x="342" y="613" on="1"/>
        <pt x="304" y="632" on="0"/>
        <pt x="249" y="632" on="1"/>
        <pt x="201" y="632" on="0"/>
        <pt x="135" y="577" on="0"/>
        <pt x="135" y="525" on="1"/>
        <pt x="135" y="480" on="0"/>
        <pt x="190" y="425" on="0"/>
        <pt x="252" y="393" on="1"/>
        <pt x="303" y="367" on="0"/>
        <pt x="366" y="322" on="0"/>
        <pt x="408" y="249" on="0"/>
        <pt x="408" y="194" on="1"/>
      </contour>
    </TTGlyph>
    <TTGlyph name="Scircumflex" xMin="32" yMin="-5" xMax="408" yMax="895">
      <component glyphName="S" x="0" y="0" flags="0x0"/>
      <component glyphName="uni0302" x="239" y="177" flags="0x0"/>
    </TTGlyph>
    <TTGlyph name="Scommaaccent" xMin="32" yMin="-235" xMax="408" yMax="711">
      <component glyphName="S" x="0" y="0" flags="0x0"/>
      <component glyphName="uni0326" x="349" y="0" flags="0x0"/>
    </TTGlyph>
    <TTGlyph name="T" xMin="20" yMin="-2" xMax="435" yMax="700">
      <contour>
        <pt x="183" y="-2" on="0"/>
        <pt x="183" y="20" on="1"/>
        <pt x="183" y="624" on="1"/>
        <pt x="39" y="624" on="1"/>
        <pt x="20" y="624" on="0"/>
        <pt x="20" y="654" on="1"/>
        <pt x="20" y="670" on="1"/>
        <pt x="20" y="700" on="0"/>
        <pt x="39" y="700" on="1"/>
        <pt x="415" y="700" on="1"/>
        <pt x="426" y="700" on="0"/>
        <pt x="435" y="686" on="0"/>
        <pt x="435" y="670" on="1"/>
        <pt x="435" y="654" on="1"/>
        <pt x="435" y="638" on="0"/>
        <pt x="426" y="624" on="0"/>
        <pt x="415" y="624" on="1"/>
        <pt x="273" y="624" on="1"/>
        <pt x="273" y="20" on="1"/>
        <pt x="273" y="-2" on="0"/>
        <pt x="235" y="-2" on="1"/>
        <pt x="221" y="-2" on="1"/>
      </contour>
    </TTGlyph>
    <TTGlyph name="Tbar" xMin="20" yMin="-2" xMax="435" yMax="700">
      <contour>
        <pt x="426" y="700" on="0"/>
        <pt x="435" y="686" on="0"/>
        <pt x="435" y="670" on="1"/>
        <pt x="435" y="654" on="1"/>
        <pt x="435" y="638" on="0"/>
        <pt x="426" y="624" on="0"/>
        <pt x="415" y="624" on="1"/>
        <pt x="273" y="624" on="1"/>
        <pt x="273" y="388" on="1"/>
        <pt x="365" y="388" on="1"/>
        <pt x="375" y="388" on="0"/>
        <pt x="384" y="374" on="0"/>
        <pt x="384" y="358" on="1"/>
        <pt x="384" y="348" on="1"/>
        <pt x="384" y="332" on="0"/>
        <pt x="375" y="318" on="0"/>
        <pt x="365" y="318" on="1"/>
        <pt x="273" y="318" on="1"/>
        <pt x="273" y="20" on="1"/>
        <pt x="273" y="-2" on="0"/>
        <pt x="235" y="-2" on="1"/>
        <pt x="221" y="-2" on="1"/>
        <pt x="183" y="-2" on="0"/>
        <pt x="183" y="20" on="1"/>
        <pt x="183" y="318" on="1"/>
        <pt x="77" y="318" on="1"/>
        <pt x="58" y="318" on="0"/>
        <pt x="58" y="348" on="1"/>
        <pt x="58" y="358" on="1"/>
        <pt x="58" y="388" on="0"/>
        <pt x="77" y="388" on="1"/>
        <pt x="183" y="388" on="1"/>
        <pt x="183" y="624" on="1"/>
        <pt x="39" y="624" on="1"/>
        <pt x="20" y="624" on="0"/>
        <pt x="20" y="654" on="1"/>
        <pt x="20" y="670" on="1"/>
        <pt x="20" y="700" on="0"/>
        <pt x="39" y="700" on="1"/>
        <pt x="415" y="700" on="1"/>
      </contour>
    </TTGlyph>
    <TTGlyph name="Tcaron" xMin="20" yMin="-2" xMax="435" yMax="902">
      <component glyphName="T" x="0" y="0" flags="0x0"/>
      <component glyphName="uni030C" x="223" y="177" flags="0x0"/>
    </TTGlyph>
    <TTGlyph name="Thorn" xMin="73" yMin="-2" xMax="447" yMax="702">
      <contour>
        <pt x="73" y="-2" on="0"/>
        <pt x="73" y="20" on="1"/>
        <pt x="73" y="680" on="1"/>
        <pt x="73" y="702" on="0"/>
        <pt x="111" y="702" on="1"/>
        <pt x="125" y="702" on="1"/>
        <pt x="163" y="702" on="0"/>
        <pt x="163" y="680" on="1"/>
        <pt x="163" y="579" on="1"/>
        <pt x="265" y="579" on="1"/>
        <pt x="336" y="579" on="0"/>
        <pt x="447" y="495" on="0"/>
        <pt x="447" y="383" on="1"/>
        <pt x="447" y="300" on="0"/>
        <pt x="384" y="208" on="0"/>
        <pt x="305" y="177" on="0"/>
        <pt x="273" y="177" on="1"/>
        <pt x="163" y="177" on="1"/>
        <pt x="163" y="20" on="1"/>
        <pt x="163" y="-2" on="0"/>
        <pt x="125" y="-2" on="1"/>
        <pt x="111" y="-2" on="1"/>
      </contour>
      <contour>
        <pt x="268" y="253" on="1"/>
        <pt x="300" y="253" on="0"/>
        <pt x="354" y="311" on="0"/>
        <pt x="354" y="383" on="1"/>
        <pt x="354" y="450" on="0"/>
        <pt x="299" y="503" on="0"/>
        <pt x="260" y="503" on="1"/>
        <pt x="163" y="503" on="1"/>
        <pt x="163" y="253" on="1"/>
      </contour>
    </TTGlyph>
    <TTGlyph name="U" xMin="68" yMin="-6" xMax="515" yMax="702">
      <contour>
        <pt x="185" y="-6" on="0"/>
        <pt x="68" y="100" on="0"/>
        <pt x="68" y="195" on="1"/>
        <pt x="68" y="680" on="1"/>
        <pt x="68" y="702" on="0"/>
        <pt x="106" y="702" on="1"/>
        <pt x="120" y="702" on="1"/>
        <pt x="158" y="702" on="0"/>
        <pt x="158" y="680" on="1"/>
        <pt x="158" y="192" on="1"/>
        <pt x="158" y="138" on="0"/>
        <pt x="233" y="70" on="0"/>
        <pt x="292" y="70" on="1"/>
        <pt x="350" y="70" on="0"/>
        <pt x="425" y="139" on="0"/>
        <pt x="425" y="192" on="1"/>
        <pt x="425" y="680" on="1"/>
        <pt x="425" y="702" on="0"/>
        <pt x="463" y="702" on="1"/>
        <pt x="477" y="702" on="1"/>
        <pt x="515" y="702" on="0"/>
        <pt x="515" y="680" on="1"/>
        <pt x="515" y="195" on="1"/>
        <pt x="515" y="100" on="0"/>
        <pt x="399" y="-6" on="0"/>
        <pt x="292" y="-6" on="1"/>
      </contour>
    </TTGlyph>
    <TTGlyph name="Uacute" xMin="68" yMin="-6" xMax="515" yMax="909">
      <component glyphName="U" x="0" y="0" flags="0x0"/>
      <component glyphName="acutecomb" x="425" y="177" flags="0x0"/>
    </TTGlyph>
    <TTGlyph name="Ubreve" xMin="68" yMin="-6" xMax="515" yMax="892">
      <component glyphName="U" x="0" y="0" flags="0x0"/>
      <component glyphName="uni0306" x="291" y="177" flags="0x0"/>
    </TTGlyph>
    <TTGlyph name="Ucircumflex" xMin="68" yMin="-6" xMax="515" yMax="895">
      <component glyphName="U" x="0" y="0" flags="0x0"/>
      <component glyphName="uni0302" x="290" y="177" flags="0x0"/>
    </TTGlyph>
    <TTGlyph name="Udieresis" xMin="68" yMin="-6" xMax="515" yMax="879">
      <component glyphName="U" x="0" y="0" flags="0x0"/>
      <component glyphName="uni0308" x="294" y="177" flags="0x0"/>
    </TTGlyph>
    <TTGlyph name="Ugrave" xMin="68" yMin="-6" xMax="515" yMax="909">
      <component glyphName="U" x="0" y="0" flags="0x0"/>
      <component glyphName="gravecomb" x="292" y="177" flags="0x0"/>
    </TTGlyph>
    <TTGlyph name="Uhorn" xMin="61" yMin="-6" xMax="589" yMax="833">
      <contour>
        <pt x="589" y="722" on="0"/>
        <pt x="549" y="675" on="0"/>
        <pt x="508" y="671" on="1"/>
        <pt x="508" y="195" on="1"/>
        <pt x="508" y="100" on="0"/>
        <pt x="392" y="-6" on="0"/>
        <pt x="285" y="-6" on="1"/>
        <pt x="178" y="-6" on="0"/>
        <pt x="61" y="100" on="0"/>
        <pt x="61" y="195" on="1"/>
        <pt x="61" y="680" on="1"/>
        <pt x="61" y="702" on="0"/>
        <pt x="99" y="702" on="1"/>
        <pt x="113" y="702" on="1"/>
        <pt x="151" y="702" on="0"/>
        <pt x="151" y="680" on="1"/>
        <pt x="151" y="192" on="1"/>
        <pt x="151" y="138" on="0"/>
        <pt x="226" y="70" on="0"/>
        <pt x="285" y="70" on="1"/>
        <pt x="343" y="70" on="0"/>
        <pt x="418" y="139" on="0"/>
        <pt x="418" y="192" on="1"/>
        <pt x="418" y="680" on="1"/>
        <pt x="418" y="702" on="0"/>
        <pt x="456" y="702" on="1"/>
        <pt x="485" y="702" on="1"/>
        <pt x="508" y="702" on="0"/>
        <pt x="528" y="721" on="0"/>
        <pt x="528" y="735" on="1"/>
        <pt x="528" y="748" on="0"/>
        <pt x="518" y="769" on="0"/>
        <pt x="502" y="793" on="0"/>
        <pt x="501" y="797" on="1"/>
        <pt x="501" y="807" on="0"/>
        <pt x="510" y="813" on="1"/>
        <pt x="534" y="829" on="1"/>
        <pt x="539" y="833" on="0"/>
        <pt x="546" y="833" on="1"/>
        <pt x="562" y="833" on="0"/>
        <pt x="589" y="783" on="0"/>
        <pt x="589" y="759" on="1"/>
      </contour>
    </TTGlyph>
    <TTGlyph name="Uhungarumlaut" xMin="68" yMin="-6" xMax="515" yMax="909">
      <component glyphName="U" x="0" y="0" flags="0x0"/>
      <component glyphName="uni030B" x="305" y="177" flags="0x0"/>
    </TTGlyph>
    <TTGlyph name="Umacron" xMin="68" yMin="-6" xMax="515" yMax="859">
      <component glyphName="U" x="0" y="0" flags="0x0"/>
      <component glyphName="uni0304" x="298" y="177" flags="0x0"/>
    </TTGlyph>
    <TTGlyph name="Uogonek" xMin="68" yMin="-165" xMax="515" yMax="702">
      <contour>
        <pt x="515" y="133" on="0"/>
        <pt x="465" y="44" on="0"/>
        <pt x="417" y="20" on="1"/>
        <pt x="405" y="-1" on="0"/>
        <pt x="392" y="-44" on="0"/>
        <pt x="392" y="-59" on="1"/>
        <pt x="392" y="-102" on="0"/>
        <pt x="442" y="-102" on="1"/>
        <pt x="450" y="-102" on="0"/>
        <pt x="478" y="-95" on="0"/>
        <pt x="482" y="-95" on="1"/>
        <pt x="502" y="-95" on="0"/>
        <pt x="502" y="-119" on="1"/>
        <pt x="502" y="-137" on="0"/>
        <pt x="489" y="-146" on="1"/>
        <pt x="461" y="-165" on="0"/>
        <pt x="423" y="-165" on="1"/>
        <pt x="369" y="-165" on="0"/>
        <pt x="331" y="-108" on="0"/>
        <pt x="331" y="-77" on="1"/>
        <pt x="331" y="-41" on="0"/>
        <pt x="349" y="-1" on="1"/>
        <pt x="319" y="-6" on="0"/>
        <pt x="292" y="-6" on="1"/>
        <pt x="185" y="-6" on="0"/>
        <pt x="68" y="100" on="0"/>
        <pt x="68" y="195" on="1"/>
        <pt x="68" y="680" on="1"/>
        <pt x="68" y="702" on="0"/>
        <pt x="106" y="702" on="1"/>
        <pt x="120" y="702" on="1"/>
        <pt x="158" y="702" on="0"/>
        <pt x="158" y="680" on="1"/>
        <pt x="158" y="192" on="1"/>
        <pt x="158" y="138" on="0"/>
        <pt x="233" y="70" on="0"/>
        <pt x="292" y="70" on="1"/>
        <pt x="350" y="70" on="0"/>
        <pt x="425" y="139" on="0"/>
        <pt x="425" y="192" on="1"/>
        <pt x="425" y="680" on="1"/>
        <pt x="425" y="702" on="0"/>
        <pt x="463" y="702" on="1"/>
        <pt x="477" y="702" on="1"/>
        <pt x="515" y="702" on="0"/>
        <pt x="515" y="680" on="1"/>
        <pt x="515" y="195" on="1"/>
      </contour>
    </TTGlyph>
    <TTGlyph name="Uring" xMin="68" yMin="-6" xMax="515" yMax="910">
      <component glyphName="U" x="0" y="0" flags="0x0"/>
      <component glyphName="uni030A" x="289" y="177" flags="0x0"/>
    </TTGlyph>
    <TTGlyph name="Utilde" xMin="68" yMin="-6" xMax="515" yMax="868">
      <component glyphName="U" x="0" y="0" flags="0x0"/>
      <component glyphName="tildecomb" x="286" y="177" flags="0x0"/>
    </TTGlyph>
    <TTGlyph name="V" xMin="19" yMin="-2" xMax="488" yMax="702">
      <contour>
        <pt x="200" y="-2" on="0"/>
        <pt x="196" y="14" on="1"/>
        <pt x="22" y="672" on="1"/>
        <pt x="21" y="675" on="0"/>
        <pt x="19" y="681" on="0"/>
        <pt x="19" y="685" on="1"/>
        <pt x="19" y="702" on="0"/>
        <pt x="59" y="702" on="1"/>
        <pt x="73" y="702" on="1"/>
        <pt x="105" y="702" on="0"/>
        <pt x="110" y="686" on="1"/>
        <pt x="244" y="154" on="1"/>
        <pt x="252" y="102" on="1"/>
        <pt x="255" y="102" on="1"/>
        <pt x="264" y="155" on="1"/>
        <pt x="399" y="686" on="1"/>
        <pt x="403" y="702" on="0"/>
        <pt x="436" y="702" on="1"/>
        <pt x="448" y="702" on="1"/>
        <pt x="488" y="702" on="0"/>
        <pt x="488" y="685" on="1"/>
        <pt x="488" y="680" on="0"/>
        <pt x="485" y="671" on="1"/>
        <pt x="311" y="14" on="1"/>
        <pt x="307" y="-2" on="0"/>
        <pt x="274" y="-2" on="1"/>
        <pt x="232" y="-2" on="1"/>
      </contour>
    </TTGlyph>
    <TTGlyph name="W" xMin="19" yMin="-2" xMax="734" yMax="702">
      <contour>
        <pt x="163" y="-2" on="0"/>
        <pt x="160" y="14" on="1"/>
        <pt x="21" y="671" on="1"/>
        <pt x="19" y="683" on="1"/>
        <pt x="19" y="702" on="0"/>
        <pt x="59" y="702" on="1"/>
        <pt x="72" y="702" on="1"/>
        <pt x="108" y="702" on="0"/>
        <pt x="111" y="686" on="1"/>
        <pt x="203" y="203" on="1"/>
        <pt x="209" y="173" on="0"/>
        <pt x="216" y="117" on="1"/>
        <pt x="219" y="92" on="1"/>
        <pt x="239" y="206" on="1"/>
        <pt x="332" y="685" on="1"/>
        <pt x="336" y="702" on="0"/>
        <pt x="368" y="702" on="1"/>
        <pt x="388" y="702" on="1"/>
        <pt x="420" y="702" on="0"/>
        <pt x="424" y="685" on="1"/>
        <pt x="518" y="204" on="1"/>
        <pt x="526" y="167" on="0"/>
        <pt x="535" y="92" on="1"/>
        <pt x="554" y="203" on="1"/>
        <pt x="643" y="686" on="1"/>
        <pt x="646" y="702" on="0"/>
        <pt x="683" y="702" on="1"/>
        <pt x="694" y="702" on="1"/>
        <pt x="734" y="702" on="0"/>
        <pt x="734" y="683" on="1"/>
        <pt x="732" y="671" on="1"/>
        <pt x="592" y="14" on="1"/>
        <pt x="589" y="-2" on="0"/>
        <pt x="556" y="-2" on="1"/>
        <pt x="516" y="-2" on="1"/>
        <pt x="483" y="-2" on="0"/>
        <pt x="480" y="14" on="1"/>
        <pt x="392" y="435" on="1"/>
        <pt x="376" y="560" on="1"/>
        <pt x="360" y="435" on="1"/>
        <pt x="272" y="14" on="1"/>
        <pt x="269" y="-2" on="0"/>
        <pt x="236" y="-2" on="1"/>
        <pt x="196" y="-2" on="1"/>
      </contour>
    </TTGlyph>
    <TTGlyph name="Wacute" xMin="19" yMin="-2" xMax="734" yMax="909">
      <component glyphName="W" x="0" y="0" flags="0x0"/>
      <component glyphName="acutecomb" x="509" y="177" flags="0x0"/>
    </TTGlyph>
    <TTGlyph name="Wcircumflex" xMin="19" yMin="-2" xMax="734" yMax="895">
      <component glyphName="W" x="0" y="0" flags="0x0"/>
      <component glyphName="uni0302" x="374" y="177" flags="0x0"/>
    </TTGlyph>
    <TTGlyph name="Wdieresis" xMin="19" yMin="-2" xMax="734" yMax="879">
      <component glyphName="W" x="0" y="0" flags="0x0"/>
      <component glyphName="uni0308" x="378" y="177" flags="0x0"/>
    </TTGlyph>
    <TTGlyph name="Wgrave" xMin="19" yMin="-2" xMax="734" yMax="909">
      <component glyphName="W" x="0" y="0" flags="0x0"/>
      <component glyphName="gravecomb" x="376" y="177" flags="0x0"/>
    </TTGlyph>
    <TTGlyph name="X" xMin="21" yMin="-2" xMax="486" yMax="702">
      <contour>
        <pt x="41" y="-2" on="0"/>
        <pt x="21" y="6" on="0"/>
        <pt x="21" y="15" on="1"/>
        <pt x="21" y="19" on="0"/>
        <pt x="28" y="33" on="1"/>
        <pt x="196" y="365" on="1"/>
        <pt x="47" y="667" on="1"/>
        <pt x="40" y="679" on="0"/>
        <pt x="40" y="685" on="1"/>
        <pt x="40" y="702" on="0"/>
        <pt x="82" y="702" on="1"/>
        <pt x="102" y="702" on="1"/>
        <pt x="117" y="702" on="0"/>
        <pt x="136" y="696" on="0"/>
        <pt x="140" y="687" on="1"/>
        <pt x="255" y="436" on="1"/>
        <pt x="375" y="688" on="1"/>
        <pt x="379" y="696" on="0"/>
        <pt x="398" y="702" on="0"/>
        <pt x="414" y="702" on="1"/>
        <pt x="428" y="702" on="1"/>
        <pt x="450" y="702" on="0"/>
        <pt x="470" y="694" on="0"/>
        <pt x="470" y="685" on="1"/>
        <pt x="470" y="681" on="0"/>
        <pt x="463" y="667" on="1"/>
        <pt x="311" y="370" on="1"/>
        <pt x="479" y="33" on="1"/>
        <pt x="486" y="19" on="0"/>
        <pt x="486" y="15" on="1"/>
        <pt x="486" y="-2" on="0"/>
        <pt x="444" y="-2" on="1"/>
        <pt x="424" y="-2" on="1"/>
        <pt x="393" y="-2" on="0"/>
        <pt x="385" y="13" on="1"/>
        <pt x="253" y="298" on="1"/>
        <pt x="117" y="12" on="1"/>
        <pt x="113" y="4" on="0"/>
        <pt x="94" y="-2" on="0"/>
        <pt x="78" y="-2" on="1"/>
        <pt x="63" y="-2" on="1"/>
      </contour>
    </TTGlyph>
    <TTGlyph name="Y" xMin="20" yMin="-2" xMax="464" yMax="702">
      <contour>
        <pt x="197" y="-2" on="0"/>
        <pt x="197" y="20" on="1"/>
        <pt x="197" y="317" on="1"/>
        <pt x="27" y="667" on="1"/>
        <pt x="20" y="679" on="0"/>
        <pt x="20" y="685" on="1"/>
        <pt x="20" y="702" on="0"/>
        <pt x="62" y="702" on="1"/>
        <pt x="80" y="702" on="1"/>
        <pt x="97" y="702" on="0"/>
        <pt x="115" y="696" on="0"/>
        <pt x="119" y="687" on="1"/>
        <pt x="245" y="405" on="1"/>
        <pt x="372" y="688" on="1"/>
        <pt x="375" y="696" on="0"/>
        <pt x="396" y="702" on="0"/>
        <pt x="412" y="702" on="1"/>
        <pt x="426" y="702" on="1"/>
        <pt x="446" y="701" on="0"/>
        <pt x="464" y="693" on="0"/>
        <pt x="464" y="685" on="1"/>
        <pt x="464" y="678" on="0"/>
        <pt x="458" y="667" on="1"/>
        <pt x="287" y="314" on="1"/>
        <pt x="287" y="20" on="1"/>
        <pt x="287" y="-2" on="0"/>
        <pt x="249" y="-2" on="1"/>
        <pt x="235" y="-2" on="1"/>
      </contour>
    </TTGlyph>
    <TTGlyph name="Y.loclGUA" xMin="63" yMin="-8" xMax="436" yMax="702">
      <contour>
        <pt x="436" y="702" on="0"/>
        <pt x="436" y="680" on="1"/>
        <pt x="436" y="274" on="1"/>
        <pt x="436" y="166" on="0"/>
        <pt x="396" y="44" on="0"/>
        <pt x="313" y="-8" on="0"/>
        <pt x="244" y="-8" on="1"/>
        <pt x="197" y="-8" on="0"/>
        <pt x="116" y="8" on="0"/>
        <pt x="69" y="31" on="0"/>
        <pt x="67" y="42" on="1"/>
        <pt x="66" y="49" on="0"/>
        <pt x="66" y="67" on="1"/>
        <pt x="66" y="83" on="0"/>
        <pt x="72" y="97" on="0"/>
        <pt x="75" y="97" on="1"/>
        <pt x="78" y="97" on="0"/>
        <pt x="127" y="79" on="0"/>
        <pt x="192" y="64" on="0"/>
        <pt x="232" y="64" on="1"/>
        <pt x="278" y="64" on="0"/>
        <pt x="330" y="104" on="0"/>
        <pt x="353" y="195" on="0"/>
        <pt x="352" y="275" on="1"/>
        <pt x="324" y="243" on="0"/>
        <pt x="253" y="211" on="0"/>
        <pt x="215" y="211" on="1"/>
        <pt x="144" y="211" on="0"/>
        <pt x="63" y="291" on="0"/>
        <pt x="63" y="362" on="1"/>
        <pt x="63" y="680" on="1"/>
        <pt x="63" y="702" on="0"/>
        <pt x="103" y="702" on="1"/>
        <pt x="107" y="702" on="1"/>
        <pt x="147" y="702" on="0"/>
        <pt x="147" y="680" on="1"/>
        <pt x="147" y="370" on="1"/>
        <pt x="147" y="330" on="0"/>
        <pt x="195" y="284" on="0"/>
        <pt x="238" y="284" on="1"/>
        <pt x="269" y="284" on="0"/>
        <pt x="329" y="322" on="0"/>
        <pt x="352" y="354" on="1"/>
        <pt x="352" y="680" on="1"/>
        <pt x="352" y="702" on="0"/>
        <pt x="392" y="702" on="1"/>
        <pt x="396" y="702" on="1"/>
      </contour>
    </TTGlyph>
    <TTGlyph name="Yacute" xMin="20" yMin="-2" xMax="464" yMax="909">
      <component glyphName="Y" x="0" y="0" flags="0x0"/>
      <component glyphName="acutecomb" x="375" y="177" flags="0x0"/>
    </TTGlyph>
    <TTGlyph name="Yacute.loclGUA" xMin="63" yMin="-8" xMax="436" yMax="909">
      <component glyphName="Y.loclGUA" x="0" y="0" flags="0x0"/>
      <component glyphName="acutecomb" x="382" y="177" flags="0x0"/>
    </TTGlyph>
    <TTGlyph name="Ycircumflex" xMin="20" yMin="-2" xMax="464" yMax="895">
      <component glyphName="Y" x="0" y="0" flags="0x0"/>
      <component glyphName="uni0302" x="240" y="177" flags="0x0"/>
    </TTGlyph>
    <TTGlyph name="Ycircumflex.loclGUA" xMin="63" yMin="-8" xMax="436" yMax="895">
      <component glyphName="Y.loclGUA" x="0" y="0" flags="0x0"/>
      <component glyphName="uni0302" x="247" y="177" flags="0x0"/>
    </TTGlyph>
    <TTGlyph name="Ydieresis" xMin="20" yMin="-2" xMax="464" yMax="879">
      <component glyphName="Y" x="0" y="0" flags="0x0"/>
      <component glyphName="uni0308" x="244" y="177" flags="0x0"/>
    </TTGlyph>
    <TTGlyph name="Ydieresis.loclGUA" xMin="63" yMin="-8" xMax="436" yMax="879">
      <component glyphName="Y.loclGUA" x="0" y="0" flags="0x0"/>
      <component glyphName="uni0308" x="251" y="177" flags="0x0"/>
    </TTGlyph>
    <TTGlyph name="Ygrave" xMin="20" yMin="-2" xMax="464" yMax="909">
      <component glyphName="Y" x="0" y="0" flags="0x0"/>
      <component glyphName="gravecomb" x="242" y="177" flags="0x0"/>
    </TTGlyph>
    <TTGlyph name="Ygrave.loclGUA" xMin="63" yMin="-8" xMax="436" yMax="909">
      <component glyphName="Y.loclGUA" x="0" y="0" flags="0x0"/>
      <component glyphName="gravecomb" x="249" y="177" flags="0x0"/>
    </TTGlyph>
    <TTGlyph name="Z" xMin="34" yMin="0" xMax="466" yMax="700">
      <contour>
        <pt x="50" y="0" on="0"/>
        <pt x="34" y="37" on="0"/>
        <pt x="34" y="53" on="1"/>
        <pt x="34" y="59" on="0"/>
        <pt x="36" y="65" on="1"/>
        <pt x="357" y="624" on="1"/>
        <pt x="78" y="624" on="1"/>
        <pt x="68" y="624" on="0"/>
        <pt x="60" y="640" on="0"/>
        <pt x="60" y="658" on="1"/>
        <pt x="60" y="666" on="1"/>
        <pt x="60" y="684" on="0"/>
        <pt x="68" y="700" on="0"/>
        <pt x="78" y="700" on="1"/>
        <pt x="444" y="700" on="1"/>
        <pt x="451" y="700" on="0"/>
        <pt x="466" y="663" on="0"/>
        <pt x="466" y="647" on="1"/>
        <pt x="466" y="638" on="0"/>
        <pt x="465" y="635" on="1"/>
        <pt x="146" y="76" on="1"/>
        <pt x="447" y="76" on="1"/>
        <pt x="466" y="76" on="0"/>
        <pt x="466" y="42" on="1"/>
        <pt x="466" y="34" on="1"/>
        <pt x="466" y="0" on="0"/>
        <pt x="447" y="0" on="1"/>
        <pt x="58" y="0" on="1"/>
      </contour>
    </TTGlyph>
    <TTGlyph name="Zacute" xMin="34" yMin="0" xMax="466" yMax="909">
      <component glyphName="Z" x="0" y="0" flags="0x0"/>
      <component glyphName="acutecomb" x="390" y="177" flags="0x0"/>
    </TTGlyph>
    <TTGlyph name="Zacute.loclPLK" xMin="34" yMin="0" xMax="466" yMax="909">
      <component glyphName="Z" x="0" y="0" flags="0x0"/>
      <component glyphName="acute.loclPLK" x="165" y="177" flags="0x0"/>
    </TTGlyph>
    <TTGlyph name="Zcaron" xMin="34" yMin="0" xMax="466" yMax="902">
      <component glyphName="Z" x="0" y="0" flags="0x0"/>
      <component glyphName="uni030C" x="253" y="177" flags="0x0"/>
    </TTGlyph>
    <TTGlyph name="Zdotaccent" xMin="34" yMin="0" xMax="466" yMax="879">
      <component glyphName="Z" x="0" y="0" flags="0x0"/>
      <component glyphName="uni0307" x="257" y="177" flags="0x0"/>
    </TTGlyph>
    <TTGlyph name="a" xMin="51" yMin="-6" xMax="416" yMax="529">
      <contour>
        <pt x="130" y="-6" on="0"/>
        <pt x="51" y="75" on="0"/>
        <pt x="51" y="149" on="1"/>
        <pt x="51" y="224" on="0"/>
        <pt x="129" y="304" on="0"/>
        <pt x="245" y="331" on="0"/>
        <pt x="320" y="332" on="1"/>
        <pt x="320" y="379" on="1"/>
        <pt x="320" y="413" on="0"/>
        <pt x="278" y="457" on="0"/>
        <pt x="233" y="457" on="1"/>
        <pt x="198" y="457" on="0"/>
        <pt x="145" y="440" on="0"/>
        <pt x="107" y="421" on="0"/>
        <pt x="104" y="421" on="1"/>
        <pt x="94" y="421" on="0"/>
        <pt x="69" y="460" on="0"/>
        <pt x="69" y="470" on="1"/>
        <pt x="69" y="483" on="0"/>
        <pt x="116" y="511" on="0"/>
        <pt x="193" y="529" on="0"/>
        <pt x="234" y="529" on="1"/>
        <pt x="314" y="529" on="0"/>
        <pt x="404" y="449" on="0"/>
        <pt x="404" y="378" on="1"/>
        <pt x="404" y="148" on="1"/>
        <pt x="404" y="82" on="0"/>
        <pt x="416" y="25" on="0"/>
        <pt x="416" y="22" on="1"/>
        <pt x="416" y="10" on="0"/>
        <pt x="378" y="-1" on="0"/>
        <pt x="362" y="-1" on="1"/>
        <pt x="347" y="-1" on="0"/>
        <pt x="333" y="30" on="0"/>
        <pt x="327" y="58" on="1"/>
        <pt x="274" y="-6" on="0"/>
        <pt x="197" y="-6" on="1"/>
      </contour>
      <contour>
        <pt x="279" y="73" on="0"/>
        <pt x="320" y="130" on="1"/>
        <pt x="320" y="259" on="1"/>
        <pt x="264" y="258" on="0"/>
        <pt x="191" y="244" on="0"/>
        <pt x="139" y="197" on="0"/>
        <pt x="139" y="150" on="1"/>
        <pt x="139" y="73" on="0"/>
        <pt x="214" y="73" on="1"/>
      </contour>
    </TTGlyph>
    <TTGlyph name="aacute" xMin="51" yMin="-6" xMax="416" yMax="732">
      <component glyphName="a" x="0" y="0" flags="0x0"/>
      <component glyphName="acutecomb" x="377" y="0" flags="0x0"/>
    </TTGlyph>
    <TTGlyph name="abreve" xMin="51" yMin="-6" xMax="416" yMax="715">
      <component glyphName="a" x="0" y="0" flags="0x0"/>
      <component glyphName="uni0306" x="243" y="0" flags="0x0"/>
    </TTGlyph>
    <TTGlyph name="acircumflex" xMin="51" yMin="-6" xMax="416" yMax="718">
      <component glyphName="a" x="0" y="0" flags="0x0"/>
      <component glyphName="uni0302" x="242" y="0" flags="0x0"/>
    </TTGlyph>
    <TTGlyph name="acute" xMin="53" yMin="585" xMax="200" yMax="732">
      <contour>
        <pt x="53" y="585" on="0"/>
        <pt x="53" y="595" on="1"/>
        <pt x="53" y="602" on="0"/>
        <pt x="78" y="656" on="0"/>
        <pt x="102" y="706" on="1"/>
        <pt x="114" y="732" on="0"/>
        <pt x="158" y="732" on="1"/>
        <pt x="180" y="732" on="0"/>
        <pt x="200" y="726" on="0"/>
        <pt x="200" y="719" on="1"/>
        <pt x="200" y="713" on="0"/>
        <pt x="182" y="687" on="0"/>
        <pt x="164" y="661" on="1"/>
        <pt x="122" y="603" on="1"/>
        <pt x="110" y="585" on="0"/>
        <pt x="74" y="585" on="1"/>
      </contour>
    </TTGlyph>
    <TTGlyph name="acute.loclPLK" xMin="58" yMin="585" xMax="181" yMax="732">
      <contour>
        <pt x="70" y="585" on="0"/>
        <pt x="58" y="590" on="0"/>
        <pt x="58" y="595" on="1"/>
        <pt x="58" y="605" on="0"/>
        <pt x="83" y="706" on="1"/>
        <pt x="87" y="721" on="0"/>
        <pt x="117" y="732" on="0"/>
        <pt x="141" y="732" on="1"/>
        <pt x="162" y="732" on="0"/>
        <pt x="181" y="725" on="0"/>
        <pt x="181" y="718" on="1"/>
        <pt x="181" y="713" on="0"/>
        <pt x="152" y="653" on="0"/>
        <pt x="127" y="603" on="1"/>
        <pt x="117" y="585" on="0"/>
        <pt x="85" y="585" on="1"/>
      </contour>
    </TTGlyph>
    <TTGlyph name="acutecomb" xMin="-161" yMin="585" xMax="-14" yMax="732">
      <contour>
        <pt x="-161" y="585" on="0"/>
        <pt x="-161" y="595" on="1"/>
        <pt x="-161" y="602" on="0"/>
        <pt x="-136" y="656" on="0"/>
        <pt x="-112" y="706" on="1"/>
        <pt x="-100" y="732" on="0"/>
        <pt x="-56" y="732" on="1"/>
        <pt x="-34" y="732" on="0"/>
        <pt x="-14" y="726" on="0"/>
        <pt x="-14" y="719" on="1"/>
        <pt x="-14" y="713" on="0"/>
        <pt x="-32" y="687" on="0"/>
        <pt x="-50" y="661" on="1"/>
        <pt x="-92" y="603" on="1"/>
        <pt x="-104" y="585" on="0"/>
        <pt x="-140" y="585" on="1"/>
      </contour>
    </TTGlyph>
    <TTGlyph name="adieresis" xMin="51" yMin="-6" xMax="416" yMax="702">
      <component glyphName="a" x="0" y="0" flags="0x0"/>
      <component glyphName="uni0308" x="246" y="0" flags="0x0"/>
    </TTGlyph>
    <TTGlyph name="ae" xMin="30" yMin="-6" xMax="635" yMax="529">
      <contour>
        <pt x="111" y="-6" on="0"/>
        <pt x="30" y="75" on="0"/>
        <pt x="30" y="150" on="1"/>
        <pt x="30" y="247" on="0"/>
        <pt x="161" y="320" on="0"/>
        <pt x="268" y="325" on="1"/>
        <pt x="272" y="369" on="0"/>
        <pt x="286" y="404" on="1"/>
        <pt x="272" y="457" on="0"/>
        <pt x="210" y="457" on="1"/>
        <pt x="176" y="457" on="0"/>
        <pt x="126" y="441" on="0"/>
        <pt x="89" y="423" on="0"/>
        <pt x="86" y="423" on="1"/>
        <pt x="76" y="423" on="0"/>
        <pt x="52" y="461" on="0"/>
        <pt x="52" y="471" on="1"/>
        <pt x="52" y="484" on="0"/>
        <pt x="97" y="511" on="0"/>
        <pt x="171" y="529" on="0"/>
        <pt x="211" y="529" on="1"/>
        <pt x="292" y="529" on="0"/>
        <pt x="336" y="485" on="1"/>
        <pt x="385" y="529" on="0"/>
        <pt x="461" y="529" on="1"/>
        <pt x="547" y="529" on="0"/>
        <pt x="635" y="399" on="0"/>
        <pt x="635" y="274" on="1"/>
        <pt x="635" y="265" on="0"/>
        <pt x="611" y="233" on="0"/>
        <pt x="602" y="233" on="1"/>
        <pt x="354" y="233" on="1"/>
        <pt x="359" y="145" on="0"/>
        <pt x="413" y="66" on="0"/>
        <pt x="472" y="66" on="1"/>
        <pt x="508" y="66" on="0"/>
        <pt x="555" y="86" on="0"/>
        <pt x="586" y="108" on="0"/>
        <pt x="589" y="108" on="1"/>
        <pt x="599" y="108" on="0"/>
        <pt x="624" y="68" on="0"/>
        <pt x="624" y="58" on="1"/>
        <pt x="624" y="46" on="0"/>
        <pt x="583" y="15" on="0"/>
        <pt x="513" y="-6" on="0"/>
        <pt x="473" y="-6" on="1"/>
        <pt x="370" y="-6" on="0"/>
        <pt x="320" y="53" on="1"/>
        <pt x="295" y="25" on="0"/>
        <pt x="222" y="-6" on="0"/>
        <pt x="179" y="-6" on="1"/>
      </contour>
      <contour>
        <pt x="546" y="305" on="1"/>
        <pt x="546" y="457" on="0"/>
        <pt x="458" y="457" on="1"/>
        <pt x="362" y="457" on="0"/>
        <pt x="354" y="305" on="1"/>
      </contour>
      <contour>
        <pt x="247" y="73" on="0"/>
        <pt x="285" y="116" on="1"/>
        <pt x="266" y="167" on="0"/>
        <pt x="264" y="252" on="1"/>
        <pt x="198" y="249" on="0"/>
        <pt x="118" y="207" on="0"/>
        <pt x="118" y="152" on="1"/>
        <pt x="118" y="73" on="0"/>
        <pt x="188" y="73" on="1"/>
      </contour>
    </TTGlyph>
    <TTGlyph name="aeacute" xMin="30" yMin="-6" xMax="635" yMax="732">
      <component glyphName="ae" x="0" y="0" flags="0x0"/>
      <component glyphName="acutecomb" x="475" y="0" flags="0x0"/>
    </TTGlyph>
    <TTGlyph name="agrave" xMin="51" yMin="-6" xMax="416" yMax="732">
      <component glyphName="a" x="0" y="0" flags="0x0"/>
      <component glyphName="gravecomb" x="244" y="0" flags="0x0"/>
    </TTGlyph>
    <TTGlyph name="amacron" xMin="51" yMin="-6" xMax="416" yMax="682">
      <component glyphName="a" x="0" y="0" flags="0x0"/>
      <component glyphName="uni0304" x="250" y="0" flags="0x0"/>
    </TTGlyph>
    <TTGlyph name="ampersand" xMin="32" yMin="-6" xMax="496" yMax="706">
      <contour>
        <pt x="484" y="71" on="0"/>
        <pt x="496" y="34" on="0"/>
        <pt x="496" y="24" on="1"/>
        <pt x="496" y="-6" on="0"/>
        <pt x="431" y="-6" on="1"/>
        <pt x="374" y="-6" on="0"/>
        <pt x="347" y="37" on="1"/>
        <pt x="314" y="17" on="0"/>
        <pt x="252" y="-6" on="0"/>
        <pt x="212" y="-6" on="1"/>
        <pt x="136" y="-6" on="0"/>
        <pt x="32" y="96" on="0"/>
        <pt x="32" y="203" on="1"/>
        <pt x="32" y="278" on="0"/>
        <pt x="87" y="374" on="0"/>
        <pt x="130" y="387" on="1"/>
        <pt x="130" y="391" on="1"/>
        <pt x="94" y="408" on="0"/>
        <pt x="50" y="485" on="0"/>
        <pt x="50" y="538" on="1"/>
        <pt x="50" y="620" on="0"/>
        <pt x="139" y="706" on="0"/>
        <pt x="213" y="706" on="1"/>
        <pt x="243" y="706" on="0"/>
        <pt x="288" y="692" on="0"/>
        <pt x="288" y="674" on="1"/>
        <pt x="288" y="666" on="0"/>
        <pt x="275" y="625" on="0"/>
        <pt x="267" y="625" on="1"/>
        <pt x="264" y="625" on="0"/>
        <pt x="238" y="634" on="0"/>
        <pt x="222" y="634" on="1"/>
        <pt x="176" y="634" on="0"/>
        <pt x="137" y="567" on="0"/>
        <pt x="137" y="529" on="1"/>
        <pt x="137" y="502" on="0"/>
        <pt x="159" y="446" on="0"/>
        <pt x="203" y="408" on="0"/>
        <pt x="235" y="408" on="1"/>
        <pt x="322" y="408" on="1"/>
        <pt x="333" y="513" on="1"/>
        <pt x="335" y="535" on="0"/>
        <pt x="365" y="535" on="1"/>
        <pt x="379" y="535" on="1"/>
        <pt x="409" y="535" on="0"/>
        <pt x="409" y="513" on="1"/>
        <pt x="409" y="408" on="1"/>
        <pt x="466" y="408" on="1"/>
        <pt x="485" y="408" on="0"/>
        <pt x="485" y="378" on="1"/>
        <pt x="485" y="366" on="1"/>
        <pt x="485" y="336" on="0"/>
        <pt x="466" y="336" on="1"/>
        <pt x="409" y="336" on="1"/>
        <pt x="409" y="140" on="1"/>
        <pt x="409" y="98" on="0"/>
        <pt x="429" y="66" on="0"/>
        <pt x="447" y="66" on="1"/>
        <pt x="458" y="66" on="0"/>
        <pt x="473" y="71" on="0"/>
        <pt x="476" y="71" on="1"/>
      </contour>
      <contour>
        <pt x="120" y="129" on="0"/>
        <pt x="179" y="66" on="0"/>
        <pt x="222" y="66" on="1"/>
        <pt x="245" y="66" on="0"/>
        <pt x="294" y="84" on="0"/>
        <pt x="325" y="101" on="1"/>
        <pt x="322" y="115" on="0"/>
        <pt x="322" y="132" on="1"/>
        <pt x="322" y="336" on="1"/>
        <pt x="231" y="336" on="1"/>
        <pt x="175" y="336" on="0"/>
        <pt x="120" y="277" on="0"/>
        <pt x="120" y="204" on="1"/>
      </contour>
    </TTGlyph>
    <TTGlyph name="aogonek" xMin="51" yMin="-167" xMax="498" yMax="529">
      <contour>
        <pt x="498" y="-97" on="0"/>
        <pt x="498" y="-121" on="1"/>
        <pt x="498" y="-139" on="0"/>
        <pt x="485" y="-148" on="1"/>
        <pt x="457" y="-167" on="0"/>
        <pt x="419" y="-167" on="1"/>
        <pt x="365" y="-167" on="0"/>
        <pt x="327" y="-110" on="0"/>
        <pt x="327" y="-79" on="1"/>
        <pt x="327" y="-36" on="0"/>
        <pt x="349" y="4" on="1"/>
        <pt x="341" y="11" on="0"/>
        <pt x="332" y="35" on="0"/>
        <pt x="327" y="58" on="1"/>
        <pt x="274" y="-6" on="0"/>
        <pt x="197" y="-6" on="1"/>
        <pt x="130" y="-6" on="0"/>
        <pt x="51" y="75" on="0"/>
        <pt x="51" y="149" on="1"/>
        <pt x="51" y="224" on="0"/>
        <pt x="129" y="304" on="0"/>
        <pt x="245" y="331" on="0"/>
        <pt x="320" y="332" on="1"/>
        <pt x="320" y="379" on="1"/>
        <pt x="320" y="413" on="0"/>
        <pt x="278" y="457" on="0"/>
        <pt x="233" y="457" on="1"/>
        <pt x="198" y="457" on="0"/>
        <pt x="145" y="440" on="0"/>
        <pt x="107" y="421" on="0"/>
        <pt x="104" y="421" on="1"/>
        <pt x="94" y="421" on="0"/>
        <pt x="69" y="460" on="0"/>
        <pt x="69" y="470" on="1"/>
        <pt x="69" y="483" on="0"/>
        <pt x="116" y="511" on="0"/>
        <pt x="193" y="529" on="0"/>
        <pt x="234" y="529" on="1"/>
        <pt x="314" y="529" on="0"/>
        <pt x="404" y="449" on="0"/>
        <pt x="404" y="378" on="1"/>
        <pt x="404" y="148" on="1"/>
        <pt x="404" y="82" on="0"/>
        <pt x="416" y="25" on="0"/>
        <pt x="416" y="22" on="1"/>
        <pt x="416" y="15" on="0"/>
        <pt x="408" y="9" on="1"/>
        <pt x="388" y="-28" on="0"/>
        <pt x="388" y="-61" on="1"/>
        <pt x="388" y="-104" on="0"/>
        <pt x="438" y="-104" on="1"/>
        <pt x="446" y="-104" on="0"/>
        <pt x="474" y="-97" on="0"/>
        <pt x="478" y="-97" on="1"/>
      </contour>
      <contour>
        <pt x="320" y="259" on="1"/>
        <pt x="264" y="258" on="0"/>
        <pt x="191" y="244" on="0"/>
        <pt x="139" y="197" on="0"/>
        <pt x="139" y="150" on="1"/>
        <pt x="139" y="73" on="0"/>
        <pt x="214" y="73" on="1"/>
        <pt x="279" y="73" on="0"/>
        <pt x="320" y="130" on="1"/>
      </contour>
    </TTGlyph>
    <TTGlyph name="approxequal" xMin="58" yMin="98" xMax="387" yMax="359">
      <contour>
        <pt x="69" y="264" on="1"/>
        <pt x="58" y="270" on="0"/>
        <pt x="58" y="276" on="1"/>
        <pt x="58" y="279" on="0"/>
        <pt x="60" y="289" on="1"/>
        <pt x="71" y="326" on="0"/>
        <pt x="109" y="358" on="0"/>
        <pt x="139" y="358" on="1"/>
        <pt x="156" y="358" on="0"/>
        <pt x="198" y="347" on="0"/>
        <pt x="228" y="336" on="1"/>
        <pt x="283" y="315" on="0"/>
        <pt x="308" y="315" on="1"/>
        <pt x="327" y="315" on="0"/>
        <pt x="344" y="344" on="1"/>
        <pt x="352" y="359" on="0"/>
        <pt x="360" y="359" on="1"/>
        <pt x="365" y="359" on="0"/>
        <pt x="369" y="356" on="1"/>
        <pt x="375" y="353" on="1"/>
        <pt x="382" y="350" on="0"/>
        <pt x="387" y="345" on="0"/>
        <pt x="387" y="341" on="1"/>
        <pt x="387" y="336" on="0"/>
        <pt x="384" y="327" on="1"/>
        <pt x="374" y="291" on="0"/>
        <pt x="336" y="259" on="0"/>
        <pt x="306" y="259" on="1"/>
        <pt x="288" y="259" on="0"/>
        <pt x="248" y="270" on="0"/>
        <pt x="215" y="282" on="1"/>
        <pt x="193" y="290" on="0"/>
        <pt x="149" y="302" on="0"/>
        <pt x="135" y="302" on="1"/>
        <pt x="116" y="302" on="0"/>
        <pt x="101" y="272" on="1"/>
        <pt x="93" y="258" on="0"/>
        <pt x="85" y="258" on="1"/>
        <pt x="80" y="258" on="0"/>
        <pt x="77" y="260" on="1"/>
      </contour>
      <contour>
        <pt x="69" y="104" on="1"/>
        <pt x="58" y="110" on="0"/>
        <pt x="58" y="116" on="1"/>
        <pt x="58" y="119" on="0"/>
        <pt x="60" y="129" on="1"/>
        <pt x="71" y="166" on="0"/>
        <pt x="109" y="198" on="0"/>
        <pt x="139" y="198" on="1"/>
        <pt x="156" y="198" on="0"/>
        <pt x="198" y="187" on="0"/>
        <pt x="228" y="176" on="1"/>
        <pt x="283" y="155" on="0"/>
        <pt x="308" y="155" on="1"/>
        <pt x="327" y="155" on="0"/>
        <pt x="344" y="184" on="1"/>
        <pt x="352" y="199" on="0"/>
        <pt x="360" y="199" on="1"/>
        <pt x="365" y="199" on="0"/>
        <pt x="369" y="196" on="1"/>
        <pt x="375" y="193" on="1"/>
        <pt x="382" y="190" on="0"/>
        <pt x="387" y="185" on="0"/>
        <pt x="387" y="181" on="1"/>
        <pt x="387" y="176" on="0"/>
        <pt x="384" y="167" on="1"/>
        <pt x="374" y="131" on="0"/>
        <pt x="336" y="99" on="0"/>
        <pt x="306" y="99" on="1"/>
        <pt x="288" y="99" on="0"/>
        <pt x="248" y="110" on="0"/>
        <pt x="215" y="122" on="1"/>
        <pt x="193" y="130" on="0"/>
        <pt x="149" y="142" on="0"/>
        <pt x="135" y="142" on="1"/>
        <pt x="116" y="142" on="0"/>
        <pt x="101" y="112" on="1"/>
        <pt x="93" y="98" on="0"/>
        <pt x="85" y="98" on="1"/>
        <pt x="80" y="98" on="0"/>
        <pt x="77" y="100" on="1"/>
      </contour>
    </TTGlyph>
    <TTGlyph name="aring" xMin="51" yMin="-6" xMax="416" yMax="733">
      <component glyphName="a" x="0" y="0" flags="0x0"/>
      <component glyphName="uni030A" x="241" y="0" flags="0x0"/>
    </TTGlyph>
    <TTGlyph name="aringacute" xMin="51" yMin="-6" xMax="416" yMax="909">
      <component glyphName="a" x="0" y="0" flags="0x0"/>
      <component glyphName="uni030A" x="241" y="0" flags="0x0"/>
      <component glyphName="acutecomb" x="378" y="177" flags="0x0"/>
    </TTGlyph>
    <TTGlyph name="arrowdown" xMin="5" yMin="-5" xMax="499" yMax="707">
      <contour>
        <pt x="241" y="-5" on="0"/>
        <pt x="234" y="2" on="1"/>
        <pt x="19" y="219" on="1"/>
        <pt x="5" y="233" on="0"/>
        <pt x="5" y="253" on="1"/>
        <pt x="5" y="308" on="1"/>
        <pt x="5" y="327" on="0"/>
        <pt x="12" y="327" on="1"/>
        <pt x="16" y="327" on="0"/>
        <pt x="26" y="317" on="1"/>
        <pt x="217" y="121" on="1"/>
        <pt x="217" y="685" on="1"/>
        <pt x="217" y="707" on="0"/>
        <pt x="247" y="707" on="1"/>
        <pt x="257" y="707" on="1"/>
        <pt x="287" y="707" on="0"/>
        <pt x="287" y="685" on="1"/>
        <pt x="287" y="121" on="1"/>
        <pt x="478" y="316" on="1"/>
        <pt x="488" y="326" on="0"/>
        <pt x="492" y="326" on="1"/>
        <pt x="499" y="326" on="0"/>
        <pt x="499" y="307" on="1"/>
        <pt x="499" y="252" on="1"/>
        <pt x="499" y="232" on="0"/>
        <pt x="485" y="218" on="1"/>
        <pt x="270" y="2" on="1"/>
        <pt x="263" y="-5" on="0"/>
        <pt x="252" y="-5" on="1"/>
      </contour>
    </TTGlyph>
    <TTGlyph name="arrowleft" xMin="0" yMin="1" xMax="601" yMax="530">
      <contour>
        <pt x="212" y="1" on="0"/>
        <pt x="198" y="7" on="0"/>
        <pt x="192" y="15" on="1"/>
        <pt x="6" y="247" on="1"/>
        <pt x="0" y="254" on="0"/>
        <pt x="0" y="265" on="1"/>
        <pt x="0" y="277" on="0"/>
        <pt x="6" y="283" on="1"/>
        <pt x="191" y="516" on="1"/>
        <pt x="197" y="524" on="0"/>
        <pt x="211" y="530" on="0"/>
        <pt x="222" y="530" on="1"/>
        <pt x="271" y="530" on="1"/>
        <pt x="286" y="530" on="0"/>
        <pt x="286" y="523" on="1"/>
        <pt x="286" y="519" on="0"/>
        <pt x="278" y="509" on="1"/>
        <pt x="114" y="300" on="1"/>
        <pt x="580" y="300" on="1"/>
        <pt x="601" y="300" on="0"/>
        <pt x="601" y="270" on="1"/>
        <pt x="601" y="260" on="1"/>
        <pt x="601" y="230" on="0"/>
        <pt x="580" y="230" on="1"/>
        <pt x="114" y="230" on="1"/>
        <pt x="279" y="22" on="1"/>
        <pt x="287" y="12" on="0"/>
        <pt x="287" y="8" on="1"/>
        <pt x="287" y="1" on="0"/>
        <pt x="272" y="1" on="1"/>
        <pt x="223" y="1" on="1"/>
      </contour>
    </TTGlyph>
    <TTGlyph name="arrowright" xMin="0" yMin="1" xMax="600" yMax="530">
      <contour>
        <pt x="313" y="1" on="0"/>
        <pt x="313" y="8" on="1"/>
        <pt x="313" y="10" on="0"/>
        <pt x="321" y="22" on="1"/>
        <pt x="486" y="230" on="1"/>
        <pt x="21" y="230" on="1"/>
        <pt x="0" y="230" on="0"/>
        <pt x="0" y="260" on="1"/>
        <pt x="0" y="270" on="1"/>
        <pt x="0" y="300" on="0"/>
        <pt x="21" y="300" on="1"/>
        <pt x="486" y="300" on="1"/>
        <pt x="321" y="509" on="1"/>
        <pt x="314" y="520" on="0"/>
        <pt x="314" y="523" on="1"/>
        <pt x="314" y="530" on="0"/>
        <pt x="329" y="530" on="1"/>
        <pt x="378" y="530" on="1"/>
        <pt x="399" y="530" on="0"/>
        <pt x="409" y="516" on="1"/>
        <pt x="594" y="283" on="1"/>
        <pt x="600" y="276" on="0"/>
        <pt x="600" y="263" on="1"/>
        <pt x="600" y="254" on="0"/>
        <pt x="594" y="247" on="1"/>
        <pt x="409" y="15" on="1"/>
        <pt x="399" y="1" on="0"/>
        <pt x="378" y="1" on="1"/>
        <pt x="329" y="1" on="1"/>
      </contour>
    </TTGlyph>
    <TTGlyph name="arrowup" xMin="5" yMin="-4" xMax="499" yMax="708">
      <contour>
        <pt x="217" y="-4" on="0"/>
        <pt x="217" y="18" on="1"/>
        <pt x="217" y="582" on="1"/>
        <pt x="26" y="387" on="1"/>
        <pt x="16" y="377" on="0"/>
        <pt x="12" y="377" on="1"/>
        <pt x="5" y="377" on="0"/>
        <pt x="5" y="396" on="1"/>
        <pt x="5" y="451" on="1"/>
        <pt x="5" y="471" on="0"/>
        <pt x="19" y="485" on="1"/>
        <pt x="234" y="701" on="1"/>
        <pt x="241" y="708" on="0"/>
        <pt x="252" y="708" on="1"/>
        <pt x="263" y="708" on="0"/>
        <pt x="270" y="701" on="1"/>
        <pt x="485" y="485" on="1"/>
        <pt x="499" y="471" on="0"/>
        <pt x="499" y="451" on="1"/>
        <pt x="499" y="396" on="1"/>
        <pt x="499" y="377" on="0"/>
        <pt x="492" y="377" on="1"/>
        <pt x="488" y="377" on="0"/>
        <pt x="478" y="387" on="1"/>
        <pt x="287" y="582" on="1"/>
        <pt x="287" y="18" on="1"/>
        <pt x="287" y="-4" on="0"/>
        <pt x="257" y="-4" on="1"/>
        <pt x="247" y="-4" on="1"/>
      </contour>
    </TTGlyph>
    <TTGlyph name="asciicircum" xMin="37" yMin="320" xMax="323" yMax="684">
      <contour>
        <pt x="37" y="320" on="0"/>
        <pt x="37" y="341" on="1"/>
        <pt x="37" y="345" on="0"/>
        <pt x="39" y="355" on="1"/>
        <pt x="141" y="664" on="1"/>
        <pt x="145" y="675" on="0"/>
        <pt x="159" y="684" on="0"/>
        <pt x="170" y="684" on="1"/>
        <pt x="190" y="684" on="1"/>
        <pt x="202" y="684" on="0"/>
        <pt x="215" y="675" on="0"/>
        <pt x="219" y="664" on="1"/>
        <pt x="321" y="355" on="1"/>
        <pt x="323" y="345" on="0"/>
        <pt x="323" y="341" on="1"/>
        <pt x="323" y="320" on="0"/>
        <pt x="300" y="320" on="1"/>
        <pt x="292" y="320" on="1"/>
        <pt x="266" y="320" on="0"/>
        <pt x="260" y="343" on="1"/>
        <pt x="180" y="604" on="1"/>
        <pt x="100" y="343" on="1"/>
        <pt x="93" y="320" on="0"/>
        <pt x="69" y="320" on="1"/>
        <pt x="60" y="320" on="1"/>
      </contour>
    </TTGlyph>
    <TTGlyph name="asciitilde" xMin="51" yMin="225" xMax="405" yMax="326">
      <contour>
        <pt x="62" y="231" on="1"/>
        <pt x="51" y="235" on="0"/>
        <pt x="51" y="243" on="1"/>
        <pt x="51" y="249" on="0"/>
        <pt x="54" y="256" on="1"/>
        <pt x="71" y="293" on="0"/>
        <pt x="118" y="325" on="0"/>
        <pt x="152" y="325" on="1"/>
        <pt x="169" y="325" on="0"/>
        <pt x="206" y="314" on="0"/>
        <pt x="234" y="304" on="1"/>
        <pt x="282" y="285" on="0"/>
        <pt x="302" y="285" on="1"/>
        <pt x="316" y="285" on="0"/>
        <pt x="336" y="296" on="0"/>
        <pt x="347" y="311" on="1"/>
        <pt x="358" y="326" on="0"/>
        <pt x="370" y="326" on="1"/>
        <pt x="376" y="326" on="0"/>
        <pt x="383" y="323" on="1"/>
        <pt x="391" y="320" on="1"/>
        <pt x="398" y="318" on="0"/>
        <pt x="405" y="312" on="0"/>
        <pt x="405" y="308" on="1"/>
        <pt x="405" y="302" on="0"/>
        <pt x="401" y="294" on="1"/>
        <pt x="383" y="257" on="0"/>
        <pt x="336" y="226" on="0"/>
        <pt x="304" y="226" on="1"/>
        <pt x="285" y="226" on="0"/>
        <pt x="245" y="237" on="0"/>
        <pt x="217" y="248" on="1"/>
        <pt x="199" y="255" on="0"/>
        <pt x="163" y="266" on="0"/>
        <pt x="150" y="266" on="1"/>
        <pt x="137" y="266" on="0"/>
        <pt x="118" y="254" on="0"/>
        <pt x="108" y="239" on="1"/>
        <pt x="102" y="231" on="0"/>
        <pt x="93" y="225" on="0"/>
        <pt x="87" y="225" on="1"/>
        <pt x="84" y="225" on="0"/>
        <pt x="74" y="227" on="1"/>
      </contour>
    </TTGlyph>
    <TTGlyph name="asterisk" xMin="21" yMin="436" xMax="274" yMax="709">
      <contour>
        <pt x="69" y="436" on="0"/>
        <pt x="54" y="448" on="0"/>
        <pt x="54" y="455" on="1"/>
        <pt x="54" y="460" on="0"/>
        <pt x="59" y="468" on="1"/>
        <pt x="116" y="559" on="1"/>
        <pt x="35" y="591" on="1"/>
        <pt x="21" y="597" on="0"/>
        <pt x="21" y="606" on="1"/>
        <pt x="21" y="617" on="0"/>
        <pt x="32" y="630" on="0"/>
        <pt x="39" y="630" on="1"/>
        <pt x="47" y="630" on="0"/>
        <pt x="51" y="627" on="1"/>
        <pt x="128" y="598" on="1"/>
        <pt x="128" y="689" on="1"/>
        <pt x="128" y="709" on="0"/>
        <pt x="148" y="709" on="1"/>
        <pt x="168" y="709" on="0"/>
        <pt x="168" y="689" on="1"/>
        <pt x="168" y="598" on="1"/>
        <pt x="244" y="627" on="1"/>
        <pt x="248" y="630" on="0"/>
        <pt x="256" y="630" on="1"/>
        <pt x="263" y="630" on="0"/>
        <pt x="274" y="618" on="0"/>
        <pt x="274" y="607" on="1"/>
        <pt x="274" y="601" on="0"/>
        <pt x="268" y="594" on="0"/>
        <pt x="260" y="591" on="1"/>
        <pt x="178" y="559" on="1"/>
        <pt x="236" y="468" on="1"/>
        <pt x="241" y="460" on="0"/>
        <pt x="241" y="455" on="1"/>
        <pt x="241" y="448" on="0"/>
        <pt x="226" y="436" on="0"/>
        <pt x="218" y="436" on="1"/>
        <pt x="209" y="436" on="0"/>
        <pt x="203" y="445" on="1"/>
        <pt x="148" y="531" on="1"/>
        <pt x="92" y="445" on="1"/>
        <pt x="86" y="436" on="0"/>
        <pt x="77" y="436" on="1"/>
      </contour>
    </TTGlyph>
    <TTGlyph name="at" xMin="55" yMin="-126" xMax="727" yMax="705">
      <contour>
        <pt x="527" y="705" on="0"/>
        <pt x="656" y="625" on="0"/>
        <pt x="727" y="475" on="0"/>
        <pt x="727" y="375" on="1"/>
        <pt x="727" y="286" on="0"/>
        <pt x="678" y="139" on="0"/>
        <pt x="591" y="54" on="0"/>
        <pt x="535" y="54" on="1"/>
        <pt x="498" y="54" on="0"/>
        <pt x="454" y="93" on="0"/>
        <pt x="451" y="131" on="1"/>
        <pt x="409" y="54" on="0"/>
        <pt x="337" y="54" on="1"/>
        <pt x="309" y="54" on="0"/>
        <pt x="255" y="87" on="0"/>
        <pt x="217" y="168" on="0"/>
        <pt x="217" y="236" on="1"/>
        <pt x="217" y="314" on="0"/>
        <pt x="261" y="436" on="0"/>
        <pt x="342" y="505" on="0"/>
        <pt x="395" y="505" on="1"/>
        <pt x="425" y="505" on="0"/>
        <pt x="472" y="478" on="0"/>
        <pt x="486" y="461" on="1"/>
        <pt x="495" y="488" on="0"/>
        <pt x="505" y="502" on="0"/>
        <pt x="520" y="502" on="1"/>
        <pt x="526" y="502" on="1"/>
        <pt x="548" y="502" on="0"/>
        <pt x="548" y="481" on="1"/>
        <pt x="539" y="375" on="1"/>
        <pt x="521" y="170" on="0"/>
        <pt x="521" y="146" on="1"/>
        <pt x="521" y="122" on="0"/>
        <pt x="543" y="107" on="0"/>
        <pt x="555" y="107" on="1"/>
        <pt x="585" y="107" on="0"/>
        <pt x="640" y="184" on="0"/>
        <pt x="673" y="309" on="0"/>
        <pt x="673" y="378" on="1"/>
        <pt x="673" y="463" on="0"/>
        <pt x="615" y="592" on="0"/>
        <pt x="509" y="661" on="0"/>
        <pt x="439" y="661" on="1"/>
        <pt x="348" y="661" on="0"/>
        <pt x="197" y="548" on="0"/>
        <pt x="109" y="354" on="0"/>
        <pt x="109" y="236" on="1"/>
        <pt x="109" y="142" on="0"/>
        <pt x="166" y="-2" on="0"/>
        <pt x="270" y="-82" on="0"/>
        <pt x="338" y="-82" on="1"/>
        <pt x="371" y="-82" on="0"/>
        <pt x="415" y="-71" on="0"/>
        <pt x="439" y="-61" on="1"/>
        <pt x="457" y="-53" on="0"/>
        <pt x="464" y="-53" on="1"/>
        <pt x="478" y="-53" on="0"/>
        <pt x="478" y="-76" on="1"/>
        <pt x="478" y="-102" on="0"/>
        <pt x="381" y="-126" on="0"/>
        <pt x="334" y="-126" on="1"/>
        <pt x="252" y="-126" on="0"/>
        <pt x="125" y="-34" on="0"/>
        <pt x="55" y="131" on="0"/>
        <pt x="55" y="237" on="1"/>
        <pt x="55" y="366" on="0"/>
        <pt x="157" y="581" on="0"/>
        <pt x="334" y="705" on="0"/>
        <pt x="442" y="705" on="1"/>
      </contour>
      <contour>
        <pt x="457" y="279" on="0"/>
        <pt x="468" y="396" on="0"/>
        <pt x="473" y="413" on="1"/>
        <pt x="441" y="443" on="0"/>
        <pt x="403" y="443" on="1"/>
        <pt x="341" y="443" on="0"/>
        <pt x="290" y="329" on="0"/>
        <pt x="290" y="241" on="1"/>
        <pt x="290" y="174" on="0"/>
        <pt x="327" y="115" on="0"/>
        <pt x="358" y="115" on="1"/>
        <pt x="383" y="115" on="0"/>
        <pt x="435" y="166" on="0"/>
        <pt x="454" y="225" on="1"/>
      </contour>
    </TTGlyph>
    <TTGlyph name="atilde" xMin="51" yMin="-6" xMax="416" yMax="691">
      <component glyphName="a" x="0" y="0" flags="0x0"/>
      <component glyphName="tildecomb" x="238" y="0" flags="0x0"/>
    </TTGlyph>
    <TTGlyph name="b" xMin="78" yMin="-6" xMax="435" yMax="752">
      <contour>
        <pt x="243" y="-6" on="0"/>
        <pt x="181" y="32" on="0"/>
        <pt x="158" y="69" on="1"/>
        <pt x="148" y="10" on="1"/>
        <pt x="143" y="-2" on="0"/>
        <pt x="117" y="-2" on="1"/>
        <pt x="111" y="-2" on="1"/>
        <pt x="78" y="-2" on="0"/>
        <pt x="78" y="20" on="1"/>
        <pt x="78" y="730" on="1"/>
        <pt x="78" y="752" on="0"/>
        <pt x="116" y="752" on="1"/>
        <pt x="127" y="752" on="1"/>
        <pt x="164" y="752" on="0"/>
        <pt x="164" y="730" on="1"/>
        <pt x="164" y="478" on="1"/>
        <pt x="186" y="503" on="0"/>
        <pt x="235" y="529" on="0"/>
        <pt x="270" y="529" on="1"/>
        <pt x="345" y="529" on="0"/>
        <pt x="435" y="390" on="0"/>
        <pt x="435" y="265" on="1"/>
        <pt x="435" y="185" on="0"/>
        <pt x="396" y="62" on="0"/>
        <pt x="325" y="-6" on="0"/>
        <pt x="278" y="-6" on="1"/>
      </contour>
      <contour>
        <pt x="300" y="67" on="0"/>
        <pt x="345" y="171" on="0"/>
        <pt x="345" y="266" on="1"/>
        <pt x="345" y="455" on="0"/>
        <pt x="249" y="455" on="1"/>
        <pt x="199" y="455" on="0"/>
        <pt x="164" y="410" on="1"/>
        <pt x="164" y="136" on="1"/>
        <pt x="183" y="103" on="0"/>
        <pt x="232" y="67" on="0"/>
        <pt x="257" y="67" on="1"/>
      </contour>
    </TTGlyph>
    <TTGlyph name="backslash" xMin="2" yMin="-20" xMax="282" yMax="702">
      <contour>
        <pt x="226" y="-20" on="0"/>
        <pt x="220" y="1" on="1"/>
        <pt x="5" y="668" on="1"/>
        <pt x="2" y="677" on="0"/>
        <pt x="2" y="684" on="1"/>
        <pt x="2" y="702" on="0"/>
        <pt x="24" y="702" on="1"/>
        <pt x="35" y="702" on="1"/>
        <pt x="57" y="702" on="0"/>
        <pt x="64" y="681" on="1"/>
        <pt x="280" y="11" on="1"/>
        <pt x="282" y="3" on="0"/>
        <pt x="282" y="-2" on="1"/>
        <pt x="282" y="-10" on="0"/>
        <pt x="270" y="-20" on="0"/>
        <pt x="259" y="-20" on="1"/>
        <pt x="248" y="-20" on="1"/>
      </contour>
    </TTGlyph>
    <TTGlyph name="bar" xMin="69" yMin="-140" xMax="132" yMax="770">
      <contour>
        <pt x="69" y="-140" on="0"/>
        <pt x="69" y="-118" on="1"/>
        <pt x="69" y="748" on="1"/>
        <pt x="69" y="770" on="0"/>
        <pt x="96" y="770" on="1"/>
        <pt x="105" y="770" on="1"/>
        <pt x="132" y="770" on="0"/>
        <pt x="132" y="748" on="1"/>
        <pt x="132" y="-118" on="1"/>
        <pt x="132" y="-140" on="0"/>
        <pt x="105" y="-140" on="1"/>
        <pt x="96" y="-140" on="1"/>
      </contour>
    </TTGlyph>
    <TTGlyph name="braceleft" xMin="17" yMin="-138" xMax="230" yMax="768">
      <contour>
        <pt x="137" y="-138" on="0"/>
        <pt x="87" y="-86" on="0"/>
        <pt x="87" y="-22" on="1"/>
        <pt x="87" y="156" on="1"/>
        <pt x="87" y="207" on="0"/>
        <pt x="69" y="261" on="0"/>
        <pt x="42" y="274" on="1"/>
        <pt x="29" y="280" on="0"/>
        <pt x="17" y="295" on="0"/>
        <pt x="17" y="308" on="1"/>
        <pt x="17" y="322" on="1"/>
        <pt x="17" y="335" on="0"/>
        <pt x="29" y="350" on="0"/>
        <pt x="42" y="356" on="1"/>
        <pt x="69" y="369" on="0"/>
        <pt x="87" y="423" on="0"/>
        <pt x="87" y="474" on="1"/>
        <pt x="87" y="652" on="1"/>
        <pt x="87" y="715" on="0"/>
        <pt x="137" y="768" on="0"/>
        <pt x="165" y="768" on="1"/>
        <pt x="210" y="768" on="1"/>
        <pt x="221" y="768" on="0"/>
        <pt x="230" y="755" on="0"/>
        <pt x="230" y="739" on="1"/>
        <pt x="230" y="735" on="1"/>
        <pt x="230" y="719" on="0"/>
        <pt x="221" y="706" on="0"/>
        <pt x="210" y="706" on="1"/>
        <pt x="193" y="706" on="1"/>
        <pt x="173" y="706" on="0"/>
        <pt x="159" y="677" on="0"/>
        <pt x="159" y="645" on="1"/>
        <pt x="159" y="458" on="1"/>
        <pt x="159" y="400" on="0"/>
        <pt x="112" y="331" on="0"/>
        <pt x="87" y="314" on="1"/>
        <pt x="98" y="309" on="0"/>
        <pt x="132" y="276" on="0"/>
        <pt x="159" y="214" on="0"/>
        <pt x="159" y="172" on="1"/>
        <pt x="159" y="-14" on="1"/>
        <pt x="159" y="-46" on="0"/>
        <pt x="173" y="-76" on="0"/>
        <pt x="193" y="-76" on="1"/>
        <pt x="210" y="-76" on="1"/>
        <pt x="221" y="-76" on="0"/>
        <pt x="230" y="-89" on="0"/>
        <pt x="230" y="-105" on="1"/>
        <pt x="230" y="-109" on="1"/>
        <pt x="230" y="-125" on="0"/>
        <pt x="221" y="-138" on="0"/>
        <pt x="210" y="-138" on="1"/>
        <pt x="165" y="-138" on="1"/>
      </contour>
    </TTGlyph>
    <TTGlyph name="braceright" xMin="21" yMin="-138" xMax="234" yMax="768">
      <contour>
        <pt x="30" y="-138" on="0"/>
        <pt x="21" y="-125" on="0"/>
        <pt x="21" y="-109" on="1"/>
        <pt x="21" y="-105" on="1"/>
        <pt x="21" y="-89" on="0"/>
        <pt x="30" y="-76" on="0"/>
        <pt x="41" y="-76" on="1"/>
        <pt x="57" y="-76" on="1"/>
        <pt x="77" y="-76" on="0"/>
        <pt x="91" y="-46" on="0"/>
        <pt x="91" y="-14" on="1"/>
        <pt x="91" y="172" on="1"/>
        <pt x="91" y="214" on="0"/>
        <pt x="119" y="276" on="0"/>
        <pt x="153" y="309" on="0"/>
        <pt x="164" y="314" on="1"/>
        <pt x="139" y="331" on="0"/>
        <pt x="91" y="400" on="0"/>
        <pt x="91" y="458" on="1"/>
        <pt x="91" y="645" on="1"/>
        <pt x="91" y="677" on="0"/>
        <pt x="77" y="706" on="0"/>
        <pt x="57" y="706" on="1"/>
        <pt x="41" y="706" on="1"/>
        <pt x="30" y="706" on="0"/>
        <pt x="21" y="719" on="0"/>
        <pt x="21" y="735" on="1"/>
        <pt x="21" y="739" on="1"/>
        <pt x="21" y="755" on="0"/>
        <pt x="30" y="768" on="0"/>
        <pt x="41" y="768" on="1"/>
        <pt x="85" y="768" on="1"/>
        <pt x="113" y="768" on="0"/>
        <pt x="163" y="715" on="0"/>
        <pt x="163" y="652" on="1"/>
        <pt x="163" y="474" on="1"/>
        <pt x="163" y="423" on="0"/>
        <pt x="182" y="369" on="0"/>
        <pt x="209" y="356" on="1"/>
        <pt x="222" y="350" on="0"/>
        <pt x="234" y="335" on="0"/>
        <pt x="234" y="322" on="1"/>
        <pt x="234" y="308" on="1"/>
        <pt x="234" y="295" on="0"/>
        <pt x="222" y="280" on="0"/>
        <pt x="209" y="274" on="1"/>
        <pt x="182" y="261" on="0"/>
        <pt x="163" y="206" on="0"/>
        <pt x="163" y="156" on="1"/>
        <pt x="163" y="-22" on="1"/>
        <pt x="163" y="-86" on="0"/>
        <pt x="113" y="-138" on="0"/>
        <pt x="85" y="-138" on="1"/>
        <pt x="41" y="-138" on="1"/>
      </contour>
    </TTGlyph>
    <TTGlyph name="bracketleft" xMin="67" yMin="-138" xMax="215" yMax="768">
      <contour>
        <pt x="80" y="-138" on="0"/>
        <pt x="67" y="-124" on="0"/>
        <pt x="67" y="-108" on="1"/>
        <pt x="67" y="738" on="1"/>
        <pt x="67" y="754" on="0"/>
        <pt x="80" y="768" on="0"/>
        <pt x="94" y="768" on="1"/>
        <pt x="196" y="768" on="1"/>
        <pt x="206" y="768" on="0"/>
        <pt x="215" y="755" on="0"/>
        <pt x="215" y="739" on="1"/>
        <pt x="215" y="734" on="1"/>
        <pt x="215" y="718" on="0"/>
        <pt x="206" y="705" on="0"/>
        <pt x="196" y="705" on="1"/>
        <pt x="139" y="705" on="1"/>
        <pt x="139" y="-76" on="1"/>
        <pt x="196" y="-76" on="1"/>
        <pt x="206" y="-76" on="0"/>
        <pt x="215" y="-89" on="0"/>
        <pt x="215" y="-105" on="1"/>
        <pt x="215" y="-109" on="1"/>
        <pt x="215" y="-125" on="0"/>
        <pt x="206" y="-138" on="0"/>
        <pt x="196" y="-138" on="1"/>
        <pt x="94" y="-138" on="1"/>
      </contour>
    </TTGlyph>
    <TTGlyph name="bracketright" xMin="24" yMin="-138" xMax="172" yMax="768">
      <contour>
        <pt x="33" y="-138" on="0"/>
        <pt x="24" y="-125" on="0"/>
        <pt x="24" y="-109" on="1"/>
        <pt x="24" y="-105" on="1"/>
        <pt x="24" y="-89" on="0"/>
        <pt x="33" y="-76" on="0"/>
        <pt x="43" y="-76" on="1"/>
        <pt x="101" y="-76" on="1"/>
        <pt x="101" y="705" on="1"/>
        <pt x="43" y="705" on="1"/>
        <pt x="33" y="705" on="0"/>
        <pt x="24" y="718" on="0"/>
        <pt x="24" y="734" on="1"/>
        <pt x="24" y="739" on="1"/>
        <pt x="24" y="755" on="0"/>
        <pt x="33" y="768" on="0"/>
        <pt x="43" y="768" on="1"/>
        <pt x="146" y="768" on="1"/>
        <pt x="160" y="768" on="0"/>
        <pt x="172" y="754" on="0"/>
        <pt x="172" y="738" on="1"/>
        <pt x="172" y="-108" on="1"/>
        <pt x="172" y="-124" on="0"/>
        <pt x="160" y="-138" on="0"/>
        <pt x="146" y="-138" on="1"/>
        <pt x="43" y="-138" on="1"/>
      </contour>
    </TTGlyph>
    <TTGlyph name="breve" xMin="10" yMin="585" xMax="243" yMax="715">
      <contour>
        <pt x="77" y="585" on="0"/>
        <pt x="10" y="645" on="0"/>
        <pt x="10" y="700" on="1"/>
        <pt x="10" y="715" on="0"/>
        <pt x="28" y="715" on="1"/>
        <pt x="35" y="715" on="0"/>
        <pt x="42" y="708" on="0"/>
        <pt x="47" y="694" on="0"/>
        <pt x="49" y="690" on="1"/>
        <pt x="64" y="651" on="0"/>
        <pt x="127" y="651" on="1"/>
        <pt x="190" y="651" on="0"/>
        <pt x="205" y="690" on="1"/>
        <pt x="206" y="693" on="0"/>
        <pt x="212" y="709" on="0"/>
        <pt x="219" y="715" on="0"/>
        <pt x="225" y="715" on="1"/>
        <pt x="243" y="715" on="0"/>
        <pt x="243" y="700" on="1"/>
        <pt x="243" y="645" on="0"/>
        <pt x="176" y="585" on="0"/>
        <pt x="127" y="585" on="1"/>
      </contour>
    </TTGlyph>
    <TTGlyph name="brokenbar" xMin="69" yMin="-140" xMax="132" yMax="770">
      <contour>
        <pt x="69" y="403" on="0"/>
        <pt x="69" y="425" on="1"/>
        <pt x="69" y="748" on="1"/>
        <pt x="69" y="770" on="0"/>
        <pt x="96" y="770" on="1"/>
        <pt x="105" y="770" on="1"/>
        <pt x="132" y="770" on="0"/>
        <pt x="132" y="748" on="1"/>
        <pt x="132" y="425" on="1"/>
        <pt x="132" y="403" on="0"/>
        <pt x="105" y="403" on="1"/>
        <pt x="96" y="403" on="1"/>
      </contour>
      <contour>
        <pt x="69" y="-140" on="0"/>
        <pt x="69" y="-118" on="1"/>
        <pt x="69" y="204" on="1"/>
        <pt x="69" y="226" on="0"/>
        <pt x="96" y="226" on="1"/>
        <pt x="105" y="226" on="1"/>
        <pt x="132" y="226" on="0"/>
        <pt x="132" y="204" on="1"/>
        <pt x="132" y="-118" on="1"/>
        <pt x="132" y="-140" on="0"/>
        <pt x="105" y="-140" on="1"/>
        <pt x="96" y="-140" on="1"/>
      </contour>
    </TTGlyph>
    <TTGlyph name="bullet" xMin="33" yMin="203" xMax="263" yMax="450">
      <contour>
        <pt x="98" y="203" on="0"/>
        <pt x="33" y="266" on="0"/>
        <pt x="33" y="326" on="1"/>
        <pt x="33" y="386" on="0"/>
        <pt x="98" y="450" on="0"/>
        <pt x="148" y="450" on="1"/>
        <pt x="198" y="450" on="0"/>
        <pt x="263" y="386" on="0"/>
        <pt x="263" y="326" on="1"/>
        <pt x="263" y="266" on="0"/>
        <pt x="198" y="203" on="0"/>
        <pt x="148" y="203" on="1"/>
      </contour>
    </TTGlyph>
    <TTGlyph name="c" xMin="46" yMin="-6" xMax="387" yMax="529">
      <contour>
        <pt x="149" y="-6" on="0"/>
        <pt x="46" y="122" on="0"/>
        <pt x="46" y="264" on="1"/>
        <pt x="46" y="411" on="0"/>
        <pt x="155" y="529" on="0"/>
        <pt x="253" y="529" on="1"/>
        <pt x="299" y="529" on="0"/>
        <pt x="378" y="501" on="0"/>
        <pt x="378" y="483" on="1"/>
        <pt x="378" y="471" on="0"/>
        <pt x="355" y="429" on="0"/>
        <pt x="347" y="429" on="1"/>
        <pt x="346" y="429" on="0"/>
        <pt x="336" y="433" on="1"/>
        <pt x="294" y="457" on="0"/>
        <pt x="255" y="457" on="1"/>
        <pt x="196" y="457" on="0"/>
        <pt x="137" y="368" on="0"/>
        <pt x="137" y="266" on="1"/>
        <pt x="137" y="160" on="0"/>
        <pt x="193" y="66" on="0"/>
        <pt x="258" y="66" on="1"/>
        <pt x="304" y="66" on="0"/>
        <pt x="341" y="88" on="1"/>
        <pt x="345" y="90" on="0"/>
        <pt x="352" y="95" on="0"/>
        <pt x="354" y="96" on="1"/>
        <pt x="364" y="96" on="0"/>
        <pt x="387" y="57" on="0"/>
        <pt x="387" y="45" on="1"/>
        <pt x="387" y="34" on="0"/>
        <pt x="344" y="10" on="0"/>
        <pt x="282" y="-6" on="0"/>
        <pt x="256" y="-6" on="1"/>
      </contour>
    </TTGlyph>
    <TTGlyph name="cacute" xMin="46" yMin="-6" xMax="387" yMax="732">
      <component glyphName="c" x="0" y="0" flags="0x0"/>
      <component glyphName="acutecomb" x="371" y="0" flags="0x0"/>
    </TTGlyph>
    <TTGlyph name="cacute.loclPLK" xMin="46" yMin="-6" xMax="387" yMax="732">
      <component glyphName="c" x="0" y="0" flags="0x0"/>
      <component glyphName="acute.loclPLK" x="146" y="0" flags="0x0"/>
    </TTGlyph>
    <TTGlyph name="caron" xMin="17" yMin="583" xMax="234" yMax="725">
      <contour>
        <pt x="89" y="583" on="0"/>
        <pt x="76" y="605" on="1"/>
        <pt x="24" y="693" on="1"/>
        <pt x="17" y="705" on="0"/>
        <pt x="17" y="711" on="1"/>
        <pt x="17" y="717" on="0"/>
        <pt x="27" y="725" on="0"/>
        <pt x="36" y="725" on="1"/>
        <pt x="55" y="725" on="1"/>
        <pt x="71" y="725" on="0"/>
        <pt x="81" y="710" on="1"/>
        <pt x="125" y="638" on="1"/>
        <pt x="170" y="710" on="1"/>
        <pt x="179" y="725" on="0"/>
        <pt x="195" y="725" on="1"/>
        <pt x="215" y="725" on="1"/>
        <pt x="224" y="725" on="0"/>
        <pt x="234" y="717" on="0"/>
        <pt x="234" y="710" on="1"/>
        <pt x="234" y="705" on="0"/>
        <pt x="228" y="693" on="1"/>
        <pt x="174" y="605" on="1"/>
        <pt x="161" y="583" on="0"/>
        <pt x="133" y="583" on="1"/>
        <pt x="118" y="583" on="1"/>
      </contour>
    </TTGlyph>
    <TTGlyph name="caron.alt" xMin="49" yMin="526" xMax="151" yMax="700">
      <contour>
        <pt x="67" y="526" on="0"/>
        <pt x="49" y="533" on="0"/>
        <pt x="49" y="541" on="1"/>
        <pt x="49" y="547" on="0"/>
        <pt x="53" y="569" on="1"/>
        <pt x="62" y="619" on="0"/>
        <pt x="62" y="668" on="1"/>
        <pt x="62" y="683" on="0"/>
        <pt x="82" y="700" on="0"/>
        <pt x="102" y="700" on="1"/>
        <pt x="111" y="700" on="1"/>
        <pt x="130" y="700" on="0"/>
        <pt x="151" y="685" on="0"/>
        <pt x="151" y="672" on="1"/>
        <pt x="151" y="630" on="0"/>
        <pt x="126" y="563" on="0"/>
        <pt x="91" y="526" on="0"/>
        <pt x="78" y="526" on="1"/>
      </contour>
    </TTGlyph>
    <TTGlyph name="ccaron" xMin="46" yMin="-6" xMax="387" yMax="725">
      <component glyphName="c" x="0" y="0" flags="0x0"/>
      <component glyphName="uni030C" x="234" y="0" flags="0x0"/>
    </TTGlyph>
    <TTGlyph name="ccedilla" xMin="46" yMin="-210" xMax="387" yMax="529">
      <contour>
        <pt x="387" y="30" on="0"/>
        <pt x="309" y="-3" on="0"/>
        <pt x="268" y="-6" on="1"/>
        <pt x="253" y="-60" on="1"/>
        <pt x="280" y="-60" on="0"/>
        <pt x="327" y="-89" on="0"/>
        <pt x="327" y="-127" on="1"/>
        <pt x="327" y="-210" on="0"/>
        <pt x="231" y="-210" on="1"/>
        <pt x="199" y="-210" on="0"/>
        <pt x="137" y="-186" on="0"/>
        <pt x="137" y="-167" on="1"/>
        <pt x="137" y="-158" on="0"/>
        <pt x="149" y="-141" on="0"/>
        <pt x="156" y="-141" on="1"/>
        <pt x="163" y="-141" on="0"/>
        <pt x="179" y="-148" on="1"/>
        <pt x="205" y="-161" on="0"/>
        <pt x="225" y="-161" on="1"/>
        <pt x="239" y="-161" on="0"/>
        <pt x="261" y="-146" on="0"/>
        <pt x="261" y="-132" on="1"/>
        <pt x="261" y="-117" on="0"/>
        <pt x="244" y="-103" on="0"/>
        <pt x="228" y="-98" on="1"/>
        <pt x="217" y="-94" on="0"/>
        <pt x="206" y="-86" on="0"/>
        <pt x="206" y="-79" on="1"/>
        <pt x="206" y="-72" on="0"/>
        <pt x="215" y="-40" on="0"/>
        <pt x="227" y="-5" on="1"/>
        <pt x="135" y="3" on="0"/>
        <pt x="46" y="131" on="0"/>
        <pt x="46" y="264" on="1"/>
        <pt x="46" y="411" on="0"/>
        <pt x="155" y="529" on="0"/>
        <pt x="253" y="529" on="1"/>
        <pt x="299" y="529" on="0"/>
        <pt x="378" y="501" on="0"/>
        <pt x="378" y="483" on="1"/>
        <pt x="378" y="471" on="0"/>
        <pt x="355" y="429" on="0"/>
        <pt x="347" y="429" on="1"/>
        <pt x="346" y="429" on="0"/>
        <pt x="336" y="433" on="1"/>
        <pt x="294" y="457" on="0"/>
        <pt x="255" y="457" on="1"/>
        <pt x="196" y="457" on="0"/>
        <pt x="137" y="368" on="0"/>
        <pt x="137" y="266" on="1"/>
        <pt x="137" y="160" on="0"/>
        <pt x="193" y="66" on="0"/>
        <pt x="258" y="66" on="1"/>
        <pt x="304" y="66" on="0"/>
        <pt x="341" y="88" on="1"/>
        <pt x="345" y="90" on="0"/>
        <pt x="352" y="95" on="0"/>
        <pt x="354" y="96" on="1"/>
        <pt x="364" y="96" on="0"/>
        <pt x="387" y="57" on="0"/>
        <pt x="387" y="45" on="1"/>
      </contour>
    </TTGlyph>
    <TTGlyph name="ccircumflex" xMin="46" yMin="-6" xMax="387" yMax="718">
      <component glyphName="c" x="0" y="0" flags="0x0"/>
      <component glyphName="uni0302" x="236" y="0" flags="0x0"/>
    </TTGlyph>
    <TTGlyph name="cdotaccent" xMin="46" yMin="-6" xMax="387" yMax="702">
      <component glyphName="c" x="0" y="0" flags="0x0"/>
      <component glyphName="uni0307" x="238" y="0" flags="0x0"/>
    </TTGlyph>
    <TTGlyph name="cedilla" xMin="31" yMin="-210" xMax="221" yMax="0">
      <contour>
        <pt x="174" y="-60" on="0"/>
        <pt x="221" y="-89" on="0"/>
        <pt x="221" y="-127" on="1"/>
        <pt x="221" y="-210" on="0"/>
        <pt x="125" y="-210" on="1"/>
        <pt x="93" y="-210" on="0"/>
        <pt x="31" y="-186" on="0"/>
        <pt x="31" y="-167" on="1"/>
        <pt x="31" y="-158" on="0"/>
        <pt x="43" y="-141" on="0"/>
        <pt x="50" y="-141" on="1"/>
        <pt x="57" y="-141" on="0"/>
        <pt x="73" y="-148" on="1"/>
        <pt x="99" y="-161" on="0"/>
        <pt x="119" y="-161" on="1"/>
        <pt x="133" y="-161" on="0"/>
        <pt x="155" y="-146" on="0"/>
        <pt x="155" y="-132" on="1"/>
        <pt x="155" y="-117" on="0"/>
        <pt x="138" y="-103" on="0"/>
        <pt x="122" y="-98" on="1"/>
        <pt x="111" y="-94" on="0"/>
        <pt x="100" y="-86" on="0"/>
        <pt x="100" y="-79" on="1"/>
        <pt x="100" y="-72" on="0"/>
        <pt x="110" y="-38" on="0"/>
        <pt x="123" y="0" on="1"/>
        <pt x="164" y="0" on="1"/>
        <pt x="147" y="-60" on="1"/>
      </contour>
    </TTGlyph>
    <TTGlyph name="cent" xMin="46" yMin="-75" xMax="387" yMax="583">
      <contour>
        <pt x="364" y="96" on="0"/>
        <pt x="387" y="57" on="0"/>
        <pt x="387" y="45" on="1"/>
        <pt x="387" y="34" on="0"/>
        <pt x="344" y="10" on="0"/>
        <pt x="282" y="-6" on="0"/>
        <pt x="256" y="-6" on="1"/>
        <pt x="251" y="-6" on="1"/>
        <pt x="251" y="-59" on="1"/>
        <pt x="251" y="-75" on="0"/>
        <pt x="232" y="-75" on="1"/>
        <pt x="213" y="-75" on="0"/>
        <pt x="213" y="-59" on="1"/>
        <pt x="213" y="-3" on="1"/>
        <pt x="128" y="8" on="0"/>
        <pt x="46" y="137" on="0"/>
        <pt x="46" y="264" on="1"/>
        <pt x="46" y="395" on="0"/>
        <pt x="133" y="516" on="0"/>
        <pt x="213" y="527" on="1"/>
        <pt x="213" y="567" on="1"/>
        <pt x="213" y="583" on="0"/>
        <pt x="232" y="583" on="1"/>
        <pt x="251" y="583" on="0"/>
        <pt x="251" y="567" on="1"/>
        <pt x="251" y="529" on="1"/>
        <pt x="253" y="529" on="1"/>
        <pt x="299" y="529" on="0"/>
        <pt x="378" y="501" on="0"/>
        <pt x="378" y="483" on="1"/>
        <pt x="378" y="471" on="0"/>
        <pt x="355" y="429" on="0"/>
        <pt x="347" y="429" on="1"/>
        <pt x="346" y="429" on="0"/>
        <pt x="336" y="433" on="1"/>
        <pt x="294" y="457" on="0"/>
        <pt x="255" y="457" on="1"/>
        <pt x="251" y="457" on="1"/>
        <pt x="251" y="66" on="1"/>
        <pt x="258" y="66" on="1"/>
        <pt x="304" y="66" on="0"/>
        <pt x="341" y="88" on="1"/>
        <pt x="345" y="90" on="0"/>
        <pt x="352" y="95" on="0"/>
        <pt x="354" y="96" on="1"/>
      </contour>
      <contour>
        <pt x="137" y="180" on="0"/>
        <pt x="172" y="87" on="0"/>
        <pt x="213" y="73" on="1"/>
        <pt x="213" y="450" on="1"/>
        <pt x="175" y="437" on="0"/>
        <pt x="137" y="348" on="0"/>
        <pt x="137" y="266" on="1"/>
      </contour>
    </TTGlyph>
    <TTGlyph name="circumflex" xMin="17" yMin="576" xMax="234" yMax="718">
      <contour>
        <pt x="27" y="576" on="0"/>
        <pt x="17" y="584" on="0"/>
        <pt x="17" y="589" on="1"/>
        <pt x="17" y="594" on="0"/>
        <pt x="24" y="608" on="1"/>
        <pt x="76" y="696" on="1"/>
        <pt x="90" y="718" on="0"/>
        <pt x="118" y="718" on="1"/>
        <pt x="133" y="718" on="1"/>
        <pt x="160" y="718" on="0"/>
        <pt x="174" y="696" on="1"/>
        <pt x="228" y="608" on="1"/>
        <pt x="234" y="596" on="0"/>
        <pt x="234" y="591" on="1"/>
        <pt x="234" y="584" on="0"/>
        <pt x="224" y="576" on="0"/>
        <pt x="215" y="576" on="1"/>
        <pt x="195" y="576" on="1"/>
        <pt x="179" y="576" on="0"/>
        <pt x="170" y="590" on="1"/>
        <pt x="125" y="663" on="1"/>
        <pt x="81" y="590" on="1"/>
        <pt x="70" y="576" on="0"/>
        <pt x="55" y="576" on="1"/>
        <pt x="36" y="576" on="1"/>
      </contour>
    </TTGlyph>
    <TTGlyph name="colon" xMin="47" yMin="-2" xMax="141" yMax="525">
      <contour>
        <pt x="47" y="415" on="0"/>
        <pt x="47" y="437" on="1"/>
        <pt x="47" y="503" on="1"/>
        <pt x="47" y="525" on="0"/>
        <pt x="85" y="525" on="1"/>
        <pt x="103" y="525" on="1"/>
        <pt x="141" y="525" on="0"/>
        <pt x="141" y="503" on="1"/>
        <pt x="141" y="437" on="1"/>
        <pt x="141" y="415" on="0"/>
        <pt x="103" y="415" on="1"/>
        <pt x="85" y="415" on="1"/>
      </contour>
      <contour>
        <pt x="47" y="-2" on="0"/>
        <pt x="47" y="20" on="1"/>
        <pt x="47" y="86" on="1"/>
        <pt x="47" y="108" on="0"/>
        <pt x="85" y="108" on="1"/>
        <pt x="103" y="108" on="1"/>
        <pt x="141" y="108" on="0"/>
        <pt x="141" y="86" on="1"/>
        <pt x="141" y="20" on="1"/>
        <pt x="141" y="-2" on="0"/>
        <pt x="103" y="-2" on="1"/>
        <pt x="85" y="-2" on="1"/>
      </contour>
    </TTGlyph>
    <TTGlyph name="comma" xMin="19" yMin="-116" xMax="140" yMax="108">
      <contour>
        <pt x="36" y="-116" on="0"/>
        <pt x="19" y="-109" on="0"/>
        <pt x="19" y="-101" on="1"/>
        <pt x="19" y="-97" on="0"/>
        <pt x="25" y="-80" on="0"/>
        <pt x="26" y="-77" on="1"/>
        <pt x="39" y="-38" on="0"/>
        <pt x="54" y="34" on="0"/>
        <pt x="54" y="76" on="1"/>
        <pt x="54" y="91" on="0"/>
        <pt x="73" y="108" on="0"/>
        <pt x="92" y="108" on="1"/>
        <pt x="102" y="108" on="1"/>
        <pt x="120" y="108" on="0"/>
        <pt x="140" y="93" on="0"/>
        <pt x="140" y="80" on="1"/>
        <pt x="140" y="24" on="0"/>
        <pt x="108" y="-65" on="0"/>
        <pt x="63" y="-116" on="0"/>
        <pt x="47" y="-116" on="1"/>
      </contour>
    </TTGlyph>
    <TTGlyph name="copyright" xMin="9" yMin="-5" xMax="583" yMax="710">
      <contour>
        <pt x="216" y="-5" on="0"/>
        <pt x="85" y="80" on="0"/>
        <pt x="9" y="243" on="0"/>
        <pt x="9" y="354" on="1"/>
        <pt x="9" y="465" on="0"/>
        <pt x="85" y="626" on="0"/>
        <pt x="215" y="710" on="0"/>
        <pt x="296" y="710" on="1"/>
        <pt x="377" y="710" on="0"/>
        <pt x="507" y="626" on="0"/>
        <pt x="583" y="465" on="0"/>
        <pt x="583" y="354" on="1"/>
        <pt x="583" y="243" on="0"/>
        <pt x="507" y="80" on="0"/>
        <pt x="376" y="-5" on="0"/>
        <pt x="296" y="-5" on="1"/>
      </contour>
      <contour>
        <pt x="362" y="43" on="0"/>
        <pt x="470" y="116" on="0"/>
        <pt x="533" y="257" on="0"/>
        <pt x="533" y="354" on="1"/>
        <pt x="533" y="452" on="0"/>
        <pt x="470" y="591" on="0"/>
        <pt x="362" y="662" on="0"/>
        <pt x="296" y="662" on="1"/>
        <pt x="230" y="662" on="0"/>
        <pt x="122" y="591" on="0"/>
        <pt x="59" y="452" on="0"/>
        <pt x="59" y="354" on="1"/>
        <pt x="59" y="257" on="0"/>
        <pt x="122" y="116" on="0"/>
        <pt x="230" y="43" on="0"/>
        <pt x="296" y="43" on="1"/>
      </contour>
      <contour>
        <pt x="231" y="137" on="0"/>
        <pt x="157" y="241" on="0"/>
        <pt x="157" y="349" on="1"/>
        <pt x="157" y="562" on="0"/>
        <pt x="310" y="562" on="1"/>
        <pt x="343" y="562" on="0"/>
        <pt x="402" y="537" on="0"/>
        <pt x="402" y="525" on="1"/>
        <pt x="402" y="517" on="0"/>
        <pt x="387" y="490" on="0"/>
        <pt x="381" y="490" on="1"/>
        <pt x="380" y="490" on="0"/>
        <pt x="344" y="517" on="0"/>
        <pt x="310" y="517" on="1"/>
        <pt x="259" y="517" on="0"/>
        <pt x="210" y="436" on="0"/>
        <pt x="210" y="349" on="1"/>
        <pt x="210" y="263" on="0"/>
        <pt x="258" y="182" on="0"/>
        <pt x="308" y="182" on="1"/>
        <pt x="331" y="182" on="0"/>
        <pt x="364" y="196" on="0"/>
        <pt x="385" y="212" on="0"/>
        <pt x="387" y="212" on="1"/>
        <pt x="394" y="212" on="0"/>
        <pt x="408" y="187" on="0"/>
        <pt x="408" y="180" on="1"/>
        <pt x="408" y="172" on="0"/>
        <pt x="378" y="151" on="0"/>
        <pt x="331" y="137" on="0"/>
        <pt x="308" y="137" on="1"/>
      </contour>
    </TTGlyph>
    <TTGlyph name="currency" xMin="60" yMin="143" xMax="399" yMax="501">
      <contour>
        <pt x="79" y="143" on="0"/>
        <pt x="70" y="152" on="1"/>
        <pt x="68" y="154" on="1"/>
        <pt x="60" y="162" on="0"/>
        <pt x="60" y="171" on="1"/>
        <pt x="60" y="182" on="0"/>
        <pt x="71" y="193" on="1"/>
        <pt x="101" y="223" on="1"/>
        <pt x="75" y="266" on="0"/>
        <pt x="75" y="322" on="1"/>
        <pt x="75" y="379" on="0"/>
        <pt x="101" y="422" on="1"/>
        <pt x="71" y="450" on="1"/>
        <pt x="61" y="460" on="0"/>
        <pt x="61" y="472" on="1"/>
        <pt x="61" y="481" on="0"/>
        <pt x="67" y="488" on="1"/>
        <pt x="71" y="493" on="1"/>
        <pt x="77" y="501" on="0"/>
        <pt x="87" y="501" on="1"/>
        <pt x="98" y="501" on="0"/>
        <pt x="109" y="489" on="1"/>
        <pt x="134" y="464" on="1"/>
        <pt x="177" y="500" on="0"/>
        <pt x="229" y="500" on="1"/>
        <pt x="281" y="500" on="0"/>
        <pt x="324" y="465" on="1"/>
        <pt x="349" y="490" on="1"/>
        <pt x="359" y="500" on="0"/>
        <pt x="369" y="500" on="1"/>
        <pt x="379" y="500" on="0"/>
        <pt x="388" y="491" on="1"/>
        <pt x="390" y="489" on="1"/>
        <pt x="399" y="480" on="0"/>
        <pt x="399" y="472" on="1"/>
        <pt x="399" y="461" on="0"/>
        <pt x="388" y="450" on="1"/>
        <pt x="359" y="421" on="1"/>
        <pt x="385" y="374" on="0"/>
        <pt x="385" y="322" on="1"/>
        <pt x="385" y="269" on="0"/>
        <pt x="359" y="222" on="1"/>
        <pt x="388" y="193" on="1"/>
        <pt x="399" y="182" on="0"/>
        <pt x="399" y="172" on="1"/>
        <pt x="399" y="168" on="0"/>
        <pt x="393" y="157" on="0"/>
        <pt x="389" y="153" on="1"/>
        <pt x="388" y="152" on="1"/>
        <pt x="379" y="143" on="0"/>
        <pt x="370" y="143" on="1"/>
        <pt x="359" y="143" on="0"/>
        <pt x="349" y="154" on="1"/>
        <pt x="324" y="179" on="1"/>
        <pt x="282" y="145" on="0"/>
        <pt x="229" y="145" on="1"/>
        <pt x="177" y="145" on="0"/>
        <pt x="135" y="179" on="1"/>
        <pt x="109" y="153" on="1"/>
        <pt x="99" y="143" on="0"/>
        <pt x="88" y="143" on="1"/>
      </contour>
      <contour>
        <pt x="270" y="206" on="0"/>
        <pt x="323" y="268" on="0"/>
        <pt x="323" y="322" on="1"/>
        <pt x="323" y="376" on="0"/>
        <pt x="270" y="439" on="0"/>
        <pt x="229" y="439" on="1"/>
        <pt x="189" y="439" on="0"/>
        <pt x="136" y="376" on="0"/>
        <pt x="136" y="322" on="1"/>
        <pt x="136" y="268" on="0"/>
        <pt x="189" y="206" on="0"/>
        <pt x="229" y="206" on="1"/>
      </contour>
    </TTGlyph>
    <TTGlyph name="d" xMin="47" yMin="-6" xMax="414" yMax="752">
      <contour>
        <pt x="157" y="-6" on="0"/>
        <pt x="86" y="62" on="0"/>
        <pt x="47" y="184" on="0"/>
        <pt x="47" y="264" on="1"/>
        <pt x="47" y="389" on="0"/>
        <pt x="137" y="529" on="0"/>
        <pt x="212" y="529" on="1"/>
        <pt x="247" y="529" on="0"/>
        <pt x="296" y="503" on="0"/>
        <pt x="318" y="478" on="1"/>
        <pt x="318" y="730" on="1"/>
        <pt x="318" y="752" on="0"/>
        <pt x="355" y="752" on="1"/>
        <pt x="366" y="752" on="1"/>
        <pt x="404" y="752" on="0"/>
        <pt x="404" y="730" on="1"/>
        <pt x="404" y="148" on="1"/>
        <pt x="404" y="85" on="0"/>
        <pt x="414" y="25" on="0"/>
        <pt x="414" y="21" on="1"/>
        <pt x="414" y="10" on="0"/>
        <pt x="371" y="-1" on="0"/>
        <pt x="356" y="-1" on="1"/>
        <pt x="341" y="-1" on="0"/>
        <pt x="330" y="27" on="0"/>
        <pt x="324" y="63" on="0"/>
        <pt x="323" y="69" on="1"/>
        <pt x="300" y="32" on="0"/>
        <pt x="239" y="-6" on="0"/>
        <pt x="204" y="-6" on="1"/>
      </contour>
      <contour>
        <pt x="250" y="67" on="0"/>
        <pt x="299" y="103" on="0"/>
        <pt x="318" y="136" on="1"/>
        <pt x="318" y="410" on="1"/>
        <pt x="284" y="455" on="0"/>
        <pt x="234" y="455" on="1"/>
        <pt x="136" y="455" on="0"/>
        <pt x="136" y="265" on="1"/>
        <pt x="136" y="171" on="0"/>
        <pt x="181" y="67" on="0"/>
        <pt x="225" y="67" on="1"/>
      </contour>
    </TTGlyph>
    <TTGlyph name="dagger" xMin="38" yMin="-140" xMax="389" yMax="702">
      <contour>
        <pt x="177" y="-140" on="0"/>
        <pt x="177" y="-118" on="1"/>
        <pt x="177" y="422" on="1"/>
        <pt x="57" y="422" on="1"/>
        <pt x="38" y="422" on="0"/>
        <pt x="38" y="452" on="1"/>
        <pt x="38" y="472" on="1"/>
        <pt x="38" y="502" on="0"/>
        <pt x="57" y="502" on="1"/>
        <pt x="177" y="502" on="1"/>
        <pt x="177" y="680" on="1"/>
        <pt x="177" y="702" on="0"/>
        <pt x="211" y="702" on="1"/>
        <pt x="217" y="702" on="1"/>
        <pt x="252" y="702" on="0"/>
        <pt x="252" y="680" on="1"/>
        <pt x="252" y="502" on="1"/>
        <pt x="370" y="502" on="1"/>
        <pt x="380" y="502" on="0"/>
        <pt x="389" y="488" on="0"/>
        <pt x="389" y="472" on="1"/>
        <pt x="389" y="452" on="1"/>
        <pt x="389" y="436" on="0"/>
        <pt x="380" y="422" on="0"/>
        <pt x="370" y="422" on="1"/>
        <pt x="252" y="422" on="1"/>
        <pt x="252" y="-118" on="1"/>
        <pt x="252" y="-140" on="0"/>
        <pt x="218" y="-140" on="1"/>
        <pt x="212" y="-140" on="1"/>
      </contour>
    </TTGlyph>
    <TTGlyph name="daggerdbl" xMin="38" yMin="-140" xMax="389" yMax="702">
      <contour>
        <pt x="177" y="-140" on="0"/>
        <pt x="177" y="-118" on="1"/>
        <pt x="177" y="60" on="1"/>
        <pt x="57" y="60" on="1"/>
        <pt x="38" y="60" on="0"/>
        <pt x="38" y="90" on="1"/>
        <pt x="38" y="110" on="1"/>
        <pt x="38" y="140" on="0"/>
        <pt x="57" y="140" on="1"/>
        <pt x="177" y="140" on="1"/>
        <pt x="177" y="422" on="1"/>
        <pt x="57" y="422" on="1"/>
        <pt x="38" y="422" on="0"/>
        <pt x="38" y="452" on="1"/>
        <pt x="38" y="472" on="1"/>
        <pt x="38" y="502" on="0"/>
        <pt x="57" y="502" on="1"/>
        <pt x="177" y="502" on="1"/>
        <pt x="177" y="680" on="1"/>
        <pt x="177" y="702" on="0"/>
        <pt x="211" y="702" on="1"/>
        <pt x="217" y="702" on="1"/>
        <pt x="252" y="702" on="0"/>
        <pt x="252" y="680" on="1"/>
        <pt x="252" y="502" on="1"/>
        <pt x="370" y="502" on="1"/>
        <pt x="380" y="502" on="0"/>
        <pt x="389" y="488" on="0"/>
        <pt x="389" y="472" on="1"/>
        <pt x="389" y="452" on="1"/>
        <pt x="389" y="436" on="0"/>
        <pt x="380" y="422" on="0"/>
        <pt x="370" y="422" on="1"/>
        <pt x="252" y="422" on="1"/>
        <pt x="252" y="140" on="1"/>
        <pt x="370" y="140" on="1"/>
        <pt x="380" y="140" on="0"/>
        <pt x="389" y="126" on="0"/>
        <pt x="389" y="110" on="1"/>
        <pt x="389" y="90" on="1"/>
        <pt x="389" y="74" on="0"/>
        <pt x="380" y="60" on="0"/>
        <pt x="370" y="60" on="1"/>
        <pt x="252" y="60" on="1"/>
        <pt x="252" y="-118" on="1"/>
        <pt x="252" y="-140" on="0"/>
        <pt x="218" y="-140" on="1"/>
        <pt x="212" y="-140" on="1"/>
      </contour>
    </TTGlyph>
    <TTGlyph name="dcaron" xMin="47" yMin="-6" xMax="542" yMax="752">
      <component glyphName="d" x="0" y="0" flags="0x0"/>
      <component glyphName="caron.alt" x="391" y="0" flags="0x0"/>
    </TTGlyph>
    <TTGlyph name="dcroat" xMin="47" yMin="-6" xMax="470" yMax="752">
      <contour>
        <pt x="460" y="668" on="0"/>
        <pt x="470" y="654" on="0"/>
        <pt x="470" y="638" on="1"/>
        <pt x="470" y="628" on="1"/>
        <pt x="470" y="612" on="0"/>
        <pt x="460" y="598" on="0"/>
        <pt x="449" y="598" on="1"/>
        <pt x="404" y="598" on="1"/>
        <pt x="404" y="148" on="1"/>
        <pt x="404" y="85" on="0"/>
        <pt x="414" y="25" on="0"/>
        <pt x="414" y="21" on="1"/>
        <pt x="414" y="10" on="0"/>
        <pt x="371" y="-1" on="0"/>
        <pt x="356" y="-1" on="1"/>
        <pt x="341" y="-1" on="0"/>
        <pt x="330" y="27" on="0"/>
        <pt x="324" y="63" on="0"/>
        <pt x="323" y="69" on="1"/>
        <pt x="300" y="32" on="0"/>
        <pt x="239" y="-6" on="0"/>
        <pt x="204" y="-6" on="1"/>
        <pt x="157" y="-6" on="0"/>
        <pt x="86" y="62" on="0"/>
        <pt x="47" y="184" on="0"/>
        <pt x="47" y="264" on="1"/>
        <pt x="47" y="389" on="0"/>
        <pt x="137" y="529" on="0"/>
        <pt x="212" y="529" on="1"/>
        <pt x="247" y="529" on="0"/>
        <pt x="296" y="503" on="0"/>
        <pt x="318" y="478" on="1"/>
        <pt x="318" y="598" on="1"/>
        <pt x="227" y="598" on="1"/>
        <pt x="206" y="598" on="0"/>
        <pt x="206" y="628" on="1"/>
        <pt x="206" y="638" on="1"/>
        <pt x="206" y="668" on="0"/>
        <pt x="227" y="668" on="1"/>
        <pt x="318" y="668" on="1"/>
        <pt x="318" y="730" on="1"/>
        <pt x="318" y="752" on="0"/>
        <pt x="355" y="752" on="1"/>
        <pt x="366" y="752" on="1"/>
        <pt x="404" y="752" on="0"/>
        <pt x="404" y="730" on="1"/>
        <pt x="404" y="668" on="1"/>
        <pt x="449" y="668" on="1"/>
      </contour>
      <contour>
        <pt x="318" y="410" on="1"/>
        <pt x="284" y="455" on="0"/>
        <pt x="234" y="455" on="1"/>
        <pt x="136" y="455" on="0"/>
        <pt x="136" y="265" on="1"/>
        <pt x="136" y="171" on="0"/>
        <pt x="181" y="67" on="0"/>
        <pt x="225" y="67" on="1"/>
        <pt x="250" y="67" on="0"/>
        <pt x="299" y="103" on="0"/>
        <pt x="318" y="136" on="1"/>
      </contour>
    </TTGlyph>
    <TTGlyph name="degree" xMin="31" yMin="441" xMax="243" yMax="706">
      <contour>
        <pt x="90" y="441" on="0"/>
        <pt x="31" y="513" on="0"/>
        <pt x="31" y="573" on="1"/>
        <pt x="31" y="634" on="0"/>
        <pt x="90" y="706" on="0"/>
        <pt x="137" y="706" on="1"/>
        <pt x="184" y="706" on="0"/>
        <pt x="243" y="634" on="0"/>
        <pt x="243" y="573" on="1"/>
        <pt x="243" y="513" on="0"/>
        <pt x="184" y="441" on="0"/>
        <pt x="137" y="441" on="1"/>
      </contour>
      <contour>
        <pt x="163" y="486" on="0"/>
        <pt x="194" y="532" on="0"/>
        <pt x="194" y="573" on="1"/>
        <pt x="194" y="614" on="0"/>
        <pt x="163" y="661" on="0"/>
        <pt x="136" y="661" on="1"/>
        <pt x="109" y="661" on="0"/>
        <pt x="78" y="614" on="0"/>
        <pt x="78" y="573" on="1"/>
        <pt x="78" y="532" on="0"/>
        <pt x="109" y="486" on="0"/>
        <pt x="136" y="486" on="1"/>
      </contour>
    </TTGlyph>
    <TTGlyph name="dieresis" xMin="27" yMin="607" xMax="231" yMax="702">
      <contour>
        <pt x="27" y="607" on="0"/>
        <pt x="27" y="629" on="1"/>
        <pt x="27" y="680" on="1"/>
        <pt x="27" y="702" on="0"/>
        <pt x="67" y="702" on="1"/>
        <pt x="105" y="702" on="0"/>
        <pt x="105" y="680" on="1"/>
        <pt x="105" y="629" on="1"/>
        <pt x="105" y="607" on="0"/>
        <pt x="65" y="607" on="1"/>
      </contour>
      <contour>
        <pt x="153" y="607" on="0"/>
        <pt x="153" y="629" on="1"/>
        <pt x="153" y="680" on="1"/>
        <pt x="153" y="702" on="0"/>
        <pt x="193" y="702" on="1"/>
        <pt x="231" y="702" on="0"/>
        <pt x="231" y="680" on="1"/>
        <pt x="231" y="629" on="1"/>
        <pt x="231" y="607" on="0"/>
        <pt x="191" y="607" on="1"/>
      </contour>
    </TTGlyph>
    <TTGlyph name="divide" xMin="33" yMin="-2" xMax="416" yMax="463">
      <contour>
        <pt x="183" y="368" on="0"/>
        <pt x="183" y="390" on="1"/>
        <pt x="183" y="441" on="1"/>
        <pt x="183" y="463" on="0"/>
        <pt x="221" y="463" on="1"/>
        <pt x="226" y="463" on="1"/>
        <pt x="264" y="463" on="0"/>
        <pt x="264" y="441" on="1"/>
        <pt x="264" y="390" on="1"/>
        <pt x="264" y="368" on="0"/>
        <pt x="226" y="368" on="1"/>
        <pt x="221" y="368" on="1"/>
      </contour>
      <contour>
        <pt x="33" y="197" on="0"/>
        <pt x="33" y="227" on="1"/>
        <pt x="33" y="234" on="1"/>
        <pt x="33" y="264" on="0"/>
        <pt x="57" y="264" on="1"/>
        <pt x="392" y="264" on="1"/>
        <pt x="416" y="264" on="0"/>
        <pt x="416" y="234" on="1"/>
        <pt x="416" y="227" on="1"/>
        <pt x="416" y="197" on="0"/>
        <pt x="392" y="197" on="1"/>
        <pt x="57" y="197" on="1"/>
      </contour>
      <contour>
        <pt x="183" y="-2" on="0"/>
        <pt x="183" y="20" on="1"/>
        <pt x="183" y="71" on="1"/>
        <pt x="183" y="93" on="0"/>
        <pt x="221" y="93" on="1"/>
        <pt x="226" y="93" on="1"/>
        <pt x="264" y="93" on="0"/>
        <pt x="264" y="71" on="1"/>
        <pt x="264" y="20" on="1"/>
        <pt x="264" y="-2" on="0"/>
        <pt x="226" y="-2" on="1"/>
        <pt x="221" y="-2" on="1"/>
      </contour>
    </TTGlyph>
    <TTGlyph name="dollar" xMin="32" yMin="-71" xMax="408" yMax="758">
      <contour>
        <pt x="210" y="-71" on="0"/>
        <pt x="210" y="-55" on="1"/>
        <pt x="210" y="-5" on="1"/>
        <pt x="157" y="-5" on="0"/>
        <pt x="76" y="17" on="0"/>
        <pt x="43" y="41" on="1"/>
        <pt x="37" y="45" on="0"/>
        <pt x="32" y="54" on="0"/>
        <pt x="32" y="64" on="1"/>
        <pt x="32" y="82" on="0"/>
        <pt x="45" y="121" on="0"/>
        <pt x="55" y="121" on="1"/>
        <pt x="59" y="121" on="0"/>
        <pt x="63" y="117" on="0"/>
        <pt x="64" y="117" on="1"/>
        <pt x="118" y="74" on="0"/>
        <pt x="210" y="74" on="1"/>
        <pt x="210" y="316" on="1"/>
        <pt x="157" y="342" on="0"/>
        <pt x="90" y="389" on="0"/>
        <pt x="47" y="462" on="0"/>
        <pt x="47" y="515" on="1"/>
        <pt x="47" y="594" on="0"/>
        <pt x="136" y="696" on="0"/>
        <pt x="210" y="708" on="1"/>
        <pt x="210" y="742" on="1"/>
        <pt x="210" y="758" on="0"/>
        <pt x="228" y="758" on="1"/>
        <pt x="229" y="758" on="1"/>
        <pt x="247" y="758" on="0"/>
        <pt x="247" y="742" on="1"/>
        <pt x="247" y="711" on="1"/>
        <pt x="326" y="711" on="0"/>
        <pt x="376" y="681" on="1"/>
        <pt x="383" y="677" on="0"/>
        <pt x="383" y="669" on="1"/>
        <pt x="383" y="656" on="0"/>
        <pt x="364" y="608" on="0"/>
        <pt x="355" y="608" on="1"/>
        <pt x="352" y="608" on="0"/>
        <pt x="342" y="613" on="1"/>
        <pt x="304" y="632" on="0"/>
        <pt x="247" y="632" on="1"/>
        <pt x="247" y="396" on="1"/>
        <pt x="252" y="393" on="1"/>
        <pt x="303" y="367" on="0"/>
        <pt x="366" y="322" on="0"/>
        <pt x="408" y="249" on="0"/>
        <pt x="408" y="194" on="1"/>
        <pt x="408" y="113" on="0"/>
        <pt x="320" y="11" on="0"/>
        <pt x="247" y="-1" on="1"/>
        <pt x="247" y="-55" on="1"/>
        <pt x="247" y="-64" on="0"/>
        <pt x="240" y="-71" on="0"/>
        <pt x="230" y="-71" on="1"/>
        <pt x="228" y="-71" on="1"/>
      </contour>
      <contour>
        <pt x="210" y="627" on="1"/>
        <pt x="177" y="617" on="0"/>
        <pt x="135" y="565" on="0"/>
        <pt x="135" y="525" on="1"/>
        <pt x="135" y="489" on="0"/>
        <pt x="172" y="439" on="0"/>
        <pt x="210" y="416" on="1"/>
      </contour>
      <contour>
        <pt x="280" y="92" on="0"/>
        <pt x="319" y="147" on="0"/>
        <pt x="319" y="187" on="1"/>
        <pt x="319" y="226" on="0"/>
        <pt x="282" y="276" on="0"/>
        <pt x="247" y="296" on="1"/>
        <pt x="247" y="81" on="1"/>
      </contour>
    </TTGlyph>
    <TTGlyph name="dotaccent" xMin="85" yMin="607" xMax="175" yMax="702">
      <contour>
        <pt x="85" y="607" on="0"/>
        <pt x="85" y="629" on="1"/>
        <pt x="85" y="680" on="1"/>
        <pt x="85" y="702" on="0"/>
        <pt x="131" y="702" on="1"/>
        <pt x="175" y="702" on="0"/>
        <pt x="175" y="680" on="1"/>
        <pt x="175" y="629" on="1"/>
        <pt x="175" y="607" on="0"/>
        <pt x="129" y="607" on="1"/>
      </contour>
    </TTGlyph>
    <TTGlyph name="dotbelowcomb" xMin="-42" yMin="-175" xMax="48" yMax="-80">
      <contour>
        <pt x="-42" y="-175" on="0"/>
        <pt x="-42" y="-153" on="1"/>
        <pt x="-42" y="-102" on="1"/>
        <pt x="-42" y="-80" on="0"/>
        <pt x="4" y="-80" on="1"/>
        <pt x="48" y="-80" on="0"/>
        <pt x="48" y="-102" on="1"/>
        <pt x="48" y="-153" on="1"/>
        <pt x="48" y="-175" on="0"/>
        <pt x="2" y="-175" on="1"/>
      </contour>
    </TTGlyph>
    <TTGlyph name="dotlessi" xMin="85" yMin="-2" xMax="169" yMax="525">
      <contour>
        <pt x="85" y="-2" on="0"/>
        <pt x="85" y="20" on="1"/>
        <pt x="85" y="503" on="1"/>
        <pt x="85" y="525" on="0"/>
        <pt x="125" y="525" on="1"/>
        <pt x="129" y="525" on="1"/>
        <pt x="169" y="525" on="0"/>
        <pt x="169" y="503" on="1"/>
        <pt x="169" y="20" on="1"/>
        <pt x="169" y="-2" on="0"/>
        <pt x="129" y="-2" on="1"/>
        <pt x="125" y="-2" on="1"/>
      </contour>
    </TTGlyph>
    <TTGlyph name="e" xMin="47" yMin="-6" xMax="419" yMax="529">
      <contour>
        <pt x="150" y="-6" on="0"/>
        <pt x="47" y="124" on="0"/>
        <pt x="47" y="258" on="1"/>
        <pt x="47" y="391" on="0"/>
        <pt x="147" y="529" on="0"/>
        <pt x="244" y="529" on="1"/>
        <pt x="331" y="529" on="0"/>
        <pt x="419" y="396" on="0"/>
        <pt x="419" y="268" on="1"/>
        <pt x="419" y="259" on="0"/>
        <pt x="395" y="227" on="0"/>
        <pt x="386" y="227" on="1"/>
        <pt x="137" y="227" on="1"/>
        <pt x="142" y="142" on="0"/>
        <pt x="196" y="66" on="0"/>
        <pt x="255" y="66" on="1"/>
        <pt x="291" y="66" on="0"/>
        <pt x="339" y="86" on="0"/>
        <pt x="369" y="108" on="0"/>
        <pt x="372" y="108" on="1"/>
        <pt x="382" y="108" on="0"/>
        <pt x="407" y="68" on="0"/>
        <pt x="407" y="58" on="1"/>
        <pt x="407" y="46" on="0"/>
        <pt x="366" y="15" on="0"/>
        <pt x="296" y="-6" on="0"/>
        <pt x="256" y="-6" on="1"/>
      </contour>
      <contour>
        <pt x="330" y="299" on="1"/>
        <pt x="330" y="457" on="0"/>
        <pt x="241" y="457" on="1"/>
        <pt x="145" y="457" on="0"/>
        <pt x="137" y="299" on="1"/>
      </contour>
    </TTGlyph>
    <TTGlyph name="eacute" xMin="47" yMin="-6" xMax="419" yMax="732">
      <component glyphName="e" x="0" y="0" flags="0x0"/>
      <component glyphName="acutecomb" x="364" y="0" flags="0x0"/>
    </TTGlyph>
    <TTGlyph name="ebreve" xMin="47" yMin="-6" xMax="419" yMax="715">
      <component glyphName="e" x="0" y="0" flags="0x0"/>
      <component glyphName="uni0306" x="230" y="0" flags="0x0"/>
    </TTGlyph>
    <TTGlyph name="ecaron" xMin="47" yMin="-6" xMax="419" yMax="725">
      <component glyphName="e" x="0" y="0" flags="0x0"/>
      <component glyphName="uni030C" x="227" y="0" flags="0x0"/>
    </TTGlyph>
    <TTGlyph name="ecircumflex" xMin="47" yMin="-6" xMax="419" yMax="718">
      <component glyphName="e" x="0" y="0" flags="0x0"/>
      <component glyphName="uni0302" x="229" y="0" flags="0x0"/>
    </TTGlyph>
    <TTGlyph name="edieresis" xMin="47" yMin="-6" xMax="419" yMax="702">
      <component glyphName="e" x="0" y="0" flags="0x0"/>
      <component glyphName="uni0308" x="233" y="0" flags="0x0"/>
    </TTGlyph>
    <TTGlyph name="edotaccent" xMin="47" yMin="-6" xMax="419" yMax="702">
      <component glyphName="e" x="0" y="0" flags="0x0"/>
      <component glyphName="uni0307" x="231" y="0" flags="0x0"/>
    </TTGlyph>
    <TTGlyph name="egrave" xMin="47" yMin="-6" xMax="419" yMax="732">
      <component glyphName="e" x="0" y="0" flags="0x0"/>
      <component glyphName="gravecomb" x="231" y="0" flags="0x0"/>
    </TTGlyph>
    <TTGlyph name="eight" xMin="40" yMin="-6" xMax="420" yMax="706">
      <contour>
        <pt x="145" y="-6" on="0"/>
        <pt x="40" y="95" on="0"/>
        <pt x="40" y="192" on="1"/>
        <pt x="40" y="321" on="0"/>
        <pt x="142" y="374" on="1"/>
        <pt x="105" y="399" on="0"/>
        <pt x="62" y="474" on="0"/>
        <pt x="62" y="531" on="1"/>
        <pt x="62" y="615" on="0"/>
        <pt x="158" y="706" on="0"/>
        <pt x="232" y="706" on="1"/>
        <pt x="303" y="706" on="0"/>
        <pt x="403" y="621" on="0"/>
        <pt x="403" y="538" on="1"/>
        <pt x="403" y="479" on="0"/>
        <pt x="352" y="398" on="0"/>
        <pt x="310" y="376" on="1"/>
        <pt x="362" y="347" on="0"/>
        <pt x="420" y="268" on="0"/>
        <pt x="420" y="196" on="1"/>
        <pt x="420" y="101" on="0"/>
        <pt x="314" y="-6" on="0"/>
        <pt x="228" y="-6" on="1"/>
      </contour>
      <contour>
        <pt x="280" y="432" on="0"/>
        <pt x="318" y="491" on="0"/>
        <pt x="318" y="534" on="1"/>
        <pt x="318" y="584" on="0"/>
        <pt x="269" y="634" on="0"/>
        <pt x="231" y="634" on="1"/>
        <pt x="194" y="634" on="0"/>
        <pt x="146" y="584" on="0"/>
        <pt x="146" y="536" on="1"/>
        <pt x="146" y="487" on="0"/>
        <pt x="196" y="433" on="0"/>
        <pt x="245" y="409" on="1"/>
      </contour>
      <contour>
        <pt x="274" y="66" on="0"/>
        <pt x="334" y="137" on="0"/>
        <pt x="334" y="196" on="1"/>
        <pt x="334" y="238" on="0"/>
        <pt x="299" y="291" on="0"/>
        <pt x="253" y="319" on="0"/>
        <pt x="204" y="342" on="1"/>
        <pt x="166" y="318" on="0"/>
        <pt x="126" y="250" on="0"/>
        <pt x="126" y="197" on="1"/>
        <pt x="126" y="132" on="0"/>
        <pt x="185" y="66" on="0"/>
        <pt x="229" y="66" on="1"/>
      </contour>
    </TTGlyph>
    <TTGlyph name="ellipsis" xMin="47" yMin="-2" xMax="505" yMax="108">
      <contour>
        <pt x="47" y="-2" on="0"/>
        <pt x="47" y="20" on="1"/>
        <pt x="47" y="86" on="1"/>
        <pt x="47" y="108" on="0"/>
        <pt x="85" y="108" on="1"/>
        <pt x="103" y="108" on="1"/>
        <pt x="141" y="108" on="0"/>
        <pt x="141" y="86" on="1"/>
        <pt x="141" y="20" on="1"/>
        <pt x="141" y="-2" on="0"/>
        <pt x="103" y="-2" on="1"/>
        <pt x="85" y="-2" on="1"/>
      </contour>
      <contour>
        <pt x="229" y="-2" on="0"/>
        <pt x="229" y="20" on="1"/>
        <pt x="229" y="86" on="1"/>
        <pt x="229" y="108" on="0"/>
        <pt x="267" y="108" on="1"/>
        <pt x="285" y="108" on="1"/>
        <pt x="323" y="108" on="0"/>
        <pt x="323" y="86" on="1"/>
        <pt x="323" y="20" on="1"/>
        <pt x="323" y="-2" on="0"/>
        <pt x="285" y="-2" on="1"/>
        <pt x="267" y="-2" on="1"/>
      </contour>
      <contour>
        <pt x="411" y="-2" on="0"/>
        <pt x="411" y="20" on="1"/>
        <pt x="411" y="86" on="1"/>
        <pt x="411" y="108" on="0"/>
        <pt x="449" y="108" on="1"/>
        <pt x="467" y="108" on="1"/>
        <pt x="505" y="108" on="0"/>
        <pt x="505" y="86" on="1"/>
        <pt x="505" y="20" on="1"/>
        <pt x="505" y="-2" on="0"/>
        <pt x="467" y="-2" on="1"/>
        <pt x="449" y="-2" on="1"/>
      </contour>
    </TTGlyph>
    <TTGlyph name="emacron" xMin="47" yMin="-6" xMax="419" yMax="682">
      <component glyphName="e" x="0" y="0" flags="0x0"/>
      <component glyphName="uni0304" x="237" y="0" flags="0x0"/>
    </TTGlyph>
    <TTGlyph name="emdash" xMin="0" yMin="230" xMax="886" yMax="300">
      <contour>
        <pt x="0" y="230" on="0"/>
        <pt x="0" y="260" on="1"/>
        <pt x="0" y="270" on="1"/>
        <pt x="0" y="300" on="0"/>
        <pt x="19" y="300" on="1"/>
        <pt x="867" y="300" on="1"/>
        <pt x="886" y="300" on="0"/>
        <pt x="886" y="270" on="1"/>
        <pt x="886" y="260" on="1"/>
        <pt x="886" y="230" on="0"/>
        <pt x="867" y="230" on="1"/>
        <pt x="19" y="230" on="1"/>
      </contour>
    </TTGlyph>
    <TTGlyph name="endash" xMin="0" yMin="230" xMax="443" yMax="300">
      <contour>
        <pt x="0" y="230" on="0"/>
        <pt x="0" y="260" on="1"/>
        <pt x="0" y="270" on="1"/>
        <pt x="0" y="300" on="0"/>
        <pt x="19" y="300" on="1"/>
        <pt x="424" y="300" on="1"/>
        <pt x="443" y="300" on="0"/>
        <pt x="443" y="270" on="1"/>
        <pt x="443" y="260" on="1"/>
        <pt x="443" y="230" on="0"/>
        <pt x="424" y="230" on="1"/>
        <pt x="19" y="230" on="1"/>
      </contour>
    </TTGlyph>
    <TTGlyph name="eng" xMin="68" yMin="-212" xMax="414" yMax="529">
      <contour>
        <pt x="233" y="-212" on="0"/>
        <pt x="233" y="-182" on="1"/>
        <pt x="233" y="-172" on="0"/>
        <pt x="245" y="-135" on="0"/>
        <pt x="254" y="-135" on="1"/>
        <pt x="258" y="-135" on="0"/>
        <pt x="274" y="-140" on="0"/>
        <pt x="290" y="-140" on="1"/>
        <pt x="327" y="-140" on="0"/>
        <pt x="327" y="-72" on="1"/>
        <pt x="327" y="365" on="1"/>
        <pt x="327" y="409" on="0"/>
        <pt x="291" y="456" on="0"/>
        <pt x="256" y="456" on="1"/>
        <pt x="229" y="456" on="0"/>
        <pt x="179" y="417" on="0"/>
        <pt x="164" y="386" on="1"/>
        <pt x="164" y="20" on="1"/>
        <pt x="164" y="-2" on="0"/>
        <pt x="126" y="-2" on="1"/>
        <pt x="115" y="-2" on="1"/>
        <pt x="78" y="-2" on="0"/>
        <pt x="78" y="20" on="1"/>
        <pt x="78" y="373" on="1"/>
        <pt x="78" y="438" on="0"/>
        <pt x="68" y="496" on="0"/>
        <pt x="68" y="499" on="1"/>
        <pt x="68" y="511" on="0"/>
        <pt x="111" y="522" on="0"/>
        <pt x="126" y="522" on="1"/>
        <pt x="140" y="522" on="0"/>
        <pt x="151" y="496" on="0"/>
        <pt x="157" y="462" on="0"/>
        <pt x="158" y="454" on="1"/>
        <pt x="181" y="489" on="0"/>
        <pt x="247" y="529" on="0"/>
        <pt x="284" y="529" on="1"/>
        <pt x="346" y="529" on="0"/>
        <pt x="414" y="446" on="0"/>
        <pt x="414" y="373" on="1"/>
        <pt x="414" y="-80" on="1"/>
        <pt x="414" y="-154" on="0"/>
        <pt x="346" y="-212" on="0"/>
        <pt x="303" y="-212" on="1"/>
      </contour>
    </TTGlyph>
    <TTGlyph name="eogonek" xMin="47" yMin="-170" xMax="446" yMax="529">
      <contour>
        <pt x="446" y="-100" on="0"/>
        <pt x="446" y="-124" on="1"/>
        <pt x="446" y="-142" on="0"/>
        <pt x="433" y="-151" on="1"/>
        <pt x="405" y="-170" on="0"/>
        <pt x="367" y="-170" on="1"/>
        <pt x="313" y="-170" on="0"/>
        <pt x="275" y="-113" on="0"/>
        <pt x="275" y="-82" on="1"/>
        <pt x="275" y="-43" on="0"/>
        <pt x="295" y="-3" on="1"/>
        <pt x="277" y="-6" on="0"/>
        <pt x="256" y="-6" on="1"/>
        <pt x="150" y="-6" on="0"/>
        <pt x="47" y="124" on="0"/>
        <pt x="47" y="258" on="1"/>
        <pt x="47" y="391" on="0"/>
        <pt x="147" y="529" on="0"/>
        <pt x="244" y="529" on="1"/>
        <pt x="331" y="529" on="0"/>
        <pt x="419" y="396" on="0"/>
        <pt x="419" y="268" on="1"/>
        <pt x="419" y="259" on="0"/>
        <pt x="395" y="227" on="0"/>
        <pt x="386" y="227" on="1"/>
        <pt x="137" y="227" on="1"/>
        <pt x="142" y="142" on="0"/>
        <pt x="196" y="66" on="0"/>
        <pt x="255" y="66" on="1"/>
        <pt x="291" y="66" on="0"/>
        <pt x="339" y="86" on="0"/>
        <pt x="369" y="108" on="0"/>
        <pt x="372" y="108" on="1"/>
        <pt x="382" y="108" on="0"/>
        <pt x="407" y="68" on="0"/>
        <pt x="407" y="58" on="1"/>
        <pt x="407" y="49" on="0"/>
        <pt x="382" y="26" on="0"/>
        <pt x="361" y="16" on="1"/>
        <pt x="349" y="-6" on="0"/>
        <pt x="336" y="-48" on="0"/>
        <pt x="336" y="-64" on="1"/>
        <pt x="336" y="-107" on="0"/>
        <pt x="386" y="-107" on="1"/>
        <pt x="394" y="-107" on="0"/>
        <pt x="422" y="-100" on="0"/>
        <pt x="426" y="-100" on="1"/>
      </contour>
      <contour>
        <pt x="145" y="457" on="0"/>
        <pt x="137" y="299" on="1"/>
        <pt x="330" y="299" on="1"/>
        <pt x="330" y="457" on="0"/>
        <pt x="241" y="457" on="1"/>
      </contour>
    </TTGlyph>
    <TTGlyph name="equal" xMin="37" yMin="107" xMax="412" yMax="338">
      <contour>
        <pt x="37" y="271" on="0"/>
        <pt x="37" y="301" on="1"/>
        <pt x="37" y="308" on="1"/>
        <pt x="37" y="338" on="0"/>
        <pt x="61" y="338" on="1"/>
        <pt x="389" y="338" on="1"/>
        <pt x="412" y="338" on="0"/>
        <pt x="412" y="308" on="1"/>
        <pt x="412" y="301" on="1"/>
        <pt x="412" y="271" on="0"/>
        <pt x="389" y="271" on="1"/>
        <pt x="61" y="271" on="1"/>
      </contour>
      <contour>
        <pt x="37" y="107" on="0"/>
        <pt x="37" y="137" on="1"/>
        <pt x="37" y="145" on="1"/>
        <pt x="37" y="175" on="0"/>
        <pt x="61" y="175" on="1"/>
        <pt x="389" y="175" on="1"/>
        <pt x="412" y="175" on="0"/>
        <pt x="412" y="145" on="1"/>
        <pt x="412" y="137" on="1"/>
        <pt x="412" y="107" on="0"/>
        <pt x="389" y="107" on="1"/>
        <pt x="61" y="107" on="1"/>
      </contour>
    </TTGlyph>
    <TTGlyph name="estimated" xMin="22" yMin="-7" xMax="593" yMax="707">
      <contour>
        <pt x="141" y="133" on="1"/>
        <pt x="174" y="91" on="0"/>
        <pt x="265" y="48" on="0"/>
        <pt x="320" y="48" on="1"/>
        <pt x="367" y="48" on="0"/>
        <pt x="463" y="93" on="0"/>
        <pt x="491" y="131" on="1"/>
        <pt x="501" y="146" on="0"/>
        <pt x="512" y="146" on="1"/>
        <pt x="525" y="146" on="0"/>
        <pt x="543" y="128" on="0"/>
        <pt x="543" y="118" on="1"/>
        <pt x="543" y="110" on="0"/>
        <pt x="533" y="97" on="1"/>
        <pt x="491" y="48" on="0"/>
        <pt x="380" y="-7" on="0"/>
        <pt x="320" y="-7" on="1"/>
        <pt x="237" y="-7" on="0"/>
        <pt x="102" y="79" on="0"/>
        <pt x="22" y="243" on="0"/>
        <pt x="22" y="355" on="1"/>
        <pt x="22" y="465" on="0"/>
        <pt x="99" y="624" on="0"/>
        <pt x="231" y="707" on="0"/>
        <pt x="312" y="707" on="1"/>
        <pt x="390" y="707" on="0"/>
        <pt x="518" y="624" on="0"/>
        <pt x="593" y="465" on="0"/>
        <pt x="593" y="355" on="1"/>
        <pt x="141" y="355" on="1"/>
      </contour>
      <contour>
        <pt x="261" y="657" on="0"/>
        <pt x="172" y="614" on="0"/>
        <pt x="141" y="573" on="1"/>
        <pt x="141" y="405" on="1"/>
        <pt x="478" y="405" on="1"/>
        <pt x="478" y="573" on="1"/>
        <pt x="446" y="614" on="0"/>
        <pt x="360" y="657" on="0"/>
        <pt x="312" y="657" on="1"/>
      </contour>
    </TTGlyph>
    <TTGlyph name="eth" xMin="47" yMin="-6" xMax="430" yMax="714">
      <contour>
        <pt x="379" y="527" on="0"/>
        <pt x="430" y="354" on="0"/>
        <pt x="430" y="260" on="1"/>
        <pt x="430" y="130" on="0"/>
        <pt x="333" y="-6" on="0"/>
        <pt x="240" y="-6" on="1"/>
        <pt x="146" y="-6" on="0"/>
        <pt x="47" y="130" on="0"/>
        <pt x="47" y="259" on="1"/>
        <pt x="47" y="388" on="0"/>
        <pt x="147" y="526" on="0"/>
        <pt x="240" y="526" on="1"/>
        <pt x="269" y="526" on="0"/>
        <pt x="293" y="519" on="1"/>
        <pt x="278" y="559" on="0"/>
        <pt x="248" y="607" on="1"/>
        <pt x="162" y="595" on="1"/>
        <pt x="152" y="595" on="0"/>
        <pt x="136" y="616" on="0"/>
        <pt x="136" y="627" on="1"/>
        <pt x="136" y="637" on="0"/>
        <pt x="151" y="640" on="1"/>
        <pt x="223" y="650" on="1"/>
        <pt x="212" y="665" on="0"/>
        <pt x="197" y="691" on="0"/>
        <pt x="197" y="698" on="1"/>
        <pt x="197" y="709" on="0"/>
        <pt x="213" y="712" on="1"/>
        <pt x="227" y="714" on="0"/>
        <pt x="240" y="714" on="1"/>
        <pt x="256" y="714" on="0"/>
        <pt x="266" y="702" on="1"/>
        <pt x="286" y="678" on="0"/>
        <pt x="299" y="660" on="1"/>
        <pt x="373" y="671" on="0"/>
        <pt x="377" y="671" on="1"/>
        <pt x="389" y="671" on="0"/>
        <pt x="402" y="647" on="0"/>
        <pt x="402" y="639" on="1"/>
        <pt x="402" y="628" on="0"/>
        <pt x="387" y="626" on="1"/>
        <pt x="327" y="618" on="1"/>
      </contour>
      <contour>
        <pt x="291" y="66" on="0"/>
        <pt x="342" y="161" on="0"/>
        <pt x="342" y="261" on="1"/>
        <pt x="342" y="359" on="0"/>
        <pt x="291" y="454" on="0"/>
        <pt x="238" y="454" on="1"/>
        <pt x="185" y="454" on="0"/>
        <pt x="135" y="360" on="0"/>
        <pt x="135" y="261" on="1"/>
        <pt x="135" y="161" on="0"/>
        <pt x="185" y="66" on="0"/>
        <pt x="238" y="66" on="1"/>
      </contour>
    </TTGlyph>
    <TTGlyph name="exclam" xMin="73" yMin="-2" xMax="183" yMax="702">
      <contour>
        <pt x="85" y="202" on="0"/>
        <pt x="85" y="224" on="1"/>
        <pt x="85" y="680" on="1"/>
        <pt x="85" y="702" on="0"/>
        <pt x="123" y="702" on="1"/>
        <pt x="146" y="702" on="1"/>
        <pt x="183" y="702" on="0"/>
        <pt x="183" y="680" on="1"/>
        <pt x="155" y="224" on="1"/>
        <pt x="154" y="213" on="0"/>
        <pt x="140" y="202" on="0"/>
        <pt x="124" y="202" on="1"/>
        <pt x="116" y="202" on="1"/>
      </contour>
      <contour>
        <pt x="73" y="-2" on="0"/>
        <pt x="73" y="20" on="1"/>
        <pt x="73" y="86" on="1"/>
        <pt x="73" y="108" on="0"/>
        <pt x="111" y="108" on="1"/>
        <pt x="129" y="108" on="1"/>
        <pt x="167" y="108" on="0"/>
        <pt x="167" y="86" on="1"/>
        <pt x="167" y="20" on="1"/>
        <pt x="167" y="-2" on="0"/>
        <pt x="129" y="-2" on="1"/>
        <pt x="111" y="-2" on="1"/>
      </contour>
    </TTGlyph>
    <TTGlyph name="exclamdown" xMin="63" yMin="-179" xMax="173" yMax="525">
      <contour>
        <pt x="79" y="415" on="0"/>
        <pt x="79" y="437" on="1"/>
        <pt x="79" y="503" on="1"/>
        <pt x="79" y="525" on="0"/>
        <pt x="117" y="525" on="1"/>
        <pt x="135" y="525" on="1"/>
        <pt x="173" y="525" on="0"/>
        <pt x="173" y="503" on="1"/>
        <pt x="173" y="437" on="1"/>
        <pt x="173" y="415" on="0"/>
        <pt x="135" y="415" on="1"/>
        <pt x="117" y="415" on="1"/>
      </contour>
      <contour>
        <pt x="63" y="-179" on="0"/>
        <pt x="63" y="-157" on="1"/>
        <pt x="63" y="-139" on="0"/>
        <pt x="83" y="167" on="0"/>
        <pt x="92" y="299" on="1"/>
        <pt x="93" y="310" on="0"/>
        <pt x="106" y="321" on="0"/>
        <pt x="122" y="321" on="1"/>
        <pt x="131" y="321" on="1"/>
        <pt x="148" y="321" on="0"/>
        <pt x="161" y="310" on="0"/>
        <pt x="161" y="299" on="1"/>
        <pt x="161" y="-157" on="1"/>
        <pt x="161" y="-179" on="0"/>
        <pt x="123" y="-179" on="1"/>
        <pt x="100" y="-179" on="1"/>
      </contour>
    </TTGlyph>
    <TTGlyph name="f" xMin="48" yMin="-2" xMax="280" yMax="756">
      <contour>
        <pt x="97" y="-2" on="0"/>
        <pt x="97" y="20" on="1"/>
        <pt x="97" y="451" on="1"/>
        <pt x="68" y="451" on="1"/>
        <pt x="58" y="451" on="0"/>
        <pt x="48" y="465" on="0"/>
        <pt x="48" y="481" on="1"/>
        <pt x="48" y="493" on="1"/>
        <pt x="48" y="509" on="0"/>
        <pt x="58" y="523" on="0"/>
        <pt x="68" y="523" on="1"/>
        <pt x="97" y="523" on="1"/>
        <pt x="97" y="629" on="1"/>
        <pt x="97" y="702" on="0"/>
        <pt x="167" y="756" on="0"/>
        <pt x="211" y="756" on="1"/>
        <pt x="237" y="756" on="0"/>
        <pt x="280" y="740" on="0"/>
        <pt x="280" y="725" on="1"/>
        <pt x="280" y="714" on="0"/>
        <pt x="268" y="678" on="0"/>
        <pt x="258" y="678" on="1"/>
        <pt x="255" y="678" on="0"/>
        <pt x="236" y="684" on="0"/>
        <pt x="222" y="684" on="1"/>
        <pt x="202" y="684" on="0"/>
        <pt x="181" y="659" on="0"/>
        <pt x="181" y="621" on="1"/>
        <pt x="181" y="523" on="1"/>
        <pt x="248" y="523" on="1"/>
        <pt x="259" y="523" on="0"/>
        <pt x="268" y="509" on="0"/>
        <pt x="268" y="493" on="1"/>
        <pt x="268" y="481" on="1"/>
        <pt x="268" y="465" on="0"/>
        <pt x="259" y="451" on="0"/>
        <pt x="248" y="451" on="1"/>
        <pt x="181" y="451" on="1"/>
        <pt x="181" y="20" on="1"/>
        <pt x="181" y="-2" on="0"/>
        <pt x="141" y="-2" on="1"/>
        <pt x="137" y="-2" on="1"/>
      </contour>
    </TTGlyph>
    <TTGlyph name="f_f" xMin="48" yMin="-2" xMax="566" yMax="756">
      <contour>
        <pt x="545" y="523" on="0"/>
        <pt x="554" y="509" on="0"/>
        <pt x="554" y="493" on="1"/>
        <pt x="554" y="481" on="1"/>
        <pt x="554" y="465" on="0"/>
        <pt x="545" y="451" on="0"/>
        <pt x="534" y="451" on="1"/>
        <pt x="467" y="451" on="1"/>
        <pt x="467" y="20" on="1"/>
        <pt x="467" y="-2" on="0"/>
        <pt x="427" y="-2" on="1"/>
        <pt x="423" y="-2" on="1"/>
        <pt x="383" y="-2" on="0"/>
        <pt x="383" y="20" on="1"/>
        <pt x="383" y="451" on="1"/>
        <pt x="181" y="451" on="1"/>
        <pt x="181" y="20" on="1"/>
        <pt x="181" y="-2" on="0"/>
        <pt x="141" y="-2" on="1"/>
        <pt x="137" y="-2" on="1"/>
        <pt x="97" y="-2" on="0"/>
        <pt x="97" y="20" on="1"/>
        <pt x="97" y="451" on="1"/>
        <pt x="68" y="451" on="1"/>
        <pt x="58" y="451" on="0"/>
        <pt x="48" y="465" on="0"/>
        <pt x="48" y="481" on="1"/>
        <pt x="48" y="493" on="1"/>
        <pt x="48" y="509" on="0"/>
        <pt x="58" y="523" on="0"/>
        <pt x="68" y="523" on="1"/>
        <pt x="97" y="523" on="1"/>
        <pt x="97" y="629" on="1"/>
        <pt x="97" y="702" on="0"/>
        <pt x="167" y="756" on="0"/>
        <pt x="211" y="756" on="1"/>
        <pt x="237" y="756" on="0"/>
        <pt x="280" y="740" on="0"/>
        <pt x="280" y="725" on="1"/>
        <pt x="280" y="714" on="0"/>
        <pt x="268" y="678" on="0"/>
        <pt x="258" y="678" on="1"/>
        <pt x="255" y="678" on="0"/>
        <pt x="236" y="684" on="0"/>
        <pt x="222" y="684" on="1"/>
        <pt x="202" y="684" on="0"/>
        <pt x="181" y="659" on="0"/>
        <pt x="181" y="621" on="1"/>
        <pt x="181" y="523" on="1"/>
        <pt x="383" y="523" on="1"/>
        <pt x="383" y="629" on="1"/>
        <pt x="383" y="702" on="0"/>
        <pt x="453" y="756" on="0"/>
        <pt x="497" y="756" on="1"/>
        <pt x="523" y="756" on="0"/>
        <pt x="566" y="740" on="0"/>
        <pt x="566" y="725" on="1"/>
        <pt x="566" y="714" on="0"/>
        <pt x="554" y="678" on="0"/>
        <pt x="544" y="678" on="1"/>
        <pt x="541" y="678" on="0"/>
        <pt x="522" y="684" on="0"/>
        <pt x="508" y="684" on="1"/>
        <pt x="488" y="684" on="0"/>
        <pt x="467" y="659" on="0"/>
        <pt x="467" y="621" on="1"/>
        <pt x="467" y="523" on="1"/>
        <pt x="534" y="523" on="1"/>
      </contour>
    </TTGlyph>
    <TTGlyph name="f_t" xMin="48" yMin="-6" xMax="555" yMax="756">
      <contour>
        <pt x="543" y="71" on="0"/>
        <pt x="555" y="35" on="0"/>
        <pt x="555" y="23" on="1"/>
        <pt x="555" y="7" on="0"/>
        <pt x="514" y="-6" on="0"/>
        <pt x="489" y="-6" on="1"/>
        <pt x="445" y="-6" on="0"/>
        <pt x="377" y="47" on="0"/>
        <pt x="377" y="115" on="1"/>
        <pt x="377" y="451" on="1"/>
        <pt x="181" y="451" on="1"/>
        <pt x="181" y="20" on="1"/>
        <pt x="181" y="-2" on="0"/>
        <pt x="141" y="-2" on="1"/>
        <pt x="137" y="-2" on="1"/>
        <pt x="97" y="-2" on="0"/>
        <pt x="97" y="20" on="1"/>
        <pt x="97" y="451" on="1"/>
        <pt x="68" y="451" on="1"/>
        <pt x="58" y="451" on="0"/>
        <pt x="48" y="465" on="0"/>
        <pt x="48" y="481" on="1"/>
        <pt x="48" y="493" on="1"/>
        <pt x="48" y="509" on="0"/>
        <pt x="58" y="523" on="0"/>
        <pt x="68" y="523" on="1"/>
        <pt x="97" y="523" on="1"/>
        <pt x="97" y="629" on="1"/>
        <pt x="97" y="702" on="0"/>
        <pt x="167" y="756" on="0"/>
        <pt x="211" y="756" on="1"/>
        <pt x="237" y="756" on="0"/>
        <pt x="280" y="740" on="0"/>
        <pt x="280" y="725" on="1"/>
        <pt x="280" y="714" on="0"/>
        <pt x="268" y="678" on="0"/>
        <pt x="258" y="678" on="1"/>
        <pt x="255" y="678" on="0"/>
        <pt x="236" y="684" on="0"/>
        <pt x="222" y="684" on="1"/>
        <pt x="202" y="684" on="0"/>
        <pt x="181" y="659" on="0"/>
        <pt x="181" y="621" on="1"/>
        <pt x="181" y="523" on="1"/>
        <pt x="377" y="523" on="1"/>
        <pt x="389" y="628" on="1"/>
        <pt x="391" y="650" on="0"/>
        <pt x="421" y="650" on="1"/>
        <pt x="431" y="650" on="1"/>
        <pt x="461" y="650" on="0"/>
        <pt x="461" y="628" on="1"/>
        <pt x="461" y="523" on="1"/>
        <pt x="527" y="523" on="1"/>
        <pt x="538" y="523" on="0"/>
        <pt x="547" y="509" on="0"/>
        <pt x="547" y="493" on="1"/>
        <pt x="547" y="481" on="1"/>
        <pt x="547" y="465" on="0"/>
        <pt x="538" y="451" on="0"/>
        <pt x="527" y="451" on="1"/>
        <pt x="461" y="451" on="1"/>
        <pt x="461" y="129" on="1"/>
        <pt x="461" y="93" on="0"/>
        <pt x="481" y="66" on="0"/>
        <pt x="500" y="66" on="1"/>
        <pt x="513" y="66" on="0"/>
        <pt x="531" y="71" on="0"/>
        <pt x="534" y="71" on="1"/>
      </contour>
    </TTGlyph>
    <TTGlyph name="fi" xMin="48" yMin="-2" xMax="459" yMax="756">
      <contour>
        <pt x="455" y="523" on="0"/>
        <pt x="455" y="503" on="1"/>
        <pt x="455" y="20" on="1"/>
        <pt x="455" y="-2" on="0"/>
        <pt x="415" y="-2" on="1"/>
        <pt x="411" y="-2" on="1"/>
        <pt x="371" y="-2" on="0"/>
        <pt x="371" y="20" on="1"/>
        <pt x="371" y="451" on="1"/>
        <pt x="181" y="451" on="1"/>
        <pt x="181" y="20" on="1"/>
        <pt x="181" y="-2" on="0"/>
        <pt x="141" y="-2" on="1"/>
        <pt x="137" y="-2" on="1"/>
        <pt x="97" y="-2" on="0"/>
        <pt x="97" y="20" on="1"/>
        <pt x="97" y="451" on="1"/>
        <pt x="68" y="451" on="1"/>
        <pt x="58" y="451" on="0"/>
        <pt x="48" y="465" on="0"/>
        <pt x="48" y="481" on="1"/>
        <pt x="48" y="493" on="1"/>
        <pt x="48" y="509" on="0"/>
        <pt x="58" y="523" on="0"/>
        <pt x="68" y="523" on="1"/>
        <pt x="97" y="523" on="1"/>
        <pt x="97" y="629" on="1"/>
        <pt x="97" y="702" on="0"/>
        <pt x="167" y="756" on="0"/>
        <pt x="211" y="756" on="1"/>
        <pt x="237" y="756" on="0"/>
        <pt x="280" y="740" on="0"/>
        <pt x="280" y="725" on="1"/>
        <pt x="280" y="714" on="0"/>
        <pt x="268" y="678" on="0"/>
        <pt x="258" y="678" on="1"/>
        <pt x="255" y="678" on="0"/>
        <pt x="236" y="684" on="0"/>
        <pt x="222" y="684" on="1"/>
        <pt x="202" y="684" on="0"/>
        <pt x="181" y="659" on="0"/>
        <pt x="181" y="621" on="1"/>
        <pt x="181" y="523" on="1"/>
        <pt x="415" y="523" on="1"/>
      </contour>
      <contour>
        <pt x="459" y="702" on="0"/>
        <pt x="459" y="680" on="1"/>
        <pt x="459" y="629" on="1"/>
        <pt x="459" y="607" on="0"/>
        <pt x="413" y="607" on="1"/>
        <pt x="369" y="607" on="0"/>
        <pt x="369" y="629" on="1"/>
        <pt x="369" y="680" on="1"/>
        <pt x="369" y="702" on="0"/>
        <pt x="415" y="702" on="1"/>
      </contour>
    </TTGlyph>
    <TTGlyph name="five" xMin="36" yMin="-6" xMax="416" yMax="700">
      <contour>
        <pt x="156" y="-6" on="0"/>
        <pt x="79" y="13" on="0"/>
        <pt x="36" y="41" on="0"/>
        <pt x="36" y="54" on="1"/>
        <pt x="36" y="68" on="0"/>
        <pt x="62" y="104" on="0"/>
        <pt x="71" y="104" on="1"/>
        <pt x="75" y="104" on="0"/>
        <pt x="93" y="95" on="1"/>
        <pt x="120" y="81" on="0"/>
        <pt x="166" y="66" on="0"/>
        <pt x="199" y="66" on="1"/>
        <pt x="254" y="66" on="0"/>
        <pt x="330" y="143" on="0"/>
        <pt x="330" y="212" on="1"/>
        <pt x="330" y="280" on="0"/>
        <pt x="248" y="350" on="0"/>
        <pt x="170" y="350" on="1"/>
        <pt x="95" y="350" on="1"/>
        <pt x="79" y="350" on="0"/>
        <pt x="67" y="364" on="0"/>
        <pt x="67" y="380" on="1"/>
        <pt x="84" y="670" on="1"/>
        <pt x="85" y="686" on="0"/>
        <pt x="100" y="700" on="0"/>
        <pt x="116" y="700" on="1"/>
        <pt x="364" y="700" on="1"/>
        <pt x="375" y="700" on="0"/>
        <pt x="384" y="686" on="0"/>
        <pt x="384" y="670" on="1"/>
        <pt x="384" y="658" on="1"/>
        <pt x="384" y="642" on="0"/>
        <pt x="375" y="628" on="0"/>
        <pt x="364" y="628" on="1"/>
        <pt x="165" y="628" on="1"/>
        <pt x="152" y="422" on="1"/>
        <pt x="196" y="422" on="1"/>
        <pt x="285" y="422" on="0"/>
        <pt x="416" y="324" on="0"/>
        <pt x="416" y="210" on="1"/>
        <pt x="416" y="94" on="0"/>
        <pt x="291" y="-6" on="0"/>
        <pt x="202" y="-6" on="1"/>
      </contour>
    </TTGlyph>
    <TTGlyph name="fl" xMin="48" yMin="-6" xMax="536" yMax="756">
      <component glyphName="f" x="0" y="0" flags="0x0"/>
      <component glyphName="l" x="286" y="0" flags="0x0"/>
    </TTGlyph>
    <TTGlyph name="florin" xMin="15" yMin="-207" xMax="322" yMax="756">
      <contour>
        <pt x="30" y="-207" on="0"/>
        <pt x="15" y="-197" on="0"/>
        <pt x="15" y="-186" on="1"/>
        <pt x="23" y="-115" on="1"/>
        <pt x="60" y="200" on="0"/>
        <pt x="84" y="441" on="1"/>
        <pt x="40" y="441" on="1"/>
        <pt x="23" y="441" on="0"/>
        <pt x="23" y="460" on="1"/>
        <pt x="23" y="513" on="0"/>
        <pt x="50" y="513" on="1"/>
        <pt x="92" y="513" on="1"/>
        <pt x="104" y="618" on="1"/>
        <pt x="113" y="697" on="0"/>
        <pt x="201" y="756" on="0"/>
        <pt x="253" y="756" on="1"/>
        <pt x="322" y="756" on="0"/>
        <pt x="322" y="726" on="1"/>
        <pt x="321" y="716" on="0"/>
        <pt x="303" y="679" on="0"/>
        <pt x="294" y="679" on="1"/>
        <pt x="289" y="679" on="0"/>
        <pt x="271" y="684" on="0"/>
        <pt x="252" y="684" on="1"/>
        <pt x="226" y="684" on="0"/>
        <pt x="192" y="655" on="0"/>
        <pt x="187" y="610" on="1"/>
        <pt x="176" y="513" on="1"/>
        <pt x="261" y="513" on="1"/>
        <pt x="278" y="513" on="0"/>
        <pt x="278" y="493" on="1"/>
        <pt x="278" y="476" on="0"/>
        <pt x="266" y="441" on="0"/>
        <pt x="251" y="441" on="1"/>
        <pt x="168" y="441" on="1"/>
        <pt x="99" y="-186" on="1"/>
        <pt x="98" y="-197" on="0"/>
        <pt x="80" y="-207" on="0"/>
        <pt x="59" y="-207" on="1"/>
        <pt x="49" y="-207" on="1"/>
      </contour>
    </TTGlyph>
    <TTGlyph name="four" xMin="12" yMin="-2" xMax="442" yMax="702">
      <contour>
        <pt x="283" y="-2" on="0"/>
        <pt x="283" y="20" on="1"/>
        <pt x="283" y="167" on="1"/>
        <pt x="36" y="167" on="1"/>
        <pt x="28" y="167" on="0"/>
        <pt x="12" y="203" on="0"/>
        <pt x="12" y="218" on="1"/>
        <pt x="12" y="223" on="0"/>
        <pt x="14" y="229" on="1"/>
        <pt x="282" y="689" on="1"/>
        <pt x="291" y="702" on="0"/>
        <pt x="316" y="702" on="1"/>
        <pt x="336" y="702" on="1"/>
        <pt x="366" y="702" on="0"/>
        <pt x="366" y="680" on="1"/>
        <pt x="366" y="239" on="1"/>
        <pt x="422" y="239" on="1"/>
        <pt x="433" y="239" on="0"/>
        <pt x="442" y="225" on="0"/>
        <pt x="442" y="209" on="1"/>
        <pt x="442" y="197" on="1"/>
        <pt x="442" y="181" on="0"/>
        <pt x="433" y="167" on="0"/>
        <pt x="422" y="167" on="1"/>
        <pt x="366" y="167" on="1"/>
        <pt x="366" y="20" on="1"/>
        <pt x="366" y="-2" on="0"/>
        <pt x="336" y="-2" on="1"/>
        <pt x="313" y="-2" on="1"/>
      </contour>
      <contour>
        <pt x="283" y="239" on="1"/>
        <pt x="283" y="439" on="1"/>
        <pt x="283" y="503" on="0"/>
        <pt x="292" y="561" on="1"/>
        <pt x="288" y="563" on="1"/>
        <pt x="102" y="239" on="1"/>
      </contour>
    </TTGlyph>
</ttFont>
